<?xml version="1.0" standalone="no"?>
<!DOCTYPE svg PUBLIC "-//W3C//DTD SVG 1.1//EN" "http://www.w3.org/Graphics/SVG/1.1/DTD/svg11.dtd" >
<svg xmlns="http://www.w3.org/2000/svg" xmlns:xlink="http://www.w3.org/1999/xlink" version="1.1">
<metadata>
Created by FontForge 20201107 at Sun Jan  9 10:17:11 2022
 By Jimmy Wärting
Copyright (c) 2021  Sign Studio. All Rights Reserved
</metadata>
<defs>
<font id="Reinkey-Regular" horiz-adv-x="532" >
  <font-face 
    font-family="Reinkey"
    font-weight="400"
    font-style="italic"
    font-stretch="normal"
    units-per-em="1000"
    panose-1="0 0 0 0 0 0 0 0 0 0"
    ascent="800"
    descent="-200"
    x-height="528"
    cap-height="792"
    bbox="-1173 -512 2117 1112"
    underline-thickness="50"
    underline-position="-125"
    slope="-16"
    unicode-range="U+000D-E3F6"
  />
<missing-glyph horiz-adv-x="632" 
d="M60 1008h512v-1008h-512v1008zM94 979l222 -445l223 445h-445zM331 504l217 -437v871zM301 504l-216 432v-865zM317 474l-222 -444h444z" />
    <glyph glyph-name="uniE3F0" unicode="tt" horiz-adv-x="686" 
d="M800 537q-12 0 -23.5 4t-23.5 4q-5 0 -9 -0.5t-9 -1.5l-18 -3q-11 -40 -25.5 -85.5t-27.5 -92.5t-22 -93t-9 -87q0 -22 6.5 -37t31.5 -15q18 0 35 13t31.5 32t25.5 39t17 34q5 9 13.5 18.5t19.5 9.5t19 -5.5t8 -17.5q0 -7 -3 -13q-19 -49 -48.5 -96.5t-69.5 -84.5
t-89 -60t-106 -23q-59 0 -94 29.5t-38 89.5q-43 -51 -96 -85t-115 -34q-60 0 -90 33.5t-30 97.5q0 46 14 93l96 334q-24 0 -42 3.5t-30 12t-18 23.5t-6 40q0 6 2.5 17t7 21.5t11 18.5t13.5 8q9 0 14.5 -6.5t12 -14.5t16 -14.5t26.5 -6.5h10.5t10.5 1q11 39 22.5 68.5
t30.5 48.5t48 28.5t73 9.5q11 0 24.5 -0.5t25 -4t19 -12t7.5 -23.5q0 -7 -4.5 -23.5t-10 -34.5t-11.5 -34.5t-9 -25.5q8 -1 15 -1h13q20 0 41 2t48 7q11 40 22.5 68.5t30.5 46.5t47.5 26.5t72.5 8.5q11 0 24.5 -0.5t25 -4t19 -12t7.5 -23.5q0 -7 -2.5 -17.5t-6 -21t-7.5 -21
t-6 -17.5q11 3 21.5 5t21.5 2q26 0 41 -13.5t15 -39.5q0 -11 -4 -27t-11.5 -30.5t-18 -24.5t-23.5 -10zM502 534q-23 -2 -40.5 -3.5t-35.5 -1.5q-22 0 -42 3q-11 -39 -25.5 -83.5t-27 -90.5t-21 -91t-8.5 -85q0 -22 5.5 -37t23.5 -15q17 0 32 13.5t26.5 33t20.5 41.5t14 40z
" />
    <glyph glyph-name=".notdef" horiz-adv-x="632" 
d="M60 1008h512v-1008h-512v1008zM94 979l222 -445l223 445h-445zM331 504l217 -437v871zM301 504l-216 432v-865zM317 474l-222 -444h444z" />
    <glyph glyph-name=".null" horiz-adv-x="0" 
 />
    <glyph glyph-name="uni000D" unicode="&#xd;" horiz-adv-x="0" 
 />
    <glyph glyph-name="space" unicode=" " horiz-adv-x="200" 
 />
    <glyph glyph-name="zero" unicode="0" horiz-adv-x="613" 
d="M521 792q95 0 145 -61t50 -172q0 -57 -13 -122.5t-37.5 -130t-60 -124.5t-81.5 -105.5t-102 -73t-121 -27.5q-95 0 -145.5 62t-50.5 173q0 57 13 122t38 130t61 124t82 105t102 73t120 27zM333 101q37 0 70 74t69 209q21 78 33 135.5t12 93.5q0 54 -30 54q-37 0 -70 -74
t-69 -209q-21 -78 -33 -135.5t-12 -93.5q0 -54 30 -54z" />
    <glyph glyph-name="one" unicode="1" horiz-adv-x="377" 
d="M179 482q-7 -3 -13 -3q-15 0 -9 25q8 38 14 62q14 51 39.5 92.5t58 71t68 45t69.5 15.5q48 0 72 -30t24 -84q0 -42 -13 -90l-130 -480q-35 -130 -148 -130q-82 0 -82 73q0 24 9.5 59t22.5 72.5t25.5 73.5t19.5 62q25 91 25 130q0 24 -7.5 33t-21.5 9q-11 0 -23 -6z" />
    <glyph glyph-name="two" unicode="2" horiz-adv-x="558" 
d="M481 236q22 24 44 24q15 0 24 -10t14 -24.5t6.5 -29.5t1.5 -26q0 -54 -22.5 -91t-57 -60t-76.5 -33t-81 -10q-69 0 -138.5 6t-138.5 0q-12 -1 -18 6.5t-6.5 19.5t2 27.5t6.5 30.5q16 58 45.5 102.5t64.5 78t72.5 59t68.5 45.5t64.5 42t61 47t45.5 53t18 59
q0 22 -11.5 34.5t-34.5 12.5q-26 0 -49 -15t-42.5 -38.5t-35 -52.5t-26.5 -57q-8 -20 -22.5 -29t-33.5 -2q-22 8 -34.5 33t-12.5 67q0 60 25.5 112t68.5 91t99 61.5t117 22.5q80 0 128 -44t48 -140q0 -64 -21.5 -112.5t-57 -86.5t-81.5 -69.5t-94 -63t-94.5 -66.5t-84.5 -80
q25 0 57.5 7t66.5 20.5t67 33.5t58 45z" />
    <glyph glyph-name="three" unicode="3" horiz-adv-x="567" 
d="M190 307q8 5 14 5q16 0 22 -28q11 -55 34.5 -79.5t52.5 -24.5q18 0 36.5 8.5t33.5 23t24.5 34t9.5 42.5q0 35 -29.5 55.5t-71.5 34.5q-20 8 -27 13.5t-3 20.5q6 23 26 37.5t42.5 28.5t42 31t26.5 43q11 40 -26 40q-25 0 -59.5 -25.5t-72.5 -90.5q-10 -18 -26 -18
q-11 0 -17.5 11t-10.5 25t-5 28.5t-1 21.5q0 61 26 107t65.5 77.5t88 47.5t93.5 16q73 0 115 -33.5t42 -97.5q0 -38 -14.5 -72t-37.5 -62t-52.5 -48t-59.5 -30q57 -17 87.5 -61t30.5 -110q0 -64 -27.5 -119.5t-74 -96t-107 -63.5t-125.5 -23q-87 0 -134 37.5t-47 105.5
q0 31 9.5 58.5t25.5 51t37 43.5t44 35z" />
    <glyph glyph-name="four" unicode="4" horiz-adv-x="588" 
d="M565 179q-19 0 -36 -4l-7 -27q-9 -34 -20 -65t-27.5 -55t-40.5 -38t-59 -14q-40 0 -55 20t-15 52q0 23 5.5 49.5t13.5 54.5q-28 -3 -55.5 -8t-54.5 -5q-20 0 -42 3.5t-40 13t-30 25.5t-12 40q0 31 18.5 75.5t44.5 90t53.5 85.5t45.5 63q39 51 81.5 97.5t85.5 82
t83.5 56.5t74.5 21q54 0 79 -42.5t25 -114.5q0 -13 -1.5 -23.5t-7.5 -18t-18.5 -11.5t-34.5 -4q-56 0 -104.5 -19t-91.5 -53.5t-82 -82.5t-75 -106q7 -1 14.5 -2t15.5 -1q18 0 36.5 2.5t37.5 6.5q21 66 61 106.5t98 40.5q15 0 30.5 -2.5t29.5 -9.5q13 -5 15.5 -20t-6.5 -32
q-15 -31 -24 -63q24 -4 33.5 -24.5t9.5 -55.5q0 -9 -1 -23.5t-6.5 -28t-16 -23t-28.5 -9.5z" />
    <glyph glyph-name="five" unicode="5" horiz-adv-x="538" 
d="M147 302q9 10 19 10q14 0 26 -18q38 -61 93 -61q32 0 57.5 19.5t33.5 48.5q6 24 -2.5 45t-29.5 37.5t-52.5 27t-71.5 14.5q-15 1 -20.5 11.5t2.5 25.5l122 259q10 20 21.5 31t28.5 17q80 27 140 27q71 0 111.5 -33t40.5 -90q0 -42 -20 -82t-47 -68q-7 -7 -15 -7
q-16 0 -25 23q-21 50 -66.5 80t-99.5 30l-55 -119h23q111 0 169.5 -45.5t58.5 -130.5q0 -69 -31.5 -136.5t-83.5 -121t-118.5 -87t-135.5 -33.5q-71 0 -110.5 38.5t-39.5 101.5q0 53 22.5 101.5t54.5 84.5z" />
    <glyph glyph-name="six" unicode="6" horiz-adv-x="552" 
d="M559 510q-7 -5 -12 -5q-15 0 -17 29q-4 68 -60 68q-25 0 -51.5 -13t-51 -38.5t-45 -61.5t-34.5 -83q32 32 72.5 49t82.5 17q66 0 101.5 -41.5t35.5 -112.5q0 -62 -22.5 -123t-63 -110t-96.5 -79t-122 -30q-83 0 -126 55t-43 155q0 56 13 122.5t37.5 133.5t60.5 130
t82.5 111.5t103.5 78t123 29.5q65 0 100.5 -26.5t35.5 -74.5q0 -27 -9 -53t-23.5 -49.5t-33 -43.5t-38.5 -34zM319 152q18 0 34.5 15.5t28.5 38t19.5 48t7.5 46.5q0 26 -9 43t-25 17q-18 0 -34 -16t-28.5 -39t-19.5 -49t-7 -46q0 -26 8.5 -42t24.5 -16z" />
    <glyph glyph-name="seven" unicode="7" horiz-adv-x="535" 
d="M377 79q0 -25 -8.5 -41.5t-28.5 -30.5t-46 -22.5t-50 -8.5q-43 0 -66 27.5t-23 75.5q0 46 21.5 99.5t56 108.5t77.5 109t87 101t84.5 85t69.5 61q-13 3 -26 3q-33 0 -68.5 -14t-69.5 -39t-64.5 -59t-53.5 -73q-5 -11 -12.5 -16t-15.5 -5q-10 0 -18 9q-17 20 -26.5 47
t-9.5 63q0 60 24 103.5t62.5 72.5t87 43t98.5 14q59 0 119 -16.5t108 -42.5q14 -8 15.5 -21.5t-9.5 -26.5q-47 -54 -102 -126.5t-102.5 -153.5t-79 -165t-31.5 -161z" />
    <glyph glyph-name="eight" unicode="8" horiz-adv-x="583" 
d="M549 456q75 -27 75 -125q0 -26 -5 -55t-14 -58.5t-21 -56.5t-26 -48q-87 -137 -272 -137q-201 0 -201 160q0 51 14.5 102.5t40.5 95.5t61 76.5t77 45.5q-23 14 -35.5 42.5t-12.5 63.5q0 61 27 106.5t68.5 75.5t90 45t91.5 15q84 0 132.5 -39.5t48.5 -102.5
q0 -33 -12.5 -65t-33 -59.5t-45 -49t-48.5 -32.5zM509 665q0 20 -6.5 32.5t-19.5 12.5q-15 0 -28.5 -15t-23.5 -36t-16 -44.5t-6 -40.5q0 -21 6.5 -33.5t17.5 -12.5q15 0 29 15t24.5 36.5t16.5 45t6 40.5zM292 166q0 -29 7 -46t21 -17q21 0 41 28t35 67t24.5 79.5t9.5 65.5
q0 29 -7.5 46t-22.5 17q-23 0 -42.5 -28t-34 -67t-23 -79.5t-8.5 -65.5z" />
    <glyph glyph-name="nine" unicode="9" horiz-adv-x="540" 
d="M188 257q7 5 12 5q16 0 18 -29q5 -69 60 -69q25 0 51.5 13t51 38.5t45 62t34.5 83.5q-33 -32 -73 -49t-82 -17q-66 0 -101.5 41.5t-35.5 112.5q0 62 23 123t63.5 110t96 79t121.5 30q83 0 126 -55t43 -155q0 -57 -13 -124.5t-38 -134.5t-61.5 -129.5t-83 -110.5t-103 -77
t-121.5 -29q-66 0 -101.5 26.5t-35.5 75.5q0 26 9 52t23.5 49.5t33.5 43.5t38 34zM428 614q-18 0 -34.5 -15.5t-28.5 -38t-19.5 -48t-7.5 -46.5q0 -26 9 -42.5t25 -16.5q18 0 34.5 16t28.5 39t19.5 49t7.5 47q0 26 -9 41t-25 15z" />
    <glyph glyph-name="A" unicode="A" horiz-adv-x="797" 
d="M783 126q24 -33 4 -54q-38 -45 -82 -70.5t-84 -25.5q-51 0 -79.5 44.5t-27.5 125.5q-20 -5 -45 -8.5t-50 -3.5q-14 0 -27 1t-24 4q-45 -76 -104.5 -120t-118.5 -44q-48 0 -76.5 26.5t-28.5 71.5q0 19 5 37.5t13 35.5q12 26 54 27q35 1 82 34t99.5 92t107.5 140.5
t107 177.5q-8 33 -37 33q-12 0 -24.5 -6t-23.5 -16.5t-19.5 -24t-12.5 -28.5q-8 -27 3 -53q17 -40 -2 -62q-34 -38 -70 -58t-70 -20q-43 0 -67 29.5t-24 78.5q0 58 28 108.5t70 88.5q55 49 131.5 77.5t161.5 28.5q53 0 86.5 -14t52.5 -39.5t26.5 -61t10 -77.5t2 -89t1.5 -97
q2 -28 3.5 -67.5t6.5 -80.5t14.5 -79t27.5 -62zM446 300q19 -3 39 0.5t39 6.5v131z" />
    <glyph glyph-name="B" unicode="B" horiz-adv-x="897" 
d="M244 36q-8 14 -2 29.5t21 25.5q18 12 32 28q22 25 43.5 66t41.5 91t38.5 104.5t34 105.5t27.5 95t20 72q-18 -1 -38.5 -11t-37 -25.5t-27.5 -37t-11 -45.5q0 -20 7 -35q18 -41 1 -61q-37 -45 -78.5 -69.5t-81.5 -24.5q-48 0 -75 32.5t-27 86.5q0 70 35 126t91 96
q74 52 183.5 80.5t245.5 28.5q151 0 228.5 -40t77.5 -116q0 -34 -11.5 -65.5t-30.5 -57.5t-43.5 -45t-50.5 -30q45 -14 68 -50.5t23 -90.5q0 -62 -23.5 -120.5t-62 -103.5t-87.5 -72.5t-100 -27.5q-79 0 -163 73q-29 -35 -69.5 -53.5t-83.5 -18.5q-40 0 -70 16t-45 44z
M668 480q20 2 41.5 10t39.5 22t29.5 35t11.5 49q0 32 -20.5 53t-55.5 21q-11 -48 -22 -95t-24 -95zM559 132q8 -2 15.5 -3t15.5 -1q27 0 53.5 12t47.5 33.5t33.5 51t12.5 63.5q0 42 -25 69t-70 27q-20 -64 -36.5 -128t-46.5 -124z" />
    <glyph glyph-name="C" unicode="C" horiz-adv-x="619" 
d="M512 250q13 14 29.5 19.5t29.5 0.5q59 -22 59 -81q0 -31 -16.5 -58.5t-39.5 -48.5q-25 -23 -58 -42.5t-72 -33.5t-81.5 -22t-86.5 -8q-94 0 -143.5 57t-49.5 163q0 54 12 113t33 116t50 109.5t63 93.5q64 78 143.5 121t168.5 43q99 0 155.5 -44.5t56.5 -119.5
q0 -41 -14.5 -81t-39.5 -71.5t-57 -50.5t-67 -19q-23 0 -47 9q-13 5 -19 21t-2 36t4 39q0 34 -11 52.5t-31 18.5q-21 0 -41 -18t-37 -47.5t-32 -66t-25 -73.5t-16 -71t-6 -58q0 -42 12.5 -65t38.5 -23q27 0 63 23.5t74 66.5z" />
    <glyph glyph-name="D" unicode="D" horiz-adv-x="864" 
d="M244 35q-8 14 -2.5 30t20.5 26q19 12 33 27.5t24 31t16 28t9 18.5q44 99 79.5 204t70.5 231l6 24q-18 -2 -38.5 -12t-37 -26t-27.5 -37.5t-11 -45.5q0 -20 7 -35q19 -40 1 -61q-37 -45 -78.5 -69.5t-81.5 -24.5q-48 0 -75 34.5t-27 98.5q0 59 23 105.5t62 81.5t90.5 59.5
t109 40t117 22.5t114.5 7q165 0 245 -60.5t80 -186.5q0 -51 -13 -113.5t-36.5 -126t-56 -123t-71 -106t-82 -74.5t-88.5 -28q-39 0 -68.5 18t-46.5 53q-29 -34 -69 -52.5t-83 -18.5q-40 0 -70 16t-45 44zM553 132q1 0 2 -0.5t2 -0.5h2q33 0 61 23t50 59.5t39.5 83.5
t28.5 94.5t17 92.5t6 78q0 51 -12.5 79t-37.5 30q-10 -53 -23.5 -111.5t-32.5 -128.5q-26 -97 -50 -168t-52 -131z" />
    <glyph glyph-name="E" unicode="E" horiz-adv-x="906" 
d="M860 210q12 13 25 13q11 0 18 -9.5t11 -22t6 -25.5t2 -21q0 -45 -22 -77t-55 -53t-70.5 -30.5t-67.5 -9.5q-81 0 -169 62q-27 -29 -64 -45.5t-78 -16.5t-71.5 16t-46.5 45q-8 14 -1 29t21 26q26 19 44 42t31.5 48t24 51t19.5 50q36 93 64.5 185.5t53.5 187.5
q-18 -2 -38 -12t-37 -26t-28 -37t-11 -46q0 -19 7 -34q17 -39 1 -61q-37 -45 -78 -69t-82 -24q-48 0 -74.5 33t-26.5 87q0 57 21.5 103.5t58 83t84 62.5t100 43.5t105.5 25.5t100 8q39 0 77.5 -4t77 -9t77 -9t78.5 -4q21 0 38.5 1.5t33.5 6.5q12 3 19.5 0.5t12 -9t6.5 -15.5
t2 -18q0 -39 -13.5 -67.5t-35.5 -47t-50 -27.5t-58 -9q-74 0 -160 57q-11 -39 -19.5 -78t-19.5 -79q78 34 133 34q48 0 75 -21t27 -56q0 -26 -10.5 -48t-27.5 -39.5t-38 -29.5t-42 -19q-23 -6 -37 35q-18 51 -102 60q-8 -30 -17 -64t-19.5 -69.5t-22.5 -69t-27 -62.5
q13 -4 27 -5.5t28 -1.5q29 0 59 6.5t57.5 17.5t51.5 27t42 34z" />
    <glyph glyph-name="F" unicode="F" horiz-adv-x="877" 
d="M1007 774q12 3 19.5 0.5t12 -9t6.5 -15.5t2 -18q0 -39 -13.5 -67.5t-35.5 -47t-50 -27.5t-58 -9q-74 0 -160 57q-11 -39 -19.5 -78t-19.5 -79q78 34 133 34q48 0 75 -21t27 -56q0 -26 -10.5 -48t-27.5 -39.5t-38 -29.5t-42 -19q-23 -6 -37 35q-18 51 -102 60
q-9 -37 -20.5 -83t-27 -93t-36 -91t-49 -78t-65 -55t-84.5 -21q-43 0 -73.5 16t-46.5 44q-8 14 -1.5 29t20.5 26q15 11 25.5 21t19 20t15 21t13.5 25q19 38 40 89.5t42 113t42 131t40 143.5q-18 -2 -38 -12t-37 -26t-28 -37t-11 -46q0 -19 7 -34q17 -39 1 -61
q-37 -45 -78 -69t-82 -24q-48 0 -74.5 33t-26.5 87q0 86 41.5 148t107.5 101.5t148.5 58t163.5 18.5q42 0 82 -4t79 -9t78 -9t79 -4q21 0 38.5 1.5t33.5 6.5z" />
    <glyph glyph-name="G" unicode="G" horiz-adv-x="606" 
d="M643 342q13 -8 17.5 -23t-1.5 -33q-19 -54 -29.5 -109t-25.5 -110q-19 -69 -50 -126t-71 -97.5t-86 -63t-94 -22.5q-63 0 -101 34.5t-45 95.5q-2 17 7.5 26t25.5 6q16 -4 35 -4q60 0 105 41t65 113q-48 -45 -96.5 -69.5t-92.5 -24.5q-61 0 -93.5 53.5t-32.5 144.5
q0 73 17 147.5t47.5 143t73 128.5t94 104t111 69.5t122.5 25.5q47 0 84 -12t63 -34t40 -52.5t14 -68.5q0 -39 -13.5 -78.5t-36.5 -70.5t-53.5 -50.5t-64.5 -19.5q-22 0 -45 9q-14 5 -17.5 20t4.5 32q11 23 19.5 46.5t8.5 49.5q0 25 -11 40t-31 15q-25 0 -48.5 -23t-44 -59.5
t-37 -82t-28 -91.5t-18 -87.5t-6.5 -69.5q0 -33 7.5 -52t21.5 -19q24 0 58 34q4 29 16.5 62.5t33 62.5t48.5 48.5t62 19.5t72 -19z" />
    <glyph glyph-name="H" unicode="H" horiz-adv-x="881" 
d="M1030 769q14 -6 18.5 -20.5t-2.5 -30.5q-17 -41 -36.5 -91t-39 -104.5t-37 -110t-30.5 -108.5q-5 -21 -11 -48.5t-10.5 -56.5t-6.5 -56t1 -48q4 -26 0.5 -41.5t-13.5 -23.5q-30 -26 -64 -40.5t-66 -14.5q-47 0 -64.5 31t-17.5 76q0 24 3.5 50.5t9.5 53.5t12.5 52.5
t12.5 47.5h-74q-104 -311 -267 -311q-79 0 -107 56q-7 14 -1 31t21 27q29 19 46.5 42t31.5 49q28 51 52.5 115.5t45.5 130t37 125.5t26 103q-18 -1 -38.5 -11t-37 -26t-27.5 -37.5t-11 -46.5q0 -20 7 -35q18 -41 1 -61q-38 -45 -79 -69.5t-81 -24.5q-48 0 -75 33t-27 87
q0 57 21 104t56.5 83.5t82.5 63t98.5 44t104 26t100.5 8.5q41 0 69.5 -5t45.5 -15t24.5 -26t7.5 -37q0 -22 -7.5 -51.5t-19.5 -65t-27 -78t-30 -92.5h69q23 81 40 149.5t37.5 118t49.5 77t75 27.5q42 0 101 -25z" />
    <glyph glyph-name="I" unicode="I" horiz-adv-x="566" 
d="M241 31q-7 14 -1.5 31.5t21.5 26.5q20 11 36 29t29 38t23.5 41t18.5 39q23 51 43 109t36.5 114t30 107t22.5 88q-18 -1 -38.5 -11t-37 -26t-27.5 -37.5t-11 -46.5q0 -20 7 -35q18 -41 1 -61q-38 -45 -79 -69.5t-81 -24.5q-48 0 -75 33t-27 87q0 59 22 106.5t59.5 84
t86.5 63t102.5 43t108 24.5t102.5 8q31 0 52.5 -3t35.5 -11t20.5 -21.5t6.5 -35.5q0 -18 -6 -50t-15 -71t-20.5 -81t-23 -80.5t-21.5 -71t-16 -51.5q-22 -66 -48.5 -128t-60 -109t-75.5 -75.5t-95 -28.5q-38 0 -65 14.5t-41 41.5z" />
    <glyph glyph-name="J" unicode="J" horiz-adv-x="576" 
d="M165 154q14 -3 19.5 -16.5t-1.5 -30.5q-12 -32 -20 -62.5t-8 -56.5q0 -23 8 -37.5t27 -14.5q25 0 52 26t55 73t56.5 112.5t54.5 145.5t49.5 171.5t42.5 190.5q-18 -2 -38.5 -12t-37 -26t-27.5 -37t-11 -46q0 -19 7 -34q18 -40 1 -61q-37 -45 -78 -69t-82 -24
q-48 0 -74.5 33t-26.5 87q0 61 23 108.5t61.5 83.5t89 61.5t105 41.5t110 23.5t103.5 7.5q26 0 45.5 -2.5t32 -10t19 -22t6.5 -39.5t-7 -64.5t-17.5 -86t-24.5 -96.5t-28 -96.5t-27 -86.5t-22 -67q-32 -90 -71 -173.5t-86.5 -147.5t-105.5 -102.5t-127 -38.5q-50 0 -87 20
t-61 51.5t-35.5 71.5t-11.5 80q0 37 9.5 70.5t28.5 58t46.5 37t63.5 6.5z" />
    <glyph glyph-name="K" unicode="K" horiz-adv-x="911" 
d="M950 159q0 -5 -1 -8.5t-3 -7.5q-11 -26 -30 -55.5t-43 -54.5t-53 -41.5t-61 -16.5q-34 0 -57 19.5t-38 51t-23.5 70.5t-11.5 77.5t-3 72.5t1 56q-9 -30 -22.5 -67.5t-31.5 -76t-40.5 -75t-50.5 -65t-61.5 -46t-72.5 -17.5q-15 0 -34 4t-36 13t-28.5 22.5t-11.5 32.5
q0 14 6 23.5t15 17t19.5 14t18.5 14.5q21 20 42.5 59.5t41.5 89t38.5 105.5t34 109t27.5 99t19 76q-22 -2 -42.5 -13t-36.5 -27.5t-25.5 -37.5t-9.5 -43q0 -20 8.5 -36.5t8.5 -35.5q0 -18 -19 -39t-45.5 -38.5t-55.5 -29t-49 -11.5q-26 0 -45.5 10t-32 26.5t-18.5 38
t-6 45.5q0 60 22.5 107.5t60 84t86.5 62.5t102.5 42.5t108.5 24.5t103 8q23 0 42.5 -1.5t34 -9t23 -23t8.5 -43.5q0 -56 -16.5 -116.5t-30.5 -114.5q80 52 142.5 119t107.5 151q6 11 15 21.5t23 10.5q17 0 30 -12.5t22 -30.5t13.5 -37t4.5 -33q0 -55 -25.5 -100t-65.5 -79.5
t-89 -58.5t-97 -38q4 -40 18 -72t36.5 -57.5t52 -45t63.5 -34.5q11 -5 17 -11t6 -18z" />
    <glyph glyph-name="L" unicode="L" horiz-adv-x="895" 
d="M889 303q10 0 16.5 -12t10 -27.5t5 -31t1.5 -22.5q0 -46 -17.5 -88t-47.5 -74.5t-71 -52t-88 -19.5q-51 0 -95.5 24t-79.5 60q-30 -35 -72.5 -60t-90.5 -25q-15 0 -32.5 4.5t-33 13.5t-26 22.5t-10.5 31.5q0 13 5.5 22.5t14 17t18.5 14t18 13.5q22 20 44 59.5t42.5 89
t39 105.5t34 109.5t27.5 100t19 76.5q-22 -2 -42.5 -13t-36.5 -27.5t-25.5 -37.5t-9.5 -43q0 -20 8.5 -36.5t8.5 -35.5q0 -18 -19 -39t-45.5 -38.5t-55.5 -29t-49 -11.5q-26 0 -45.5 10t-32 26.5t-18.5 38t-6 45.5q0 60 22.5 107.5t60 84.5t87 62.5t103.5 42.5t109 24.5
t104 7.5q22 0 41 -1.5t33.5 -8.5t22.5 -21.5t8 -41.5q0 -28 -8 -73t-21 -97.5t-30 -109.5t-34.5 -109t-33.5 -96t-29 -71q18 -3 37 -3q36 0 70 10.5t64.5 28t58 41t50.5 49.5l9.5 9.5t12.5 4.5z" />
    <glyph glyph-name="M" unicode="M" horiz-adv-x="990" 
d="M1151 738q0 -5 -1 -10t-3 -10q-15 -40 -33.5 -88.5t-37 -101.5t-36 -108t-31 -108.5t-21.5 -103.5t-8 -92v-11l2 -21v-11q0 -12 -2.5 -23t-11.5 -20q-12 -11 -28 -21t-33.5 -17.5t-36 -12t-34.5 -4.5q-24 0 -39 9.5t-24 25.5t-12 35.5t-3 39.5q0 54 13.5 114t29.5 111
q-7 -10 -21 -28.5t-30 -37t-32.5 -32t-28.5 -13.5t-21 13.5t-14.5 32t-8.5 36.5t-5 27q-14 -45 -37.5 -102.5t-58 -109t-80 -86.5t-102.5 -35q-15 0 -33.5 4.5t-35.5 13.5t-28.5 22.5t-11.5 31.5q0 13 6 22.5t14.5 17t18 14t17.5 14.5q23 23 44.5 62.5t42 88.5t38.5 103.5
t33.5 107t27.5 99t20 78.5q-22 -2 -42.5 -13t-36.5 -27.5t-25.5 -37.5t-9.5 -43q0 -20 8.5 -36.5t8.5 -35.5q0 -18 -19 -39t-45.5 -38.5t-55.5 -29t-49 -11.5q-26 0 -45.5 10t-32 26.5t-19 38t-6.5 45.5q0 77 39.5 137.5t100.5 103.5t134.5 65.5t141.5 22.5q70 0 105 -21.5
t49.5 -57.5t15 -83.5t0.5 -98.5q0 -8 0.5 -18.5t3.5 -20t9 -16t17 -6.5q23 0 42 24t37.5 60.5t38.5 79t44.5 79t55.5 60.5t72 24q13 0 30 -3.5t32.5 -10.5t26 -18t10.5 -27z" />
    <glyph glyph-name="N" unicode="N" horiz-adv-x="936" 
d="M1090 736q0 -5 -1 -9t-3 -9q-25 -64 -54.5 -142.5t-54.5 -160t-41.5 -161.5t-16.5 -149l3 -23v-11q0 -22 -14 -40t-34.5 -30.5t-44 -19t-43.5 -6.5q-37 0 -62.5 20t-41.5 52.5t-24 72.5t-11 80.5t-2.5 77t2.5 60.5q-8 -31 -21.5 -70t-32 -79.5t-42 -79t-52.5 -68.5
t-63.5 -48t-74.5 -18q-15 0 -33.5 4.5t-35.5 13.5t-28.5 22.5t-11.5 31.5q0 14 6 23t15 16.5t19 14.5t18 15q21 21 42.5 60.5t41.5 89t38.5 105t34.5 108.5t28 99t19 76q-22 -2 -42.5 -13t-36.5 -27.5t-25.5 -37.5t-9.5 -43q0 -20 8.5 -36.5t8.5 -35.5q0 -18 -19 -39
t-45.5 -38.5t-55.5 -29t-49 -11.5q-26 0 -45.5 10t-32 26.5t-18.5 38t-6 45.5q0 53 19 98t51.5 81.5t75.5 64.5t90.5 47t97 28.5t95.5 9.5q67 0 107 -21.5t61 -59t27 -88t6 -107.5q0 -27 -1 -53.5t-3 -53.5q8 26 17 64.5t20.5 81.5t27 86t36.5 77t48 55.5t63 21.5
q13 0 31 -3t34.5 -10t28.5 -18.5t12 -27.5z" />
    <glyph glyph-name="O" unicode="O" horiz-adv-x="669" 
d="M548 792q59 0 103 -20.5t73 -56.5t43.5 -84.5t14.5 -103.5q0 -60 -15.5 -124t-43.5 -125t-69 -116t-91 -96.5t-109.5 -65.5t-125.5 -24q-59 0 -103 20.5t-73 56t-43.5 83.5t-14.5 103q0 60 15.5 124t43.5 125.5t69 116.5t91 96.5t109.5 66t125.5 24.5zM361 101
q19 0 38 17t36 44t32.5 59.5t28 64.5t21 58.5t12.5 40.5q12 45 20.5 91t8.5 93q0 10 -1 26.5t-5.5 32.5t-13 27.5t-23.5 11.5q-19 0 -38 -17t-36 -43.5t-32.5 -59.5t-28 -64t-21 -57.5t-12.5 -40.5q-12 -45 -20.5 -91.5t-8.5 -93.5q0 -10 1 -26.5t5.5 -32.5t13 -28t23.5 -12
z" />
    <glyph glyph-name="P" unicode="P" horiz-adv-x="838" 
d="M251 52q0 11 5.5 19.5t13 15.5t16.5 13.5t16 13.5q20 20 41.5 60t42.5 91t40 107.5t35.5 110t29.5 99t20 73.5q-21 -3 -41.5 -13.5t-36.5 -27t-26 -37.5t-10 -43q0 -20 8.5 -35.5t8.5 -34.5t-18.5 -40t-45 -38.5t-55.5 -28.5t-50 -11q-26 0 -45 10t-31.5 26.5t-18.5 38
t-6 45.5q0 62 24.5 110.5t65 84.5t93.5 61t110 40.5t114 22.5t106 7q54 0 110.5 -8.5t102 -31.5t75 -65t29.5 -108q0 -54 -21 -107t-57.5 -95t-85.5 -68t-105 -26q-20 0 -38.5 3t-37.5 8q-13 -46 -31.5 -101.5t-48 -103.5t-71.5 -80.5t-101 -32.5q-15 0 -36.5 4.5t-41.5 14
t-34 24t-14 33.5zM651 377q34 5 60.5 24.5t44.5 47.5t27.5 61t9.5 64q0 16 -3.5 33t-11.5 31t-20.5 23.5t-31.5 10.5q-13 -75 -34 -148t-41 -147z" />
    <glyph glyph-name="Q" unicode="Q" horiz-adv-x="681" 
d="M406 -20q0 -6 9.5 -10.5t22.5 -7.5t25 -4.5t16 -1.5q30 0 53.5 9.5t41 20.5t28.5 20.5t17 9.5q5 0 8 -3.5t4 -8.5t1 -10.5v-9.5q0 -41 -15 -81.5t-41.5 -72.5t-63 -51.5t-80.5 -19.5q-31 0 -52 11.5t-37 29.5t-30 38t-32.5 38t-43.5 29.5t-63 11.5q-13 0 -25 -2t-24 -2
q-5 0 -9.5 2.5t-4.5 9.5q0 12 10 26.5t24.5 28t30.5 23.5t27 14q-55 38 -78 99t-23 125q0 60 15 124t43.5 125.5t69 116t91 96t109.5 65.5t125 24q59 0 102.5 -20.5t73 -55.5t44 -83t14.5 -103q0 -86 -26.5 -170.5t-74.5 -156.5t-115.5 -127.5t-150.5 -83.5q-4 -2 -10 -4.5
t-6 -7.5zM369 101q19 0 38 17t36 43.5t32.5 59t27.5 64t20.5 58t12.5 40.5q13 46 21 93.5t8 95.5q0 10 -1 26.5t-5 33t-12.5 28.5t-23.5 12q-19 0 -38 -17t-36.5 -44.5t-32.5 -60.5t-27.5 -64.5t-21 -58.5t-12.5 -41q-13 -45 -21 -91.5t-8 -94.5q0 -10 1 -27t5.5 -33
t13 -27.5t23.5 -11.5z" />
    <glyph glyph-name="R" unicode="R" horiz-adv-x="906" 
d="M928 150q0 -4 -1 -7t-3 -7q-12 -27 -29.5 -56t-41 -52t-52 -38t-61.5 -15q-37 0 -60.5 20t-37 50t-18.5 64.5t-5 62.5q0 26 2.5 51.5t7.5 51.5q-13 -45 -31.5 -97.5t-47 -97t-69.5 -74.5t-98 -30q-15 0 -36.5 4.5t-41.5 14t-34 24t-14 33.5q0 12 5.5 20.5t13.5 15
t16.5 13t15.5 13.5q20 21 41.5 61t42.5 90.5t40 107t35.5 110t29.5 99t20 73.5q-21 -3 -41.5 -13.5t-36.5 -27t-26 -37.5t-10 -43q0 -20 8.5 -35.5t8.5 -34.5t-18.5 -40t-45 -38.5t-55.5 -28.5t-50 -11q-26 0 -45 10t-31.5 26.5t-18.5 38t-6 45.5q0 61 23.5 109t63 84.5
t90.5 61.5t106.5 41t111.5 23t105 7q51 0 109 -8.5t108 -31.5t83 -63.5t33 -105.5q0 -51 -20 -101.5t-54 -92t-79.5 -69.5t-97.5 -34q18 -53 60 -86.5t99 -33.5q10 0 23.5 -1t13.5 -15zM657 377q34 5 60.5 24.5t44.5 47.5t27.5 61t9.5 64q0 16 -3.5 33t-11.5 31t-20.5 23.5
t-31.5 10.5q-13 -75 -34 -148t-41 -147z" />
    <glyph glyph-name="S" unicode="S" horiz-adv-x="601" 
d="M224 342q14 0 19 -11.5t7 -22.5q3 -20 9.5 -52.5t19.5 -63t32.5 -52.5t47.5 -22q23 0 32.5 14t9.5 34q0 33 -14.5 62.5t-36.5 57.5t-48 55.5t-48 57.5t-36.5 63.5t-14.5 72.5q0 57 25 105.5t65.5 83.5t92.5 54.5t106 19.5q32 0 73 -8t77 -25.5t60.5 -46t24.5 -69.5
q0 -27 -10.5 -49.5t-28 -40.5t-40 -31t-45.5 -22q-6 -2 -9 -2q-11 0 -16.5 12t-9.5 30.5t-8 39.5t-12 39.5t-21.5 30.5t-35.5 12q-23 0 -42 -14t-19 -39q0 -22 16.5 -43t41.5 -44t53.5 -49t53.5 -57t41.5 -68t16.5 -83q0 -71 -32 -126t-83.5 -93t-115.5 -58t-128 -20
q-36 0 -77.5 7.5t-77.5 25.5t-59.5 48t-23.5 75q0 35 13.5 67t35.5 59.5t51 49t59 34.5q6 2 9 2z" />
    <glyph glyph-name="T" unicode="T" horiz-adv-x="799" 
d="M952 776q20 0 24.5 -14.5t4.5 -30.5q0 -31 -9.5 -59t-28 -49t-44.5 -33.5t-59 -12.5q-35 0 -66 14.5t-58 34.5q-20 -78 -39.5 -156t-41.5 -156q-13 -48 -32 -106.5t-48.5 -110t-72.5 -86.5t-105 -35q-15 0 -36.5 4.5t-41 14t-33.5 24t-14 33.5q0 12 6 20.5t14 16t17.5 14
t16.5 13.5q19 18 40 58t41.5 91t40 108.5t36 111.5t29 99t19.5 71q-21 -3 -41.5 -13.5t-36.5 -27t-26 -37.5t-10 -43q0 -19 8 -35t8 -35q0 -20 -18.5 -41t-45 -38t-55.5 -28t-49 -11q-26 0 -45 10t-31.5 26.5t-18.5 38t-6 45.5q0 60 22.5 107t60 83.5t86.5 62t102.5 42
t108 24t102.5 7.5q32 0 63 -1.5t62 -6.5q33 -5 65.5 -11.5t65.5 -6.5q18 0 35 5t34 5z" />
    <glyph glyph-name="U" unicode="U" horiz-adv-x="901" 
d="M1065 737q0 -5 -1 -9.5t-3 -9.5q-25 -65 -54 -142.5t-54 -157.5t-41 -159.5t-16 -149.5l2 -21v-10q0 -12 -2.5 -24.5t-11.5 -21.5q-10 -10 -24 -20.5t-29.5 -18t-31.5 -12.5t-31 -5q-23 0 -39 9.5t-26.5 25.5t-15.5 35.5t-5 39.5q-15 -21 -40 -40.5t-54 -35t-59 -24.5
t-56 -9q-30 0 -48 16.5t-28 40.5t-13 51.5t-3 50.5q0 60 12.5 127.5t31.5 135.5t41.5 133.5t43.5 122.5q-21 -3 -41.5 -13.5t-36.5 -27t-26 -37.5t-10 -43q0 -20 8.5 -35.5t8.5 -34.5t-18.5 -40t-45 -38.5t-55.5 -28.5t-49 -11q-52 0 -78 35t-26 83q0 57 23.5 103t62.5 82.5
t89.5 63.5t105 44.5t108.5 26t100 8.5q21 0 38.5 -2t30.5 -9t20 -21t7 -39q0 -32 -5.5 -66t-13.5 -67.5t-18 -66.5t-18 -64q-15 -57 -27.5 -115.5t-12.5 -117.5q0 -6 0.5 -17.5t3 -23t8 -19.5t15.5 -8t19 5t16 11q7 65 24 128.5t34 126.5q11 38 21.5 77t22.5 77
q8 27 20.5 64t31 71t44.5 58t62 24q13 0 32 -3.5t37 -11t30.5 -19t12.5 -27.5z" />
    <glyph glyph-name="V" unicode="V" horiz-adv-x="896" 
d="M1071 730q0 -5 -2 -15q-9 -34 -26 -84t-41.5 -108.5t-54.5 -121.5t-65 -123.5t-73 -115.5t-78 -96t-81.5 -65.5t-82.5 -24.5q-43 0 -68 23.5t-38 58t-16.5 74t-3.5 71.5q0 115 21 228t52 224q-22 -3 -42.5 -13.5t-36.5 -27t-25.5 -37t-9.5 -43.5q0 -19 8.5 -35t8.5 -35
q0 -21 -19.5 -42t-46.5 -38t-55.5 -27.5t-46.5 -10.5q-52 0 -78 35t-26 83q0 56 23.5 102.5t62 82.5t89 63t105 45t109 26.5t100.5 8.5q23 0 44 -3.5t37 -13t25 -27t9 -44.5q0 -46 -13.5 -90t-26.5 -88q-29 -97 -53.5 -197t-24.5 -202q0 -4 1.5 -14.5t6.5 -10.5
q8 0 20.5 22.5t27 57.5t29.5 77.5t28 81.5t22.5 70.5t12.5 43.5q15 57 27.5 115t28.5 115q6 22 13 41.5t18.5 33.5t28.5 22.5t44 8.5q13 0 35.5 -3t44 -9.5t37 -18.5t15.5 -30z" />
    <glyph glyph-name="W" unicode="W" horiz-adv-x="1204" 
d="M1383 732q0 -9 -3 -17q-13 -42 -38 -113.5t-59.5 -153.5t-77.5 -166t-92.5 -152t-104 -111t-112.5 -43q-50 0 -75 29.5t-37 73.5q-37 -42 -84.5 -72.5t-106.5 -30.5q-49 0 -78.5 25.5t-45.5 63t-21 82t-5 81.5q0 108 21 215.5t49 211.5q-21 -3 -41.5 -13.5t-36.5 -27
t-26 -37.5t-10 -43q0 -20 8.5 -35.5t8.5 -34.5q0 -20 -19 -41t-45.5 -38t-55 -28t-48.5 -11q-52 0 -78 35t-26 83q0 58 24 104.5t63.5 83t90.5 63t106 43.5t110 25.5t101 8.5q18 0 38.5 -0.5t38 -6.5t28.5 -19t11 -38q0 -23 -6 -46.5t-12 -46.5q-13 -48 -30 -113t-32 -133
t-25 -132t-10 -112v-10t1.5 -14.5t4.5 -13t9 -5.5q13 0 31.5 34.5t38.5 88.5t40.5 121t38.5 131t32 119t21 85q4 17 7 35t8 35q5 19 13.5 29t20 14.5t25.5 5t31 0.5q35 0 57.5 -12t22.5 -51q0 -27 -8 -65t-19.5 -78.5t-23 -78.5t-19.5 -66q-19 -72 -37.5 -150.5
t-18.5 -153.5v-9t1.5 -14.5t4.5 -13.5t8 -6q18 0 36.5 28t36.5 71.5t34 95.5t29.5 100t22.5 85t13 51q5 20 12 46.5t17 56t22.5 58t29.5 51t38 36.5t48 14q14 0 33.5 -3.5t37.5 -11t30.5 -19.5t12.5 -29z" />
    <glyph glyph-name="X" unicode="X" horiz-adv-x="841" 
d="M846 93q0 -11 -8 -21q-16 -20 -36.5 -37.5t-44.5 -30.5t-49.5 -20.5t-51.5 -7.5q-38 0 -61 15.5t-35.5 40.5t-18 55.5t-7.5 61.5q-20 -23 -49 -53t-62 -56.5t-69 -45t-69 -18.5q-25 0 -41.5 10.5t-27 28t-15 38.5t-4.5 42q0 14 1.5 26.5t6 23.5t13.5 19t25 11
q41 9 77.5 26t70 39.5t64 49.5t59.5 56q-3 54 -7.5 108.5t-12.5 108.5q-2 11 -5.5 26t-10 28.5t-16 23t-24.5 9.5t-28.5 -8t-23 -20t-15 -27t-5.5 -29t4 -24.5t8.5 -19.5t8.5 -18t4 -19q0 -18 -17 -36t-40.5 -33t-49.5 -24.5t-44 -9.5q-46 0 -68 31.5t-22 74.5q0 68 34 124
t87 96t118 62t126 22q48 0 83.5 -14.5t59.5 -41.5t37.5 -64.5t17.5 -82.5q24 29 40.5 65t30.5 71q6 16 16 32t27 22t37 10t37 4q32 0 52.5 -15.5t20.5 -50.5q0 -42 -25.5 -92t-62.5 -98.5t-77.5 -92t-69.5 -71.5q3 -33 8 -67.5t15 -67.5t26.5 -62.5t41.5 -53.5
q7 -7 11.5 -12.5t4.5 -16.5z" />
    <glyph glyph-name="Y" unicode="Y" horiz-adv-x="900" 
d="M1068 713q0 -6 -1 -11.5t-3 -11.5l-51.5 -154.5t-47.5 -155.5q-20 -70 -34 -141t-34 -141q-14 -52 -38.5 -112t-61 -111.5t-86 -85.5t-113.5 -34q-29 0 -56.5 9.5t-48.5 27.5t-33.5 43.5t-12.5 56.5q0 11 5.5 19t17.5 8t23.5 -3.5t24.5 -3.5q35 0 64 15t51 39.5
t36.5 55.5t19.5 62q-15 -21 -39.5 -40.5t-53.5 -34t-58.5 -23.5t-55.5 -9q-30 0 -48 16.5t-28 41t-13 52.5t-3 50q0 61 12.5 128t31 134.5t41 133t43.5 122.5q-21 -3 -41.5 -13.5t-36.5 -27t-26 -37.5t-10 -43q0 -20 8.5 -35.5t8.5 -34.5q0 -14 -9 -25q-13 -18 -31 -34.5
t-39 -29.5t-43.5 -21t-45.5 -8q-52 0 -78 35t-26 83q0 32 9 60q14 48 43 86t68.5 68t86.5 51.5t96.5 35.5t98.5 20.5t93 6.5q21 0 37.5 -2t28 -9t17.5 -21.5t6 -38.5q0 -31 -5.5 -65t-13.5 -68.5t-17.5 -67.5t-17.5 -63q-16 -59 -32 -122t-16 -125q0 -8 1 -18t4 -19t9 -15.5
t17 -6.5q10 0 19 4t17 9q6 32 19.5 91t32.5 129t43 143.5t53 133.5t61.5 98t67.5 38q15 0 31.5 -7t30 -19t22.5 -27t9 -31z" />
    <glyph glyph-name="Z" unicode="Z" horiz-adv-x="666" 
d="M668 292q11 0 17.5 -9.5t10 -22t4.5 -25.5t1 -21q0 -43 -14.5 -85.5t-41 -76.5t-64.5 -55t-85 -21q-32 0 -63.5 7t-62.5 12q-38 7 -76.5 11.5t-76.5 4.5q-29 0 -56.5 -3.5t-55.5 -14.5q-7 -3 -17 -3q-12 0 -18.5 6t-10.5 14.5t-5 19t-1 19.5q0 17 5 35q5 20 16 40
t25 38.5t29 36.5t28 33q88 102 179 199.5t185 194.5q-25 -13 -58 -31t-67.5 -34t-68.5 -27.5t-62 -11.5q-40 0 -60.5 23t-20.5 62q0 18 8 46.5t21.5 56.5t31.5 48t39 20q9 0 19 -3t21.5 -6t25.5 -6t32 -3q34 0 67.5 5t66.5 11t66.5 11t67.5 5q75 0 109.5 -31.5t34.5 -106.5
q0 -17 -10.5 -35.5t-22.5 -29.5q-57 -52 -106.5 -104.5t-97 -105t-95 -106.5t-98.5 -110q84 8 152.5 36t131.5 83q5 4 10 7t11 3z" />
    <glyph glyph-name="a" unicode="a" horiz-adv-x="557" 
d="M684 276q10 0 15.5 -8t5.5 -16q0 -4 -2 -12q-15 -42 -37.5 -88.5t-54.5 -85.5t-73.5 -64.5t-93.5 -25.5q-51 0 -79 26t-27 78q-14 -21 -31.5 -39.5t-38.5 -33t-45 -23t-50 -8.5q-32 0 -53 13.5t-34 35.5t-18 48.5t-5 53.5q0 36 8.5 80t24.5 88.5t39.5 86.5t54 74.5
t67.5 52.5t80 20q32 0 60.5 -11t51.5 -34q24 24 56.5 34.5t66.5 10.5q11 0 24 -0.5t24 -4t19 -11t8 -22.5q0 -5 -1 -10.5t-3 -10.5q-10 -29 -23 -70.5t-25 -85.5t-20 -85.5t-8 -71.5q0 -4 1 -15.5t9 -11.5t18.5 16t20.5 36.5t18 40t11 25.5q6 14 15 21t24 7zM406 406
q-8 2 -12 2q-14 0 -27 -15.5t-24 -39.5t-19.5 -53.5t-15 -57t-10 -51t-3.5 -34.5v-7t1 -10t3 -9t6 -4q6 0 14 10.5t14.5 24t12 26.5t6.5 18z" />
    <glyph glyph-name="b" unicode="b" horiz-adv-x="547" 
d="M583 185q11 0 20.5 14t19 31.5t19.5 31.5t21 14t18 -5t7 -16q0 -8 -3 -14q-9 -19 -22 -45.5t-31 -50.5t-39.5 -40.5t-47.5 -16.5q-22 0 -39 14q-45 -60 -106.5 -93t-136.5 -33q-91 0 -138 50.5t-47 140.5q0 59 17 119l106 390q16 58 60 87t103 29q11 0 24 -0.5t25 -4
t20 -11t8 -22.5l-6 -20.5t-14.5 -51.5t-19 -67t-19.5 -67.5t-15.5 -54t-7.5 -26.5q26 26 60.5 43.5t72.5 17.5q31 0 51.5 -13t33 -33.5t17.5 -46.5t5 -52q0 -32 -5.5 -63t-14.5 -62q-4 -12 -7 -25t-3 -26q0 -7 2.5 -14.5t11.5 -7.5zM269 113q0 -6 2 -18t11 -12q12 0 24.5 17
t24.5 44t22.5 59t18.5 62.5t12.5 54.5t4.5 35q0 5 -0.5 12t-2.5 14t-6 12t-10 5q-9 0 -18 -6t-16 -12l-59 -217q-3 -12 -5.5 -24.5t-2.5 -25.5z" />
    <glyph glyph-name="c" unicode="c" horiz-adv-x="422" 
d="M543 271q11 0 19.5 -6.5t8.5 -18.5q0 -9 -5 -17q-27 -48 -61.5 -93.5t-77 -81t-93 -57t-109.5 -21.5q-79 0 -120.5 41t-41.5 120q0 29 5 58.5t13 58.5q15 54 39.5 104.5t60.5 90t84 63t110 23.5q26 0 53 -5.5t49.5 -18t37 -33t14.5 -51.5q0 -25 -8.5 -48t-23.5 -42.5
t-34.5 -34.5t-42.5 -24q-2 -1 -8 -1q-13 0 -16 11.5t-4 26t-4 26t-15 11.5q-16 0 -29.5 -20t-23.5 -46.5t-16 -53t-6 -39.5q0 -28 13 -50t45 -22q26 0 49 13t42.5 32t35.5 42t28 42q5 9 13 15t19 6z" />
    <glyph glyph-name="d" unicode="d" 
d="M664 276q10 0 15.5 -8t5.5 -16q0 -4 -2 -12q-15 -43 -37 -89.5t-53 -85.5t-72 -64t-94 -25q-52 0 -78 26.5t-31 77.5q-13 -20 -29.5 -38.5t-36 -33t-42.5 -23.5t-48 -9q-30 0 -49 13.5t-30.5 35t-16 47.5t-4.5 50q0 34 8 77.5t23.5 88.5t38 88.5t51.5 77.5t65 54.5
t77 20.5q48 0 86 -30l48 177q16 58 60.5 87t103.5 29q12 0 25.5 -0.5t25 -4t19.5 -12t8 -24.5q0 -10 -3 -19q-32 -103 -62 -205.5t-58 -206.5q-11 -39 -20.5 -80t-9.5 -82q0 -4 1.5 -16t9.5 -12q9 0 19 16t20 36.5t17 40t10 25.5q6 14 15 21t24 7zM386 406q-8 2 -12 2
q-14 0 -27 -15.5t-24 -39.5t-19.5 -53.5t-15 -57t-10 -51t-3.5 -34.5v-7t1 -10t3 -9t6 -4q6 0 14 10.5t14.5 24t12 26.5t6.5 18z" />
    <glyph glyph-name="e" unicode="e" horiz-adv-x="436" 
d="M555 271q11 0 19.5 -6.5t8.5 -18.5q0 -9 -5 -17q-25 -47 -59.5 -92.5t-77 -81t-93 -57.5t-108.5 -22q-85 0 -129 45.5t-44 129.5q0 29 4.5 57.5t12.5 56.5q15 57 40.5 105t62.5 83.5t86 55t112 19.5q26 0 52 -4.5t46 -16.5t32.5 -32t12.5 -51q0 -47 -17.5 -84.5
t-47.5 -64.5t-69.5 -42.5t-83.5 -17.5q-1 -6 -1.5 -12.5t-0.5 -12.5q0 -28 13 -48.5t44 -20.5q26 0 49.5 13t43.5 32t36.5 42t28.5 42q5 9 13 15t19 6zM323 268q14 5 29.5 13t29.5 19t23 25t9 30q0 9 -4 17t-15 8q-13 0 -24.5 -14t-21.5 -32.5t-16.5 -37.5t-9.5 -28z" />
    <glyph glyph-name="f" unicode="f" horiz-adv-x="320" 
d="M460 268q20 -8 20 -29q0 -7 -4 -17q-10 -23 -26 -45.5t-35.5 -42t-42 -34.5t-46.5 -23q11 -20 18 -41t7 -44q0 -44 -20.5 -86t-54 -74.5t-76 -52t-86.5 -19.5q-60 0 -87 37t-27 93q0 23 4 46.5t10 46.5l167 617q16 59 61 88.5t104 29.5q11 0 24.5 -1t25 -4.5t19.5 -12
t8 -23.5q0 -10 -3 -19q-39 -131 -76.5 -260.5t-72.5 -261.5q45 9 72.5 31t45.5 45.5t31 41t29 17.5q4 0 10 -2zM218 -71q0 -10 3.5 -21.5t16.5 -11.5q12 0 20.5 9t14 21t8.5 25.5t3 22.5q0 47 -36 78q-8 -27 -19 -61t-11 -62z" />
    <glyph glyph-name="g" unicode="g" horiz-adv-x="528" 
d="M629 487q0 -4 -7 -30t-18 -63.5t-24 -81t-25 -83.5t-21 -70.5t-12 -42.5q32 30 54 62.5t45 68.5q5 8 10.5 13t15.5 5q11 0 19 -8.5t8 -19.5q0 -5 -1 -8.5t-3 -7.5q-32 -63 -79.5 -117t-105.5 -93q-23 -56 -53.5 -106.5t-71.5 -88t-93 -59.5t-117 -22q-18 0 -39 2.5
t-39 10t-30 22t-12 38.5q0 43 26.5 73.5t65 51.5t81.5 34t77 21q8 30 10 64q-26 -30 -62 -53t-77 -23q-28 0 -46 12.5t-28 32.5t-14 44t-4 47q0 35 8 79t23.5 90.5t38.5 91t52.5 79t66 56t78.5 21.5q30 0 56.5 -11t46.5 -34q24 24 56.5 34.5t66.5 10.5q12 0 25.5 -0.5
t25 -4.5t19 -12.5t7.5 -24.5zM386 406q-8 2 -12 2q-14 0 -27 -15.5t-24 -39.5t-19.5 -53.5t-15 -57t-10 -51t-3.5 -34.5v-7t1 -10t3 -9t6 -4q6 0 14 10.5t14.5 24t12 26.5t6.5 18zM271 -83q-9 -2 -31.5 -8.5t-46 -16.5t-41.5 -22t-18 -25q0 -9 8.5 -10.5t14.5 -1.5
q16 0 33 8.5t32 21t28 27.5t21 27z" />
    <glyph glyph-name="h" unicode="h" horiz-adv-x="554" 
d="M677 276q12 0 20 -5.5t8 -18.5q0 -4 -2 -12q-15 -43 -39 -90t-57 -85.5t-75.5 -63.5t-95.5 -25q-55 0 -80 27.5t-25 81.5q0 29 5.5 60t13.5 63t17.5 63t16.5 59q3 11 5.5 21t2.5 21q0 8 -2.5 15t-12.5 7q-9 0 -18.5 -4.5t-16.5 -9.5l-69 -253q-3 -13 -6 -30t-7.5 -34.5
t-11.5 -32t-18 -22.5q-21 -14 -48.5 -23t-52.5 -9q-42 0 -60 26.5t-18 64.5q0 18 2.5 36t7.5 35l146 538q16 58 60 87t103 29q11 0 24 -0.5t25 -4t20 -11t8 -21.5l-6 -20.5t-14.5 -51.5t-19 -67t-19.5 -68t-15.5 -54.5t-7.5 -26.5q18 11 38.5 22t42.5 20t44.5 15t43.5 6
q43 0 61 -25t18 -65q0 -30 -8 -64.5t-17.5 -71t-17.5 -74t-8 -72.5v-8t1 -10t3.5 -8.5t6.5 -3.5q8 0 19 16.5t21.5 37.5t19 40.5t11.5 25.5q4 9 13 18.5t20 9.5z" />
    <glyph glyph-name="i" unicode="i" horiz-adv-x="271" 
d="M282 553q-40 0 -67.5 23.5t-27.5 65.5q0 30 14 57t36.5 48t51 33t57.5 12q40 0 67 -23t27 -65q0 -30 -13.5 -57.5t-36 -48t-51 -33t-57.5 -12.5zM404 276q10 0 15.5 -8t5.5 -16q0 -4 -2 -12q-15 -43 -37 -89.5t-53.5 -85.5t-72.5 -64t-93 -25q-60 0 -87 32.5t-27 89.5
q0 26 4.5 51.5t11.5 50.5l57 212q16 58 61.5 87t103.5 29q10 0 23 -0.5t24.5 -4t19.5 -11t8 -21.5q0 -5 -1 -10.5t-3 -10.5q-10 -28 -23 -70t-25 -87t-20 -87t-8 -70q0 -3 1 -14.5t8 -11.5q9 0 19.5 15.5t20.5 36t18 40t11 26.5q12 28 40 28z" />
    <glyph glyph-name="j" unicode="j" horiz-adv-x="276" 
d="M284 553q-40 0 -67 23.5t-27 65.5q0 30 13.5 57t36 48t51 33t57.5 12q41 0 68 -23.5t27 -65.5q0 -30 -14 -57t-36.5 -48t-51 -33t-57.5 -12zM379 487q0 -2 -7 -28t-18 -64t-24 -83t-25 -85.5t-21 -70.5t-11 -38q32 29 54 61.5t45 68.5q5 8 10.5 13t15.5 5q11 0 19 -8.5
t8 -19.5q0 -5 -1 -8.5t-3 -7.5q-31 -62 -79.5 -117t-105.5 -93q-23 -56 -54 -106t-72 -87.5t-93 -60t-117 -22.5q-18 0 -39 2.5t-39 10.5t-29.5 22t-11.5 38q0 42 24.5 72t60.5 51t77.5 33.5t74.5 20.5q15 35 23 68q25 89 47 177.5t48 176.5q17 60 61 90t105 30
q12 0 25.5 -0.5t25 -4t19 -12t7.5 -24.5zM-19 -85q-9 -2 -28.5 -8.5t-40 -16t-36 -21t-15.5 -23.5q0 -9 7.5 -10.5t13.5 -1.5q15 0 29.5 8.5t27.5 21t24 26.5t18 25z" />
    <glyph glyph-name="k" unicode="k" horiz-adv-x="551" 
d="M684 276q10 0 15.5 -8t5.5 -16q0 -4 -2 -12q-14 -39 -37.5 -85.5t-55.5 -86t-73 -66t-89 -26.5q-31 0 -54.5 12.5t-39.5 33t-26 47t-16 55t-8 56.5t-2 52l-29 -105q-3 -13 -6 -30t-7.5 -34.5t-11 -32t-18.5 -22.5q-20 -14 -48 -23t-53 -9q-42 0 -60 26.5t-18 64.5
q0 18 2.5 36t7.5 35l146 538q16 58 60 87t103 29q11 0 24 -0.5t25 -4t20 -11t8 -22.5q0 -5 -1 -10t-3 -10q-23 -66 -41.5 -132.5t-36.5 -134.5q18 17 42.5 38t52 39t56 30t55.5 12q38 0 60.5 -22.5t22.5 -60.5q0 -34 -15 -63t-39 -51.5t-54 -38.5t-60 -24q0 -13 2 -45
t9 -65.5t19.5 -59t33.5 -25.5q16 0 31 14t27.5 33t22 38.5t14.5 31.5q6 14 15 21t24 7zM325 319q17 3 44.5 12t53.5 22.5t45 31.5t19 41q0 13 -8.5 18t-19.5 5q-15 0 -31.5 -7t-32 -17.5t-29.5 -22.5t-24 -22z" />
    <glyph glyph-name="l" unicode="l" horiz-adv-x="275" 
d="M408 276q10 0 15.5 -8.5t5.5 -16.5q0 -4 -2 -12q-14 -43 -36 -89.5t-53 -85t-72 -63.5t-93 -25q-60 0 -87 33.5t-27 90.5q0 26 4 51t11 49l129 476q16 58 60 87t103 29q12 0 25.5 -0.5t25.5 -4.5t19.5 -12.5t7.5 -24.5q0 -9 -3 -18q-32 -103 -62.5 -205.5t-58.5 -207.5
q-11 -38 -20 -79.5t-9 -81.5q0 -4 1 -16t9 -12q9 0 19.5 16t20 36.5t17.5 39.5t11 26q6 14 15 21t24 7z" />
    <glyph glyph-name="m" unicode="m" horiz-adv-x="808" 
d="M934 276q26 0 26 -24q0 -4 -2 -12q-15 -43 -39.5 -89.5t-58.5 -85.5t-77 -64t-95 -25q-55 0 -80 28t-25 82q0 32 6 62.5t15 61t19 60.5t18 60q3 11 6 22.5t3 23.5q0 8 -2.5 15t-12.5 7q-8 0 -15.5 -3.5t-14.5 -5.5v-4q0 -8 -4 -21t-6 -21q-18 -68 -36.5 -135t-28.5 -136
q-2 -17 -10 -34t-23 -26q-22 -13 -52.5 -24.5t-56.5 -11.5q-38 0 -53.5 24.5t-15.5 59.5q0 21 4 41.5t9 40.5l51 188q3 11 5.5 21.5t2.5 21.5q0 7 -2.5 14.5t-11.5 7.5q-8 0 -18.5 -5.5t-17.5 -9.5l-69 -253q-3 -13 -6 -30t-7 -33.5t-11.5 -30.5t-19.5 -21
q-25 -14 -53.5 -25t-57.5 -11q-39 0 -54 24t-15 59q0 20 3.5 40t8.5 39l74 274q16 58 61 87t103 29q9 0 21.5 -0.5t24 -3.5t19 -10t7.5 -20q0 -15 -6 -27q31 26 73 44t83 18q35 0 59 -16.5t29 -52.5q37 28 81.5 48t91.5 20q45 0 67.5 -20.5t22.5 -65.5q0 -37 -12 -76.5
t-27 -77t-27 -72.5t-12 -64q0 -9 3.5 -15.5t14.5 -6.5q16 0 28 11t22 27t18.5 35t17 35t17.5 27t20 11z" />
    <glyph glyph-name="n" unicode="n" horiz-adv-x="547" 
d="M673 276q12 0 19.5 -5.5t7.5 -18.5q0 -4 -2 -12q-15 -43 -39.5 -90t-58.5 -85.5t-77 -63.5t-96 -25q-54 0 -80.5 28t-26.5 82q0 31 6.5 62t15.5 61.5t19.5 60.5t18.5 60q3 11 5.5 21t2.5 21q0 8 -3 15.5t-13 7.5q-8 0 -17.5 -5t-16.5 -10l-69 -253q-3 -13 -6 -30
t-7.5 -34.5t-11.5 -32t-18 -22.5q-21 -14 -48.5 -23t-52.5 -9q-42 0 -60 26.5t-18 64.5q0 18 2.5 36t7.5 35l74 274q16 58 61 87t103 29q9 0 21.5 -0.5t24 -3t19.5 -9t8 -18.5q0 -8 -2.5 -15t-4.5 -15q32 27 75 45t85 18q45 0 66.5 -23.5t21.5 -67.5q0 -37 -11.5 -74
t-26 -73t-26 -70t-11.5 -65q0 -9 3.5 -18t14.5 -9q14 0 25 11t20.5 27t18.5 35t18 35t18.5 27t20.5 11z" />
    <glyph glyph-name="o" unicode="o" horiz-adv-x="500" 
d="M629 276q9 0 14.5 -7.5t5.5 -15.5q0 -7 -3 -13q-8 -19 -23 -45t-34.5 -50t-42.5 -40.5t-47 -16.5q-20 0 -36 16q-42 -60 -100.5 -94t-132.5 -34q-80 0 -123.5 41t-43.5 122q0 29 4.5 57.5t12.5 55.5q15 55 40.5 105t62 88t85.5 60.5t111 22.5q81 0 123.5 -41t42.5 -122
q0 -40 -9.5 -78.5t-9.5 -78.5q0 -6 2 -14.5t10 -8.5q15 0 24 14t17 31.5t19.5 31.5t30.5 14zM270 130q14 0 27 16t24 41t19.5 55.5t14.5 59.5t9.5 52.5t3.5 35.5v11t-1.5 14t-5 12.5t-9.5 5.5q-13 0 -25.5 -16.5t-24 -42.5t-20.5 -57t-16 -60.5t-11 -53.5t-4 -35
q0 -9 3 -23.5t16 -14.5z" />
    <glyph glyph-name="p" unicode="p" horiz-adv-x="551" 
d="M677 276q11 0 19.5 -5t8.5 -18q0 -7 -3 -13q-16 -43 -42.5 -89.5t-61.5 -85.5t-79.5 -64t-96.5 -25q-56 0 -89 31t-33 88q0 45 17 86.5t37 78t37 66.5t17 51q0 11 -5.5 17.5t-16.5 6.5q-13 0 -24 -6.5t-20 -14.5l-79 -292q-16 -58 -31 -116t-27 -118q-3 -17 -11 -35
t-23 -28q-21 -14 -48 -23t-53 -9q-42 0 -60 25.5t-18 64.5q0 18 3 36.5t8 35.5l132 491q16 58 61 87t103 29q9 0 21.5 -0.5t24 -3t19.5 -9t8 -18.5q0 -8 -2.5 -15t-4.5 -15q33 29 74.5 46t86.5 17q48 0 78 -23.5t30 -74.5q0 -42 -18.5 -83.5t-40 -78.5t-40 -66t-18.5 -46
q0 -11 7.5 -18.5t18.5 -7.5q25 0 43.5 22.5t34 49.5t28.5 49.5t28 22.5z" />
    <glyph glyph-name="q" unicode="q" horiz-adv-x="570" 
d="M737 239q0 -10 -4 -17q-23 -48 -62 -88t-90 -57q25 -40 25 -89q0 -44 -20.5 -85.5t-54 -73t-75.5 -50.5t-86 -19q-59 0 -86 36t-27 92q0 42 11 83t22 81q-26 -29 -63.5 -52.5t-78.5 -23.5q-27 0 -44.5 12.5t-27.5 32t-14 43t-4 45.5q0 34 8 78.5t23.5 91t38.5 91.5
t52.5 80.5t65.5 57t78 21.5q30 0 56.5 -11t46.5 -34q25 25 58 35t67 10q11 0 24 -0.5t24.5 -4t19.5 -11.5t8 -23q0 -2 -6.5 -26.5t-16.5 -60t-22.5 -78t-23.5 -81t-19.5 -68t-11.5 -40.5q46 9 73 31.5t44.5 45.5t30 40.5t29.5 17.5q13 0 22.5 -9.5t9.5 -22.5zM386 406
q-8 2 -12 2q-14 0 -27 -15.5t-24 -39.5t-19.5 -53t-15 -57t-10 -50.5t-3.5 -34.5q0 -2 0.5 -7t1.5 -10.5t3 -9.5t6 -4q7 0 14 9t13 21t10.5 23.5t5.5 16.5zM475 -74q0 -10 3.5 -20t15.5 -10t20.5 9t14.5 21.5t9 26t3 22.5q0 22 -9.5 42.5t-26.5 34.5q-8 -29 -19 -63t-11 -63
z" />
    <glyph glyph-name="r" unicode="r" horiz-adv-x="419" 
d="M554 276q9 0 15 -7.5t6 -15.5q0 -7 -3 -13q-18 -47 -47 -94t-67.5 -85t-86 -61.5t-102.5 -23.5q-48 0 -78 22.5t-30 73.5q0 41 13.5 75t33.5 64t43 56t43 49.5t33.5 46t13.5 45.5q0 7 -1 10q-17 -21 -42 -52.5t-54.5 -61t-60.5 -50.5t-60 -21q-24 0 -35.5 13.5
t-11.5 36.5q0 33 14.5 69.5t36.5 72.5t48 68t48 54q20 20 39.5 24t45.5 4q17 0 21 -11t6.5 -24t9 -24t27.5 -11q14 0 27 3.5t26.5 8t27 8t27.5 3.5q26 0 40.5 -13t14.5 -39q0 -42 -22 -85.5t-49 -85t-49 -79.5t-22 -71q0 -11 4.5 -18t15.5 -7q18 0 33.5 13.5t28.5 32.5
t23 39t16 33q7 14 16 21t24 7z" />
    <glyph glyph-name="s" unicode="s" horiz-adv-x="521" 
d="M669 255q0 -6 -4 -14q-25 -54 -69.5 -102t-100 -84.5t-117.5 -57.5t-122 -21q-42 0 -78.5 11t-63.5 33.5t-42.5 55.5t-15.5 78q0 26 7.5 62t23.5 68t40 54.5t57 22.5q26 0 44.5 -17.5t18.5 -43.5q0 -19 -5.5 -37t-11.5 -36t-11.5 -37.5t-5.5 -41.5q0 -11 2 -24t7.5 -24
t15 -18.5t23.5 -7.5q30 0 46 24.5t16 51.5q0 26 -10 52.5t-22 54.5t-22 57.5t-10 62.5q0 38 13 68.5t36 51.5t54.5 32.5t68.5 11.5q12 0 29.5 -2.5t34 -9t28.5 -17t12 -26.5q0 -15 -8.5 -24.5t-18 -19t-18 -22.5t-8.5 -36q0 -26 9 -50.5t18.5 -50t16.5 -53.5t3 -62
q46 32 78 82q5 9 14.5 17.5t20.5 8.5q9 0 18 -5t9 -16z" />
    <glyph glyph-name="t" unicode="t" horiz-adv-x="361" 
d="M475 537q-12 0 -23.5 4t-23.5 4q-5 0 -9 -0.5t-9 -1.5l-18 -3q-11 -40 -25.5 -85.5t-27.5 -92.5t-22 -93t-9 -87q0 -22 6.5 -37t31.5 -15q18 0 35 13t31 32t25 39t18 34q5 9 13.5 18.5t19.5 9.5t19 -5.5t8 -17.5q0 -7 -3 -13q-19 -49 -48.5 -96.5t-69.5 -84.5t-89 -60
t-106 -23q-64 0 -98 33.5t-34 97.5q0 46 14 93l96 334q-24 0 -42 3.5t-30 12t-18 23.5t-6 40q0 6 2.5 17t7 21.5t11 18.5t13.5 8q9 0 14.5 -6.5t12 -14.5t16 -14.5t26.5 -6.5h10.5t10.5 1q11 39 22.5 68.5t30.5 48.5t48 28.5t73 9.5q11 0 24.5 -0.5t25 -4t19 -12t7.5 -23.5
q0 -7 -2.5 -17t-6 -21t-7.5 -21.5t-6 -17.5q11 3 21.5 5t21.5 2q26 0 41 -13.5t15 -39.5q0 -11 -4 -27t-11.5 -30.5t-18 -24.5t-23.5 -10z" />
    <glyph glyph-name="u" unicode="u" horiz-adv-x="548" 
d="M682 276q9 0 14.5 -8t5.5 -16q0 -4 -2 -12q-14 -40 -37.5 -86.5t-55.5 -86t-72.5 -65.5t-90.5 -26q-42 0 -68 21.5t-37 62.5q-31 -38 -69 -61t-88 -23q-63 0 -92.5 35t-29.5 95q0 24 4 47.5t10 46.5l57 212q16 58 61 87t103 29q11 0 24 -0.5t24.5 -4t19.5 -11t8 -22.5
q0 -6 -1 -11t-3 -10q-10 -29 -23 -71t-25 -86.5t-20.5 -86.5t-8.5 -71v-5t1 -8t2.5 -7.5t4.5 -3.5q5 0 12.5 7t15 17t13 19.5t6.5 14.5l60 224q16 58 61 87t103 29q11 0 24 -0.5t24.5 -4t19.5 -11t8 -22.5q0 -6 -1 -11t-3 -10q-10 -28 -23.5 -70t-26 -87t-21 -87t-8.5 -71
q0 -3 1 -13.5t8 -10.5q9 0 20.5 16t22 36t18.5 39.5t11 26.5q6 14 15 21t24 7z" />
    <glyph glyph-name="v" unicode="v" horiz-adv-x="462" 
d="M594 276q8 0 14.5 -5t6.5 -13q0 -5 -4 -13q-10 -20 -28.5 -44t-41 -43.5t-48.5 -30.5t-52 -5q-19 -28 -43 -54.5t-52 -46.5t-60 -32.5t-68 -12.5q-40 0 -66.5 19.5t-42 49.5t-21.5 65.5t-6 68.5q0 32 4 70t13.5 77t25.5 75.5t39 64.5t54 45t71 17q11 0 24 -0.5t24.5 -4
t19.5 -11t8 -22.5q0 -6 -1 -11t-3 -10q-9 -27 -21 -64t-22.5 -76.5t-18 -77t-7.5 -64.5q0 -7 0.5 -17t3.5 -19t9 -15t16 -6q20 0 36.5 15.5t27.5 29.5q-6 17 -8 35t-2 35t4 45t11.5 59.5t18.5 63.5t26 58t34 42t42 16q15 0 23.5 -8t13.5 -20t6.5 -25.5t1.5 -24.5
q0 -30 -7 -64.5t-18 -69.5t-24.5 -67.5t-27.5 -59.5q22 3 37 16.5t27.5 29t24 28t26.5 12.5zM435 264q5 11 12 32.5t13 45t10.5 45t4.5 33.5q0 4 -1 5q-6 0 -13 -20.5t-13 -46t-10 -49.5t-4 -32z" />
    <glyph glyph-name="w" unicode="w" horiz-adv-x="713" 
d="M846 276q8 0 14.5 -4.5t6.5 -13.5q0 -5 -4 -13q-11 -21 -29 -44.5t-40.5 -43t-48.5 -30.5t-53 -5q-18 -27 -41 -53.5t-50 -47t-58 -33t-66 -12.5q-52 0 -76.5 27t-32.5 76q-32 -42 -77.5 -72.5t-100.5 -30.5q-34 0 -56.5 19t-35 47t-17.5 60t-5 59q0 31 5 70t16 80
t27.5 80t40.5 69.5t55 49t70 18.5q11 0 24 -0.5t24.5 -4t19.5 -11t8 -22.5q0 -6 -1 -11t-3 -10q-10 -29 -22.5 -67.5t-23.5 -79t-18.5 -80t-7.5 -69.5q0 -4 0.5 -11t2 -14t4.5 -12t9 -5q13 0 26.5 17.5t25 40.5t19.5 45t11 32q11 39 19.5 85t25.5 85t47.5 65.5t85.5 26.5
q10 0 21 -1t20 -4.5t15 -11t6 -20.5q0 -5 -1 -10.5t-3 -10.5q-10 -28 -22 -65.5t-22.5 -77.5t-18 -78.5t-7.5 -67.5q0 -6 0.5 -14.5t3 -16.5t7.5 -14t13 -6t16.5 5t16 11.5t14.5 14.5t11 14q-6 17 -8 35t-2 35t4 45t11.5 59.5t18.5 63.5t26 58t34 42t42 16q15 0 23.5 -8.5
t13.5 -20.5t6.5 -25.5t1.5 -24.5q0 -30 -7 -64.5t-17.5 -69t-24 -67t-27.5 -59.5q22 3 36.5 16.5t27 29t24 28t27.5 12.5zM685 264q6 11 13 32t13.5 44.5t11 45t4.5 32.5q0 5 -2 7q-7 -1 -14 -23t-13 -50t-9.5 -53.5t-3.5 -34.5z" />
    <glyph glyph-name="x" unicode="x" horiz-adv-x="424" 
d="M550 276q11 0 19 -5.5t8 -17.5q0 -7 -3 -13q-14 -37 -39 -83t-58.5 -86.5t-74 -67.5t-87.5 -27q-35 0 -65 16t-58 36q-9 -8 -22 -18.5t-28 -20.5t-30 -16.5t-28 -6.5q-20 0 -25.5 16t-5.5 32q0 17 8 28.5t20 20.5t25.5 16.5t25.5 14.5q-22 34 -32 72.5t-10 78.5
q0 47 13.5 97.5t41 91.5t68.5 67.5t95 26.5q11 0 21.5 -1t18.5 -4.5t13.5 -11t5.5 -21.5q0 -11 -4 -21t-7 -21q-8 -27 -12 -56.5t-4 -58.5v-15q48 79 77 170q4 12 12.5 24t23.5 12q25 0 42.5 -19t17.5 -43q0 -28 -17 -63.5t-41 -71t-49.5 -67l-42.5 -52.5q4 -10 9.5 -21
t13 -20.5t17.5 -15.5t22 -6q26 0 43 20.5t30 45t24.5 45t27.5 20.5z" />
    <glyph glyph-name="y" unicode="y" 
d="M671 265q11 0 19 -8.5t8 -19.5q0 -5 -1 -8.5t-3 -7.5q-32 -62 -79.5 -116.5t-104.5 -93.5q-23 -56 -54 -106.5t-72 -88t-93 -59.5t-118 -22q-18 0 -39 2.5t-39 10.5t-29.5 22t-11.5 38q0 43 26.5 73.5t65 51.5t82 34t76.5 21q4 16 6.5 31.5t3.5 32.5q-28 -33 -68.5 -55
t-84.5 -22q-28 0 -47.5 10.5t-31.5 28t-17.5 40.5t-5.5 48t4 49.5t11 48.5l57 212q16 58 61 87t103 29q11 0 24 -0.5t24.5 -4t19.5 -11t8 -22.5q0 -6 -1 -11t-3 -10q-10 -29 -23 -70.5t-25 -86t-20 -86.5t-8 -71q0 -3 0.5 -14t7.5 -11q10 0 21.5 16.5t21 38.5t17 42.5
t9.5 28.5q12 43 24 90.5t33 88t56 67t92 26.5q12 0 25.5 -0.5t24.5 -4t18.5 -12t7.5 -24.5q0 -10 -3 -19q-24 -83 -47.5 -165t-46.5 -165q-2 -5 -3 -10.5t-2 -11.5q31 30 53.5 62.5t44.5 68.5q5 8 10.5 13t15.5 5zM271 -83q-9 -2 -31.5 -8.5t-46 -16.5t-41.5 -22t-18 -25
q0 -9 8.5 -10.5t14.5 -1.5q16 0 33 8.5t32 21t28 27.5t21 27z" />
    <glyph glyph-name="z" unicode="z" horiz-adv-x="529" 
d="M124 -14q-14 0 -19.5 10t-5.5 22q0 45 20 79.5t49.5 62.5t64 52.5t64 50.5t49.5 55.5t20 67.5v12t-2 12q-17 -22 -43 -52.5t-57 -59t-64 -48.5t-64 -20q-29 0 -44 16.5t-15 45.5t14 60t35 60t46 53.5t48 40.5q4 3 13 3q19 0 35.5 -8.5t36.5 -8.5q24 0 46.5 5.5t45 12.5
t45 12.5t46.5 5.5t44.5 -7t36 -20t24.5 -32.5t9 -44.5q0 -42 -24 -81.5t-59.5 -72.5t-76.5 -59.5t-75 -43.5q5 1 8.5 1h8.5q39 0 73.5 -14.5t54.5 -50.5q35 32 60.5 67.5t49.5 76.5q5 8 10.5 13t14.5 5q11 0 19 -8.5t8 -19.5q0 -5 -1 -8.5t-3 -7.5q-26 -52 -62 -99t-81 -84
v-8q0 -67 -28.5 -121.5t-75 -93t-106 -59.5t-122.5 -21q-21 0 -46 3t-46 12t-35.5 25.5t-14.5 43.5q0 45 29.5 74t71.5 48t87.5 31.5t77.5 23.5q-9 14 -25.5 17.5t-31.5 3.5q-19 0 -40 -5t-40 -10.5t-34.5 -10.5t-23.5 -5zM318 -70q-11 -3 -41 -9.5t-61 -16.5t-55 -23.5
t-24 -29.5q0 -11 13.5 -14t21.5 -3q23 0 45 7.5t41.5 20t35 30t24.5 38.5z" />
    <glyph glyph-name="uni00A0" unicode="&#xa0;" horiz-adv-x="563" 
 />
    <glyph glyph-name="uni00AD" unicode="&#xad;" horiz-adv-x="0" 
 />
    <glyph glyph-name="period" unicode="." horiz-adv-x="384" 
d="M277 252q41 0 61.5 -25.5t20.5 -63.5q0 -31 -11.5 -64t-32 -60t-49 -44t-63.5 -17q-41 0 -63.5 24.5t-22.5 64.5q0 32 12 65t33.5 59.5t51 43.5t63.5 17z" />
    <glyph glyph-name="comma" unicode="," horiz-adv-x="391" 
d="M70 -135q0 17 10.5 27t27.5 10q18 0 37 4t34 12.5t25 23t10 36.5q-42 0 -66 22.5t-24 64.5q0 32 12 65t33.5 60t51 44.5t63.5 17.5q44 0 62.5 -28.5t18.5 -68.5q0 -50 -19 -106t-53 -102.5t-81 -77t-103 -30.5q-15 0 -27 3t-12 23z" />
    <glyph glyph-name="colon" unicode=":" horiz-adv-x="400" 
d="M403 678q41 0 61 -24.5t20 -63.5q0 -31 -11.5 -64t-32 -60t-49 -44.5t-63.5 -17.5q-41 0 -63.5 24.5t-22.5 64.5q0 32 12 65t34 59.5t51.5 43.5t63.5 17zM287 252q41 0 61.5 -25.5t20.5 -63.5q0 -31 -11.5 -64t-32 -60t-49 -44t-63.5 -17q-41 0 -63.5 24.5t-22.5 64.5
q0 32 12 65t33.5 59.5t51 43.5t63.5 17z" />
    <glyph glyph-name="semicolon" unicode=";" horiz-adv-x="416" 
d="M392 678q41 0 61.5 -25.5t20.5 -63.5q0 -31 -11.5 -64t-32.5 -60t-49.5 -44t-63.5 -17q-41 0 -63 24.5t-22 64.5q0 32 12 65t33.5 59.5t51 43.5t63.5 17zM63 -135q0 17 10.5 27t27.5 10q18 0 37 4t34 12.5t25 23t10 36.5q-42 0 -66 22.5t-24 64.5q0 32 12 65t33.5 60
t51 44.5t63.5 17.5q44 0 62.5 -28.5t18.5 -68.5q0 -50 -19 -106t-53 -102.5t-81 -77t-103 -30.5q-15 0 -27 3t-12 23z" />
    <glyph glyph-name="at" unicode="@" horiz-adv-x="780" 
d="M778 583q0 -6 -1.5 -11t-3.5 -10q-10 -29 -23.5 -72t-25.5 -89t-20 -89t-8 -73v-7t1.5 -10.5t4 -9.5t6.5 -4q17 0 37.5 31.5t38 78.5t29.5 101t12 99q0 53 -17 92.5t-48 65.5t-73.5 38.5t-92.5 12.5q-84 0 -151.5 -30.5t-118.5 -82t-86.5 -119.5t-56.5 -143
q-10 -35 -15.5 -70t-5.5 -71q0 -64 20.5 -108.5t56.5 -72.5t86 -40.5t109 -12.5q16 0 32 2t32 2q23 0 23 -23q0 -21 -12.5 -31t-30 -13.5t-37 -3.5h-33.5q-68 0 -124.5 16t-97 49.5t-62.5 86t-22 124.5q0 42 7 84t18 82q24 87 66 167.5t102.5 143t140 99.5t177.5 37
q129 0 199.5 -68.5t70.5 -198.5q0 -42 -8.5 -92.5t-25 -102.5t-41.5 -100.5t-59 -86.5t-76.5 -61t-93.5 -23q-53 0 -81.5 26t-28.5 80q-13 -20 -29.5 -39t-37 -34t-43 -24t-47.5 -9q-30 0 -49 13.5t-30 34.5t-15.5 46.5t-4.5 49.5q0 35 8 78.5t23 89t37.5 89t52 77.5
t66 54.5t78.5 20.5q29 0 55.5 -10.5t46.5 -33.5q29 21 63 34.5t70 13.5q11 0 23 -1t21.5 -5t16 -12t6.5 -22zM536 497q-8 2 -12 2q-14 0 -27 -15.5t-24 -39.5t-20 -53.5t-15 -57t-9.5 -50.5t-3.5 -35v-7t1 -10.5t3 -9.5t6 -4q7 0 14.5 10.5t14 24t11.5 26.5t6 18z" />
    <glyph glyph-name="hyphen" unicode="-" horiz-adv-x="618" 
d="M223 246q-12 0 -19 8t-7 19q0 10 5 30.5t11 43t12.5 43t9.5 32.5q4 15 16.5 27.5t29.5 12.5h341q12 0 19 -8t7 -19q0 -10 -5 -30t-11 -42.5t-12.5 -43.5t-9.5 -33q-4 -15 -16.5 -27.5t-29.5 -12.5h-341z" />
    <glyph glyph-name="plus" unicode="+" horiz-adv-x="509" 
d="M125 273q0 10 5 30.5t11 43t12.5 43t9.5 32.5q4 15 16.5 27.5t29.5 12.5h80l26 98q4 15 16.5 27.5t29.5 12.5h110q12 0 19 -8t7 -19q0 -10 -3.5 -24.5t-8 -30.5t-9 -30.5t-7.5 -25.5h81q12 0 19 -8t7 -19q0 -10 -5 -30t-11 -42.5t-12.5 -43.5t-9.5 -33
q-4 -15 -16.5 -27.5t-29.5 -12.5h-81l-27 -98q-5 -15 -17 -27.5t-29 -12.5h-110q-12 0 -19 8t-7 19q0 10 3.5 24.5t8 30.5t9.5 31t8 25h-80q-12 0 -19 8t-7 19z" />
    <glyph glyph-name="asterisk" unicode="*" horiz-adv-x="490" 
d="M435 829h71q8 0 14 -3.5t6 -11.5q0 -7 -12 -27.5t-27 -44.5t-27 -47.5t-12 -37.5q0 -7 6 -7q10 0 30 14t41 30.5t39.5 30.5t24.5 14q9 0 11.5 -9t2.5 -16v-19l1 -39q0 -8 -0.5 -18.5t-3.5 -19.5t-9.5 -15.5t-18.5 -6.5q-20 0 -41 2.5t-41 2.5q-4 0 -11 -0.5t-14 -2
t-11.5 -5t-4.5 -10.5q0 -13 12 -25.5t26 -25t26 -25.5t12 -27t-14 -25q-5 -4 -18.5 -14t-29 -20.5t-29 -19t-18.5 -8.5q-8 0 -11.5 7.5t-3.5 14.5v26l2 51v25v8t-1 10t-3 9t-6 4t-9 -5.5t-10 -12.5t-8.5 -14t-5.5 -10l-48 -93q-4 -7 -9.5 -12.5t-13.5 -5.5q-6 0 -17.5 9
t-22.5 21.5t-19 25.5t-8 20q0 16 15 26l84 55q3 2 9.5 6.5t13 9.5t11 10.5t4.5 10.5t-4 7t-10 3.5t-11.5 1.5h-8.5q-20 0 -41 -2.5t-41 -2.5q-8 0 -14.5 3.5t-6.5 13.5q0 7 7 22t16.5 32t18.5 32t13 22q3 6 8 11.5t13 5.5q9 0 20 -13.5t23 -30t24 -30.5t23 -14q7 0 10.5 8.5
t5 19.5t1.5 22v15v19l-3 37q0 9 0.5 19t3.5 18.5t10 14.5t19 6z" />
    <glyph glyph-name="asciicircum" unicode="^" horiz-adv-x="638" 
d="M177 346q-8 0 -14 3.5t-6 11.5q0 5 17.5 35.5t44.5 73.5t59.5 93t61.5 95t51 79t29 44q8 14 23.5 24t32.5 10h129q17 0 27 -12.5t12 -28.5l36 -388q2 -15 -5.5 -27.5t-25.5 -12.5h-114q-17 0 -26.5 13t-10.5 29l-10 202l-134 -211q-8 -14 -23.5 -23.5t-32.5 -9.5h-121z
" />
    <glyph glyph-name="tilde" unicode="&#x2dc;" horiz-adv-x="474" 
d="M234 556q-6 0 -8 4t0 9q7 26 21 64.5t35 74t48.5 61t61.5 25.5q22 0 37.5 -9t29 -20t27 -20t31.5 -9q21 0 34.5 9t23 20t16.5 20t13 9q7 0 9 -4.5t0 -9.5q-7 -26 -21 -64.5t-35.5 -74t-49 -60.5t-61.5 -25q-22 0 -37 9t-28.5 20t-27.5 20t-33 9q-21 0 -35 -9t-23 -20
t-15 -20t-13 -9z" />
    <glyph glyph-name="slash" unicode="/" horiz-adv-x="499" 
d="M59 0q-8 0 -14.5 3.5t-6.5 12.5q0 5 2 9.5t4 8.5l440 752q8 14 23.5 24t31.5 10h123q8 0 14.5 -4t6.5 -13q0 -5 -2 -9l-4 -8l-440 -752q-8 -14 -23 -24t-32 -10h-123z" />
    <glyph glyph-name="backslash" unicode="\" horiz-adv-x="499" 
d="M473 37q1 -14 -8.5 -25.5t-24.5 -11.5h-123q-17 0 -26.5 13t-10.5 29l-32 736q-1 15 7 28.5t26 13.5h123q17 0 26.5 -13t10.5 -29z" />
    <glyph glyph-name="less" unicode="&#x3c;" horiz-adv-x="505" 
d="M432 114q-5 0 -26.5 11.5t-50.5 29t-63 38t-64 40t-53.5 34t-31.5 19.5q-11 7 -16.5 18.5t-5.5 24.5q0 11 6 35t13.5 51t15 52t10.5 38q5 17 16 31.5t27 22.5q9 4 41 19t74.5 35t90 42.5t88 41t68.5 30.5t31 12q7 0 9.5 -5t2.5 -11q0 -10 -5 -31t-12 -44.5t-13.5 -45.5
t-9.5 -34q-5 -16 -16.5 -31t-27.5 -22l-196 -81l144 -86q11 -7 16.5 -19t5.5 -25q0 -11 -5.5 -33.5t-12.5 -47.5t-14 -48t-10 -36q-2 -10 -8.5 -17.5t-17.5 -7.5z" />
    <glyph glyph-name="equal" unicode="=" horiz-adv-x="642" 
d="M287 605h396q12 0 19 -8t7 -19q0 -20 -7.5 -41t-12.5 -39q-5 -15 -17 -27.5t-29 -12.5h-396q-12 0 -19 8t-7 19q0 20 7.5 41t12.5 39q5 15 17 27.5t29 12.5zM221 361h396q12 0 19 -7.5t7 -19.5q0 -19 -7.5 -40.5t-12.5 -39.5q-4 -15 -16.5 -27t-29.5 -12h-396
q-12 0 -19 7.5t-7 19.5q0 19 7.5 40.5t12.5 39.5q4 15 16.5 27t29.5 12z" />
    <glyph glyph-name="greater" unicode="&#x3e;" horiz-adv-x="505" 
d="M134 111q-7 0 -9.5 4.5t-2.5 10.5q0 10 5.5 32t12.5 47t14 48.5t10 35.5q5 17 16 31.5t27 22.5l201 91l-147 77q-11 6 -17 18t-6 25q0 11 5 32t11.5 44.5t13.5 45.5t10 34q2 10 9 18t18 8q7 0 15 -5l275 -167q11 -7 16.5 -19t5.5 -25q0 -11 -6 -35t-13.5 -51t-15 -52
t-10.5 -38q-5 -16 -16.5 -31.5t-26.5 -22.5q-9 -4 -41 -19t-74.5 -35t-90.5 -42t-88.5 -40.5t-69 -30.5t-31.5 -12z" />
    <glyph glyph-name="exclam" unicode="!" horiz-adv-x="395" 
d="M527 760q0 -11 -5 -23q-24 -63 -44.5 -126t-38.5 -129q-13 -45 -24.5 -89.5t-19.5 -91.5q-4 -23 -13.5 -35.5t-23 -18.5t-30.5 -7t-37 -1t-39 4t-34 13.5t-24.5 25t-9.5 38.5q0 17 5 35l58 213q11 41 28.5 81t44 71.5t62.5 51.5t84 20q9 0 19.5 -0.5t19.5 -3.5t15.5 -9.5
t6.5 -18.5zM269 215q39 0 66 -25t27 -65q0 -30 -14 -57t-36.5 -47.5t-50.5 -32.5t-57 -12q-40 0 -68 23.5t-28 65.5q0 29 14.5 56t38 48t52 33.5t56.5 12.5z" />
    <glyph glyph-name="question" unicode="?" horiz-adv-x="535" 
d="M267 240q-18 0 -25.5 13.5t-7.5 28.5q0 24 1 48l2 48q1 17 10.5 29t26.5 14q22 3 55.5 9.5t65 19t54 33t22.5 50.5q0 15 -7 25.5t-18 17t-24.5 9.5t-26.5 3q-29 0 -55.5 -10.5t-48 -22.5t-37 -22.5t-21.5 -10.5q-9 0 -14.5 6.5t-8.5 15.5t-3.5 18.5t-0.5 15.5
q0 52 23.5 94.5t61 72.5t85 46.5t95.5 16.5q42 0 77.5 -12.5t61 -35.5t40 -57t14.5 -77q0 -69 -26.5 -123.5t-71 -92.5t-103.5 -58t-124 -20v-26.5t-3 -30t-11 -25t-25 -10.5h-33zM293 215q39 0 66 -25t27 -65q0 -30 -14 -57t-36.5 -47.5t-50.5 -32.5t-57 -12
q-40 0 -68 23.5t-28 65.5q0 29 14.5 56t38 48t52 33.5t56.5 12.5z" />
    <glyph glyph-name="quotesingle" unicode="'" horiz-adv-x="350" 
d="M181 426q0 17 10.5 27t27.5 10q18 0 37 4t34.5 13t25 23.5t9.5 36.5q-42 0 -66 23t-24 65q0 32 12 65t33.5 60t51 44t63.5 17q45 0 63 -29t18 -70q0 -50 -19 -105.5t-52.5 -102t-80.5 -76.5t-103 -30q-14 0 -27 3.5t-13 21.5z" />
    <glyph glyph-name="quotedbl" unicode="&#x22;" horiz-adv-x="629" 
d="M197 426q0 17 10.5 27t27.5 10t35 4t34 12t26 21.5t10 34.5v5q-42 0 -66 23.5t-24 65.5q0 32 12 65t33.5 59.5t51 43.5t63.5 17q44 0 62.5 -29t18.5 -69q0 -50 -18.5 -105.5t-52.5 -102t-80.5 -77t-102.5 -30.5q-14 0 -27 3.5t-13 21.5zM444 426q0 17 10.5 27t27.5 10
q18 0 37 4t34.5 13t25 23.5t9.5 36.5q-42 0 -66 23.5t-24 65.5q0 32 12 65t33 59.5t50.5 43.5t63.5 17q44 0 62.5 -29t18.5 -69q0 -50 -18.5 -105.5t-52.5 -102t-80.5 -77t-102.5 -30.5q-14 0 -27 3.5t-13 21.5z" />
    <glyph glyph-name="numbersign" unicode="#" horiz-adv-x="816" 
d="M84 0q-8 0 -14.5 3.5t-6.5 12.5q0 5 8 21t20.5 38t27.5 47.5t29 48t24.5 40t14.5 24.5q-8 0 -17.5 -0.5t-18 1.5t-14 7t-5.5 17q0 22 10 33t24.5 15t32 3.5t32.5 -0.5l106 181q-9 0 -20 -1t-20.5 0.5t-16.5 7.5t-7 19q0 24 11.5 34.5t28 14.5t35.5 3t34 -1l127 217
q8 14 23.5 24t31.5 10h123q8 0 14.5 -4t6.5 -13q0 -5 -8.5 -22t-22 -40.5t-29.5 -50.5t-31 -51.5t-26.5 -43.5t-15.5 -26h74l127 217q8 14 23.5 24t31.5 10h123q8 0 14.5 -4t6.5 -13q0 -5 -8.5 -22t-22 -40.5t-29.5 -50.5t-31 -51.5t-26.5 -43.5t-15.5 -26q9 0 20.5 1t21 -1
t16.5 -7.5t7 -19.5q0 -23 -11.5 -34t-28.5 -14.5t-36 -2.5t-34 1l-106 -181q8 0 20.5 1.5t24.5 0t20.5 -7t8.5 -19.5q0 -25 -12.5 -36t-31 -14.5t-39 -2t-35.5 1.5l-118 -201q-8 -14 -23 -24t-32 -10h-123q-8 0 -14.5 3.5t-6.5 12.5q0 5 8 21t20.5 38t27.5 47.5t29 48
t24.5 40t14.5 24.5h-74l-118 -201q-8 -14 -23 -24t-32 -10h-123zM424 311h74l106 181h-74z" />
    <glyph glyph-name="dollar" unicode="$" horiz-adv-x="549" 
d="M312 0h-83q-12 0 -19 8t-7 19q0 8 2.5 15.5t4.5 15.5q-22 5 -42 14.5t-35.5 24.5t-24.5 34.5t-9 43.5q0 27 10 53.5t27.5 49t39.5 40t46 28.5q6 2 10 2q13 0 18 -11t7 -21q3 -16 8.5 -41.5t15.5 -49.5t26 -41t38 -17q17 0 25.5 10t8.5 26q0 39 -25.5 74.5t-56 71.5
t-56 74t-25.5 83q0 38 13.5 71t37 60t54.5 46t66 29q3 11 6.5 25t9.5 26t15.5 20.5t24.5 8.5h83q12 0 19 -8t7 -19q0 -13 -4.5 -26.5t-7.5 -25.5q20 -6 38.5 -16.5t33 -25.5t23.5 -34t9 -41q0 -21 -8 -38t-21 -31t-29.5 -24t-34.5 -17q-6 -2 -9 -2q-11 0 -16.5 10t-9 24.5
t-7 32t-9.5 32t-16.5 24.5t-29.5 10q-20 0 -36 -13.5t-16 -34.5q0 -17 13.5 -33t34 -34t44 -38.5t44 -45.5t34 -57t13.5 -72q0 -48 -18.5 -87t-49.5 -68.5t-71 -49t-84 -28.5q-5 -20 -15.5 -38t-34.5 -18z" />
    <glyph glyph-name="Euro" unicode="&#x20ac;" horiz-adv-x="514" 
d="M144 435q0 5 5 11.5t8 11.5q13 18 22 21.5t17 4t15.5 5t16.5 23.5q23 48 54 97.5t71 90t89.5 66.5t108.5 26q11 0 29 -2t34.5 -7t28.5 -15t12 -25q0 -10 -13.5 -33.5t-30.5 -47.5t-31.5 -42t-16.5 -18q-4 0 -5.5 10t-4 22.5t-8.5 22.5t-19 10q-17 0 -35 -22.5t-34 -52.5
t-27.5 -59t-16.5 -42q5 0 21 0.5t34 -1t32 -7t14 -17.5q0 -5 -5.5 -11.5t-7.5 -10.5q-10 -13 -23.5 -20t-28.5 -9.5t-31 -2.5h-31q-3 -13 -6.5 -26t-7.5 -26h15.5t20.5 -1.5t17.5 -6t7.5 -12.5q0 -6 -5 -14t-8 -13q-10 -16 -19 -22.5t-17.5 -9t-15.5 -4.5t-12 -9t-8 -22
t-3 -43q0 -12 0.5 -29.5t5 -33.5t14 -27.5t26.5 -11.5q15 0 31 7.5t30.5 17t25 17t14.5 7.5q3 0 4 -3t1 -6q0 -19 -8 -43.5t-13 -43.5q-6 -24 -22 -39t-36 -23.5t-43.5 -12t-44.5 -3.5q-49 0 -82.5 18.5t-54.5 49.5t-30 71.5t-9 83.5q0 42 6 82q-6 0 -14.5 0.5t-17 2.5
t-14.5 6.5t-6 13.5q0 5 4.5 12t7.5 12q10 17 19.5 21t17.5 6t15 8.5t12 27.5l5 21q-5 0 -13 1t-15.5 3t-12.5 7t-5 12z" />
    <glyph glyph-name="percent" unicode="%" horiz-adv-x="900" 
d="M436 804q63 0 92.5 -38t29.5 -98q0 -50 -17 -105t-48.5 -101.5t-76.5 -77t-102 -30.5q-63 0 -93 37t-30 97q0 50 17 105.5t49 102.5t77 77.5t102 30.5zM797 792h102q7 0 13 -2.5t6 -10.5q0 -9 -7 -18l-537 -730q-10 -13 -25.5 -22t-32.5 -9h-102q-7 0 -13 2.5t-6 10.5
q0 9 7 18l537 730q10 13 25.5 22t32.5 9zM332 422q9 0 19 19t20.5 48.5t20.5 64.5t17.5 67.5t12 58t4.5 35.5q0 4 -1 12.5t-8 8.5q-8 0 -18 -19t-20.5 -48.5t-20.5 -64.5t-18 -67.5t-12.5 -58t-4.5 -35.5q0 -4 1 -12.5t8 -8.5zM801 438q63 0 92.5 -38t29.5 -98
q0 -50 -17 -105t-48.5 -101.5t-76.5 -77t-102 -30.5q-63 0 -93 37t-30 97q0 50 17 105.5t49 102.5t77 77.5t102 30.5zM697 56q9 0 19 19t20.5 48.5t20.5 64.5t17.5 67.5t12 58t4.5 35.5q0 4 -1 12.5t-8 8.5q-8 0 -18 -19t-20.5 -48.5t-20.5 -64.5t-18 -67.5t-12.5 -58
t-4.5 -35.5q0 -4 1 -12.5t8 -8.5z" />
    <glyph glyph-name="bar" unicode="|" horiz-adv-x="322" 
d="M41 -241q-12 0 -19 7.5t-7 19.5q0 5 10 45.5t27 104.5t39 145t45 166.5t46 169t42 153t32.5 118t17.5 64.5q5 15 17 27.5t29 12.5h110q12 0 19 -8t7 -19q0 -5 -2 -13l-257 -954q-4 -15 -16.5 -27t-29.5 -12h-110z" />
    <glyph glyph-name="parenleft" unicode="(" horiz-adv-x="361" 
d="M537 792q4 0 10.5 -1.5t6.5 -7.5q0 -5 -3.5 -9t-6.5 -7q-39 -41 -74 -94.5t-64.5 -114t-53 -126.5t-40 -132t-25 -130t-8.5 -120q0 -39 5 -75.5t19 -72.5q2 -5 3 -9t1 -9q0 -9 -6 -13t-14 -4h-65q-5 0 -14.5 6.5t-19.5 15t-18.5 16.5t-12.5 12q-32 35 -42.5 83t-10.5 94
q0 80 20.5 177t59.5 191t95 173t126 123q3 2 13 7.5t20.5 11.5t20.5 10.5t13 4.5h65z" />
    <glyph glyph-name="parenright" unicode=")" horiz-adv-x="349" 
d="M13 -133q-3 0 -10 1t-7 7q0 5 3.5 9t6.5 7q59 62 108 150t84 185.5t54 197t19 184.5q0 39 -5 75.5t-19 73.5q-2 5 -3 9t-1 9q0 9 6 13t14 4h65q3 0 10 -4.5t14.5 -10.5t14.5 -11.5t10 -7.5q21 -18 34.5 -40t21 -47t10.5 -52t3 -53q0 -49 -9 -108t-25.5 -122t-40.5 -125.5
t-54.5 -118t-67 -101.5t-78.5 -74q-5 -3 -18 -11.5t-28 -17t-28.5 -15t-18.5 -6.5h-65z" />
    <glyph glyph-name="braceleft" unicode="{" horiz-adv-x="364" 
d="M116 330q3 11 14.5 17.5t25.5 15t28 23t21 41.5l23 85q12 46 31 88.5t46.5 77.5t64.5 61t85 40q16 5 34 8.5t35 3.5q27 0 27 -27q0 -23 -15 -38t-33 -25q-27 -15 -44 -45.5t-30 -69t-25.5 -80t-31.5 -78t-47 -63t-72 -35.5q38 -8 51.5 -34t13.5 -61q0 -29 -5.5 -57.5
t-12.5 -56.5t-12.5 -56t-5.5 -57q0 -22 6.5 -33t14 -18t14 -14t6.5 -20q0 -20 -14 -37t-35 -17q-11 0 -24 2.5t-24 5.5q-60 17 -87 58t-27 101q0 29 4.5 57t12.5 55q7 25 17 55t10 56q0 20 -6.5 28.5t-14.5 13t-14.5 8.5t-6.5 14q0 2 0.5 3.5t0.5 3.5h1z" />
    <glyph glyph-name="braceright" unicode="}" horiz-adv-x="354" 
d="M420 337q0 -14 -11.5 -21t-26.5 -16t-30 -23.5t-23 -43.5l-23 -85q-12 -46 -31.5 -88.5t-47 -77.5t-64.5 -61t-85 -40q-16 -5 -34 -8.5t-35 -3.5q-26 0 -26 26q0 24 14 38.5t34 25.5q28 15 44.5 45.5t29.5 69t25.5 80t31 78t46.5 63t72 35.5q-36 8 -50.5 33.5t-14.5 60.5
q0 29 6 57.5t12.5 57t12.5 56.5t6 57q0 22 -6.5 33t-14.5 18t-14.5 14t-6.5 20q0 20 14.5 37t34.5 17q11 0 24 -2.5t24 -5.5q60 -17 87.5 -58.5t27.5 -101.5q0 -50 -13.5 -99t-26.5 -97q-2 -7 -3 -13.5t-1 -13.5q0 -19 6.5 -27.5t14.5 -13t14.5 -8.5t6.5 -14z" />
    <glyph glyph-name="bracketleft" unicode="[" horiz-adv-x="314" 
d="M47 -132q-12 0 -19 8t-7 19q0 5 2 13l228 844q5 15 17 27.5t29 12.5h166q12 0 19.5 -8t7.5 -20q0 -9 -4 -19t-10.5 -18.5t-15.5 -13.5t-19 -5h-21l-205 -756q17 0 32 -2.5t15 -24.5q0 -20 -14 -38.5t-35 -18.5h-166z" />
    <glyph glyph-name="bracketright" unicode="]" horiz-adv-x="281" 
d="M190 -132h-166q-12 0 -19 8t-7 19q0 17 5.5 28t15 17.5t22.5 9t27 2.5l205 756h-16.5t-15.5 2.5t-11.5 8t-4.5 17.5q0 9 4 19t10.5 18.5t15.5 13.5t19 5h166q12 0 19 -8t7 -19q0 -5 -2 -13l-228 -844q-5 -15 -17 -27.5t-29 -12.5z" />
    <glyph glyph-name="quoteleft" unicode="&#x2018;" horiz-adv-x="333" 
d="M497 816q0 -18 -9.5 -25.5t-24 -10.5t-32.5 -4.5t-34 -8t-28 -21t-16 -44.5q42 0 66.5 -23t24.5 -65q0 -32 -12 -65t-34 -60t-51 -44t-64 -17q-44 0 -62.5 29t-18.5 69q0 50 19 105.5t53.5 102t81.5 77t102 30.5q14 0 26.5 -2.5t12.5 -22.5z" />
    <glyph glyph-name="quoteright" unicode="&#x2019;" horiz-adv-x="333" 
d="M180 454q0 19 9.5 26t24 9.5t31.5 4t33 8t28.5 21.5t17.5 45q-42 0 -66.5 22.5t-24.5 64.5q0 32 12 65t33.5 60t51 44t64.5 17q44 0 62.5 -28.5t18.5 -68.5q0 -50 -19 -106t-53 -102.5t-81 -77t-103 -30.5q-14 0 -26.5 3.5t-12.5 22.5z" />
    <glyph glyph-name="quotedblleft" unicode="&#x201c;" horiz-adv-x="610" 
d="M508 816q0 -18 -9.5 -25.5t-24 -10.5t-32.5 -4.5t-34 -8t-28 -21t-16 -44.5q42 0 66.5 -23t24.5 -65q0 -32 -12 -65t-34 -60t-51 -44t-64 -17q-44 0 -62.5 29t-18.5 69q0 50 19 105.5t53.5 102t81.5 77t102 30.5q14 0 26.5 -2.5t12.5 -22.5zM763 816q0 -18 -9.5 -25.5
t-24 -10.5t-32.5 -4.5t-34 -8t-28 -21t-16 -44.5q42 0 66.5 -23t24.5 -65q0 -32 -12 -65t-34 -60t-51 -44t-64 -17q-44 0 -62.5 29t-18.5 69q0 50 19 105.5t53.5 102t81.5 77t102 30.5q14 0 26.5 -2.5t12.5 -22.5z" />
    <glyph glyph-name="quotedblright" unicode="&#x201d;" horiz-adv-x="612" 
d="M447 454q0 19 9.5 26t24 9.5t31.5 4t33 8t28.5 21.5t17.5 45q-42 0 -66.5 22.5t-24.5 64.5q0 32 12 65t33.5 60t51 44t64.5 17q44 0 62.5 -28.5t18.5 -68.5q0 -50 -19 -106t-53 -102.5t-81 -77t-103 -30.5q-14 0 -26.5 3.5t-12.5 22.5zM192 454q0 19 9.5 26t24 9.5
t31.5 4t33 8t28.5 21.5t17.5 45q-42 0 -66.5 22.5t-24.5 64.5q0 32 12 65t33.5 60t51 44t64.5 17q44 0 62.5 -28.5t18.5 -68.5q0 -50 -19 -106t-53 -102.5t-81 -77t-103 -30.5q-14 0 -26.5 3.5t-12.5 22.5z" />
    <glyph glyph-name="quotesinglbase" unicode="&#x201a;" horiz-adv-x="333" 
d="M20 -135q0 17 10.5 27t27.5 10q18 0 37 4t34 12.5t25 23t10 36.5q-42 0 -66 22.5t-24 64.5q0 32 12 65t33.5 60t51 44.5t63.5 17.5q44 0 62.5 -28.5t18.5 -68.5q0 -50 -19 -106t-53 -102.5t-81 -77t-103 -30.5q-15 0 -27 3t-12 23z" />
    <glyph glyph-name="quotedblbase" unicode="&#x201e;" horiz-adv-x="612" 
d="M287 -135q0 17 10.5 27t27.5 10q18 0 37 4t34 12.5t25 23t10 36.5q-42 0 -66 22.5t-24 64.5q0 32 12 65t33.5 60t51 44.5t63.5 17.5q44 0 62.5 -28.5t18.5 -68.5q0 -50 -19 -106t-53 -102.5t-81 -77t-103 -30.5q-15 0 -27 3t-12 23zM32 -135q0 17 10.5 27t27.5 10
q18 0 37 4t34 12.5t25 23t10 36.5q-42 0 -66 22.5t-24 64.5q0 32 12 65t33.5 60t51 44.5t63.5 17.5q44 0 62.5 -28.5t18.5 -68.5q0 -50 -19 -106t-53 -102.5t-81 -77t-103 -30.5q-15 0 -27 3t-12 23z" />
    <glyph glyph-name="bullet" unicode="&#x2022;" horiz-adv-x="438" 
d="M383 605q60 0 90.5 -37t30.5 -94q0 -45 -17.5 -92t-48 -85.5t-72 -63t-90.5 -24.5q-60 0 -90.5 37t-30.5 94q0 45 17.5 92t48 85.5t72 63t90.5 24.5z" />
    <glyph glyph-name="ampersand" unicode="&#x26;" horiz-adv-x="719" 
d="M697 548q6 0 12 -3q58 -30 58 -97q0 -32 -10.5 -65.5t-27 -65.5t-36.5 -62t-39 -55q18 -7 34.5 -9.5t34.5 -5.5q12 -2 20 -7.5t8 -19.5q0 -8 -3 -16q-8 -28 -21.5 -59t-33 -57t-46 -43t-60.5 -17q-39 0 -62 24t-37 57q-48 -31 -101 -51t-110 -20q-39 0 -73 11t-59 32
t-39 52.5t-14 73.5q0 53 18 101t49.5 88t74.5 69t93 43q-26 20 -43 56.5t-17 75.5q0 53 23.5 93t61 67t84.5 40.5t94 13.5q28 0 58 -5.5t55 -19t41 -36.5t16 -57q0 -46 -24.5 -86.5t-62 -71t-83.5 -48.5t-88 -20q11 -40 32.5 -79t47.5 -70q34 38 62.5 80.5t51.5 87.5l25 53
q5 11 14 19.5t22 8.5zM441 454q11 10 22 23.5t20 28.5t15 31t6 31q0 11 -5 17.5t-16 6.5q-14 0 -23.5 -9.5t-15.5 -23t-8.5 -28.5t-2.5 -26q0 -13 2.5 -25.5t5.5 -25.5zM447 228q-3 13 -10.5 31t-17 35.5t-19.5 32t-18 20.5q-15 0 -27.5 -11.5t-21.5 -28t-13.5 -34.5
t-4.5 -31q0 -48 48 -48q23 0 44.5 10.5t39.5 23.5z" />
    <glyph glyph-name="underscore" unicode="_" horiz-adv-x="610" 
d="M100 -25h396q12 0 19 -8t7 -19q0 -21 -13 -40.5t-36 -19.5h-396q-12 0 -19 8t-7 19q0 21 13 40.5t36 19.5z" />
    <glyph glyph-name="endash" unicode="&#x2013;" horiz-adv-x="803" 
d="M176 246q-12 0 -19 8t-7 19q0 10 5 30.5t11 43t12.5 43t9.5 32.5q4 15 16.5 27.5t29.5 12.5h585q12 0 19 -8t7 -19q0 -10 -5 -30t-11 -42.5t-12.5 -43.5t-9.5 -33q-4 -15 -16.5 -27.5t-29.5 -12.5h-585z" />
    <glyph glyph-name="emdash" unicode="&#x2014;" horiz-adv-x="1148" 
d="M176 246q-12 0 -19 8t-7 19q0 10 5 30.5t11 43t12.5 43t9.5 32.5q4 15 16.5 27.5t29.5 12.5h930q12 0 19 -8t7 -19q0 -10 -5 -30t-11 -42.5t-12.5 -43.5t-9.5 -33q-4 -15 -16.5 -27.5t-29.5 -12.5h-930z" />
    <glyph glyph-name="logicalnot" unicode="&#xac;" horiz-adv-x="835" 
d="M96 273q0 10 5 30.5t11 43t12.5 43t9.5 32.5q4 15 16.5 27.5t29.5 12.5h671q12 0 19 -8t7 -19q0 -7 -4.5 -27.5t-12 -48t-16 -59t-16.5 -60.5t-14.5 -51.5t-9.5 -32.5q-4 -15 -11.5 -23.5t-17 -12t-21.5 -4t-26 -0.5q-12 0 -19 8t-7 19q0 10 3 23.5t7.5 28t8.5 28t7 23.5
h-606q-12 0 -19 8t-7 19z" />
    <glyph glyph-name="ellipsis" unicode="&#x2026;" horiz-adv-x="930" 
d="M252 252q41 0 61.5 -25.5t20.5 -63.5q0 -31 -11.5 -64t-32 -60t-49 -44t-63.5 -17q-41 0 -63.5 24.5t-22.5 64.5q0 32 12 65t33.5 59.5t51 43.5t63.5 17zM535 252q41 0 61.5 -25.5t20.5 -63.5q0 -31 -11.5 -64t-32 -60t-49 -44t-63.5 -17q-41 0 -63.5 24.5t-22.5 64.5
q0 32 12 65t33.5 59.5t51 43.5t63.5 17zM818 252q41 0 61.5 -25.5t20.5 -63.5q0 -31 -11.5 -64t-32 -60t-49 -44t-63.5 -17q-41 0 -63.5 24.5t-22.5 64.5q0 32 12 65t33.5 59.5t51 43.5t63.5 17z" />
    <glyph glyph-name="brokenbar" unicode="&#xa6;" horiz-adv-x="322" 
d="M320 384h-110q-12 0 -19 8t-7 19q0 7 6 31.5t15 59t19.5 73.5t20.5 74.5t18 63.5t11 39q4 15 16.5 27.5t29.5 12.5h110q12 0 19 -8t7 -19q0 -7 -6 -31.5t-15 -59t-19.5 -73.5t-20.5 -74.5t-18 -63.5t-11 -39q-4 -15 -16.5 -27.5t-29.5 -12.5zM151 167h110q12 0 19 -8
t7 -19q0 -6 -6 -31t-15 -59.5t-19.5 -74t-20.5 -75t-18 -63.5t-11 -39q-4 -15 -16.5 -27t-29.5 -12h-110q-12 0 -19 7.5t-7 19.5q0 4 2 12l88 329q4 15 16.5 27.5t29.5 12.5z" />
    <glyph glyph-name="minus" unicode="&#x2212;" horiz-adv-x="557" 
d="M175 246q-12 0 -19 8t-7 19q0 10 5 30.5t11 43t12.5 43t9.5 32.5q4 15 16.5 27.5t29.5 12.5h341q12 0 19 -8t7 -19q0 -10 -5 -30t-11 -42.5t-12.5 -43.5t-9.5 -33q-4 -15 -16.5 -27.5t-29.5 -12.5h-341z" />
    <glyph glyph-name="plusminus" unicode="&#xb1;" horiz-adv-x="529" 
d="M172 412q0 10 5 30.5t11.5 43t13 43.5t9.5 33q4 15 16.5 27t29.5 12h80l26 99q4 15 16.5 27t29.5 12h110q12 0 19 -7.5t7 -19.5q0 -9 -3.5 -24t-8 -31t-9 -31l-7.5 -25h81q12 0 19 -7.5t7 -19.5q0 -10 -5 -30t-11.5 -42.5t-13 -43.5t-9.5 -33q-5 -15 -17 -27.5t-29 -12.5
h-81l-26 -98q-4 -15 -16.5 -27.5t-29.5 -12.5h-110q-12 0 -19 8t-7 19q0 10 3.5 24.5t8 30.5t9 31l7.5 25h-80q-12 0 -19 8t-7 19zM94 0q-12 0 -19 8t-7 19q0 10 5 30.5t11 43t12.5 43t9.5 32.5q4 15 16.5 27.5t29.5 12.5h341q12 0 19 -8t7 -19q0 -10 -5 -30t-11 -42.5
t-12.5 -43.5t-9.5 -33q-4 -15 -16.5 -27.5t-29.5 -12.5h-341z" />
    <glyph glyph-name="multiply" unicode="&#xd7;" horiz-adv-x="513" 
d="M202 112q-9 0 -15 5.5t-11 13.5t-14 22t-18 29.5t-15.5 30.5t-6.5 25t3.5 19.5t11.5 16.5l88 79q-4 8 -12 20t-16 25.5t-13.5 27t-5.5 23.5t3.5 19.5t11.5 16.5l113 102q11 9 21 9q9 0 15 -5.5t11 -13.5l40 -71l89 81q11 9 21 9q9 0 15 -5.5t11 -13.5t13.5 -22
t17.5 -29.5t15.5 -30t6.5 -25.5q0 -22 -15 -36l-88 -80l12.5 -20t15 -25t13 -26t5.5 -24q0 -22 -15 -36l-113 -102q-11 -9 -21 -9q-9 0 -15 5.5t-11 13.5l-40 69l-87 -79q-11 -9 -21 -9z" />
    <glyph glyph-name="divide" unicode="&#xf7;" horiz-adv-x="479" 
d="M434 712q41 0 61 -24.5t20 -63.5q0 -31 -11 -64t-31.5 -60t-49 -44.5t-63.5 -17.5q-42 0 -64 25t-22 65q0 32 12 64.5t33.5 59t51 43.5t63.5 17zM149 294q-12 0 -19 8t-7 19q0 5 2 13q3 11 6 25t9 26t15.5 20.5t25.5 8.5h341q12 0 19 -8t7 -19q0 -5 -2 -13q-3 -11 -6 -25
t-9 -26t-15.5 -20.5t-25.5 -8.5h-341zM314 270q41 0 61.5 -25.5t20.5 -63.5q0 -31 -11.5 -64t-32 -60t-49 -44t-63.5 -17q-41 0 -63.5 24.5t-22.5 64.5q0 32 12 65t33.5 59.5t51 43.5t63.5 17z" />
    <glyph glyph-name="fraction" unicode="&#x2044;" horiz-adv-x="569" 
d="M632 792h102q7 0 13 -2.5t6 -10.5q0 -9 -7 -18l-537 -730q-10 -13 -25.5 -22t-32.5 -9h-102q-7 0 -13 2.5t-6 10.5q0 9 7 18l537 730q10 13 25.5 22t32.5 9z" />
    <glyph glyph-name="exclamdown" unicode="&#xa1;" horiz-adv-x="351" 
d="M257 301q-40 0 -67 24.5t-27 65.5q0 30 14 57t36.5 47.5t50.5 32.5t57 12q39 0 67 -23t28 -65q0 -29 -14 -56.5t-37 -48.5t-51 -33.5t-57 -12.5zM-2 -244q0 11 5 23q41 106 74 215t53 221q5 23 14 35.5t22.5 18.5t30.5 7t37 1t39 -4t34 -13.5t24.5 -25t9.5 -38.5
q0 -17 -5 -35l-58 -213q-11 -41 -29 -81t-44.5 -71.5t-62.5 -51.5t-84 -20q-9 0 -19.5 0.5t-19.5 3.5t-15 9.5t-6 18.5z" />
    <glyph glyph-name="questiondown" unicode="&#xbf;" horiz-adv-x="534" 
d="M382 300q-40 0 -66.5 24.5t-26.5 65.5q0 30 14 57t36.5 47.5t50.5 32.5t57 12q39 0 67 -23t28 -65q0 -29 -14.5 -56.5t-37 -48.5t-51 -33.5t-57.5 -12.5zM407 275q17 0 25.5 -13t8.5 -29q0 -24 -1 -48t-3 -48q-1 -17 -10 -29t-26 -14q-22 -3 -55.5 -9.5t-65 -19
t-54.5 -32.5t-23 -51q0 -15 7 -25.5t18 -17t24.5 -9.5t26.5 -3q29 0 55.5 10.5t48 22.5t37 22.5t22.5 10.5q9 0 14.5 -6.5t8.5 -15.5t3.5 -18.5t0.5 -16.5q0 -52 -23.5 -94t-61 -72t-85 -46.5t-95.5 -16.5q-42 0 -77 12t-61 35.5t-40.5 57t-14.5 76.5q0 70 26 124.5t70.5 92
t103 57.5t124.5 20v27t3 30.5t11.5 25t24.5 10.5h33z" />
    <glyph glyph-name="periodcentered" unicode="&#xb7;" horiz-adv-x="334" 
d="M314 534q41 0 61 -24.5t20 -63.5q0 -31 -11.5 -64t-31.5 -60t-48.5 -44.5t-63.5 -17.5q-42 0 -64.5 24.5t-22.5 65.5q0 32 12 64.5t34 59t51.5 43.5t63.5 17z" />
    <glyph glyph-name="onesuperior" unicode="&#xb9;" horiz-adv-x="286" 
d="M233 738q0 5 1 8q6 23 20.5 50.5t34.5 50.5t45 38.5t52 15.5q30 0 41.5 -20.5t11.5 -46.5t-8 -55l-78 -288q-9 -34 -30 -56t-59 -22q-23 0 -36 10t-13 34q0 25 9 52.5t20 57.5t20 60.5t9 61.5q0 20 -6 26t-13.5 7.5t-14 3t-6.5 12.5z" />
    <glyph glyph-name="twosuperior" unicode="&#xb2;" horiz-adv-x="419" 
d="M474 575q16 0 21.5 -16.5t5.5 -28.5q0 -31 -12 -53.5t-31.5 -37.5t-45 -22t-53.5 -7q-32 0 -62.5 4t-62.5 4h-7l-15 -2h-8q-11 0 -18 4t-7 16q0 6 2 14q15 45 40.5 77.5t54.5 58t59.5 45t54.5 38.5t39.5 39.5t15.5 47.5q0 11 -5 19.5t-18 8.5q-21 0 -37 -17.5t-30.5 -39
t-27.5 -39t-28 -17.5q-9 0 -15.5 7t-10 17t-5 20t-1.5 17q0 37 15.5 67.5t41 53t58.5 35t68 12.5q48 0 77 -25.5t29 -75.5q0 -27 -8 -54q-11 -38 -28 -63.5t-37.5 -44t-44.5 -32.5t-48.5 -28.5t-48.5 -31.5t-45 -42q32 0 59.5 11.5t50 25t40 24.5t28.5 11z" />
    <glyph glyph-name="threesuperior" unicode="&#xb3;" horiz-adv-x="398" 
d="M271 606q12 0 18.5 -10t12.5 -22t14.5 -22t23.5 -10q11 0 20.5 5.5t16 14.5t10 20t3.5 21q0 17 -10 26.5t-22 16.5t-22 13t-10 16q0 13 13 22t28 19t28 21.5t13 28.5q0 13 -14 13q-16 0 -29 -11.5t-25 -25t-22.5 -25t-21.5 -11.5q-8 0 -12.5 5t-7 12t-3.5 14.5t-1 13.5
q0 34 14.5 61.5t37.5 47t53.5 30t61.5 10.5q17 0 34 -4t31 -12.5t22.5 -22t8.5 -33.5q0 -21 -8.5 -41.5t-22.5 -38.5t-32 -32t-37 -22q34 -10 54 -34.5t20 -60.5q0 -39 -18 -73.5t-47.5 -60t-66 -40.5t-74.5 -15q-19 0 -38 4.5t-34 14t-24.5 25t-9.5 37.5q0 32 16.5 61
t42.5 48q8 6 15 6z" />
    <glyph glyph-name="onequarter" unicode="&#xbc;" horiz-adv-x="779" 
d="M234 698q0 4 2 10q16 50 57.5 78t93.5 28q32 0 56.5 -14.5t24.5 -49.5q0 -16 -4 -28l-59 -214q-9 -32 -34.5 -45t-56.5 -13q-11 0 -23.5 2t-23.5 7.5t-18 14.5t-7 22q0 11 6.5 28.5t15 37.5t15 41t6.5 40q0 22 -8 28.5t-17.5 8.5t-17.5 4t-8 14zM720 792h102q7 0 13 -2.5
t6 -10.5q0 -9 -7 -18l-537 -730q-10 -13 -25.5 -22t-32.5 -9h-102q-7 0 -13 2.5t-6 10.5q0 9 7 18l537 730q10 13 25.5 22t32.5 9zM760 109q0 -8 -5.5 -13t-12.5 -9.5t-13.5 -9.5t-9.5 -13q-7 -21 -13.5 -37.5t-16.5 -27.5t-25 -17t-40 -6q-23 0 -39.5 6.5t-16.5 33.5
q0 11 2 21t5 21q-37 -6 -75 -6q-10 0 -22.5 1t-24 5t-19.5 12t-8 21q0 9 5.5 23t13 28t16 27.5t13.5 20.5q17 25 43 53.5t56.5 53t64 41t66.5 16.5q14 0 29 -4t27 -12t20 -20t8 -29q0 -15 -12 -24t-26 -11q-64 -6 -112.5 -39.5t-89.5 -81.5h11q9 0 18.5 1t18.5 3
q12 32 37 52.5t60 20.5q19 0 36.5 -5t17.5 -28q0 -8 -2 -15.5t-4 -15.5q14 -2 16.5 -14t2.5 -23z" />
    <glyph glyph-name="onehalf" unicode="&#xbd;" horiz-adv-x="812" 
d="M235 698q0 4 2 10q16 50 57.5 78t93.5 28q32 0 56.5 -14.5t24.5 -49.5q0 -16 -4 -28l-59 -214q-9 -32 -34.5 -45t-56.5 -13q-11 0 -23.5 2t-23.5 7.5t-18 14.5t-7 22q0 11 6.5 28.5t15 37.5t15 41t6.5 40q0 22 -8 28.5t-17.5 8.5t-17.5 4t-8 14zM721 792h102q7 0 13 -2.5
t6 -10.5q0 -9 -7 -18l-537 -730q-10 -13 -25.5 -22t-32.5 -9h-102q-7 0 -13 2.5t-6 10.5q0 9 7 18l537 730q10 13 25.5 22t32.5 9zM756 127q17 0 23 -15t6 -29q0 -28 -13 -46.5t-33.5 -29.5t-45 -15.5t-47.5 -4.5q-30 0 -59.5 2.5t-59.5 2.5q-8 0 -16 -1t-16 -1
q-11 0 -19 5.5t-8 17.5q0 7 3 13q14 36 36 61.5t47 43t50 30t45.5 22.5t33 20.5t12.5 24.5q0 9 -6 12.5t-14 3.5q-16 0 -29 -9.5t-24.5 -21t-23.5 -21t-26 -9.5q-19 0 -27 18t-8 33q0 31 17 53.5t42.5 37.5t55.5 22t56 7q20 0 40.5 -4t36.5 -14t26 -25.5t10 -39.5
q0 -33 -12.5 -57t-33.5 -42t-47 -31.5t-52.5 -26.5t-51.5 -26.5t-43 -32.5q29 0 55 11.5t48.5 25t41 24.5t30.5 11z" />
    <glyph glyph-name="threequarters" unicode="&#xbe;" horiz-adv-x="839" 
d="M246 582q9 0 17.5 -4.5t16.5 -10t17.5 -10t21.5 -4.5q7 0 16.5 2t18 6t14.5 11t6 16q0 11 -11 17t-24.5 10.5t-24.5 9t-11 12.5q0 9 10.5 15t23.5 11.5t23.5 13t10.5 19.5q0 4 -4 5.5t-7 1.5q-13 0 -25 -7t-23 -15t-21.5 -15t-22.5 -7q-17 0 -22.5 14t-5.5 28q0 29 19 49
t46 32t57.5 17t52.5 5q14 0 30.5 -2.5t30.5 -8.5t23.5 -17.5t9.5 -29.5q0 -19 -8 -35t-21.5 -28.5t-30.5 -21t-34 -11.5q32 -6 57 -25t25 -54q0 -34 -21 -59.5t-52 -41.5t-66.5 -24t-63.5 -8q-15 0 -34.5 3t-36.5 10.5t-28.5 20t-11.5 32.5q0 11 5.5 24.5t14.5 25.5t20.5 20
t22.5 8zM781 792h102q7 0 13 -2.5t6 -10.5q0 -9 -7 -18l-537 -730q-10 -13 -25.5 -22t-32.5 -9h-102q-7 0 -13 2.5t-6 10.5q0 9 7 18l537 730q10 13 25.5 22t32.5 9zM821 109q0 -8 -5.5 -13t-12.5 -9.5t-13.5 -9.5t-9.5 -13q-7 -21 -13.5 -37.5t-16.5 -27.5t-25 -17t-40 -6
q-23 0 -39.5 6.5t-16.5 33.5q0 11 2 21t5 21q-37 -6 -75 -6q-10 0 -22.5 1t-24 5t-19.5 12t-8 21q0 9 5.5 23t13 28t16 27.5t13.5 20.5q17 25 43 53.5t56.5 53t64 41t66.5 16.5q14 0 29 -4t27 -12t20 -20t8 -29q0 -15 -12 -24t-26 -11q-64 -6 -112.5 -39.5t-89.5 -81.5h11
q9 0 18.5 1t18.5 3q12 32 37 52.5t60 20.5q19 0 36.5 -5t17.5 -28q0 -8 -2 -15.5t-4 -15.5q14 -2 16.5 -14t2.5 -23z" />
    <glyph glyph-name="perthousand" unicode="&#x2030;" horiz-adv-x="1261" 
d="M444 804q63 0 92.5 -38t29.5 -98q0 -50 -17 -105t-48.5 -101.5t-76.5 -77t-102 -30.5q-63 0 -93 37t-30 97q0 50 17 105.5t49 102.5t77 77.5t102 30.5zM805 792h102q7 0 13 -2.5t6 -10.5q0 -9 -7 -18l-537 -730q-10 -13 -25.5 -22t-32.5 -9h-102q-7 0 -13 2.5t-6 10.5
q0 9 7 18l537 730q10 13 25.5 22t32.5 9zM340 422q9 0 19 19t20.5 48.5t20.5 64.5t17.5 67.5t12 58t4.5 35.5q0 4 -1 12.5t-8 8.5q-8 0 -18 -19t-20.5 -48.5t-20.5 -64.5t-18 -67.5t-12.5 -58t-4.5 -35.5q0 -4 1 -12.5t8 -8.5zM809 438q63 0 92.5 -38t29.5 -98
q0 -50 -17 -105t-48.5 -101.5t-76.5 -77t-102 -30.5q-63 0 -93 37t-30 97q0 50 17 105.5t49 102.5t77 77.5t102 30.5zM1178 438q63 0 92.5 -38t29.5 -98q0 -50 -17 -105t-48.5 -101.5t-76.5 -77t-102 -30.5q-63 0 -93 37t-30 97q0 50 17 105.5t49 102.5t77 77.5t102 30.5z
M705 56q9 0 19 19t20.5 48.5t20.5 64.5t17.5 67.5t12 58t4.5 35.5q0 4 -1 12.5t-8 8.5q-8 0 -18 -19t-20.5 -48.5t-20.5 -64.5t-18 -67.5t-12.5 -58t-4.5 -35.5q0 -4 1 -12.5t8 -8.5zM1074 56q9 0 19 19t20.5 48.5t20.5 64.5t17.5 67.5t12 58t4.5 35.5q0 4 -1 12.5t-8 8.5
q-8 0 -18 -19t-20.5 -48.5t-20.5 -64.5t-18 -67.5t-12.5 -58t-4.5 -35.5q0 -4 1 -12.5t8 -8.5z" />
    <glyph glyph-name="dotlessi" unicode="&#x131;" horiz-adv-x="275" 
d="M408 276q10 0 15.5 -8t5.5 -16q0 -4 -2 -12q-15 -43 -37 -89.5t-53.5 -85.5t-72.5 -64t-93 -25q-60 0 -87 32.5t-27 89.5q0 26 4.5 51.5t11.5 50.5l57 212q16 58 61.5 87t103.5 29q10 0 23 -0.5t24.5 -4t19.5 -11t8 -21.5q0 -5 -1 -10.5t-3 -10.5q-10 -28 -23 -70
t-25 -87t-20 -87t-8 -70q0 -3 1 -14.5t8 -11.5q9 0 19.5 15.5t20.5 36t18 40t11 26.5q12 28 40 28z" />
    <glyph glyph-name="florin" unicode="&#x192;" horiz-adv-x="656" 
d="M58 14q13 0 21.5 -8t8.5 -21q0 -11 -4 -20t-4 -20q0 -9 4 -16.5t14 -7.5q8 0 16 5.5t14.5 13t11.5 16.5t8 15l155 318h-16.5t-15 2.5t-10.5 8t-4 16.5q0 22 7.5 33.5t19.5 17t28 6.5t32 1q27 55 54 115.5t64 111.5t87.5 84t124.5 33q14 0 35.5 -1.5t41.5 -7.5t34 -17
t14 -31q0 -15 -7 -31t-12 -30q-7 -18 -20.5 -23t-30.5 -5q-26 0 -50 -23.5t-43.5 -55.5t-35 -65.5t-24.5 -53.5q16 0 30 -2.5t14 -23.5q0 -22 -7.5 -34t-19.5 -17.5t-27.5 -6.5t-32.5 -1l-184 -362q-17 -33 -38.5 -63.5t-48.5 -54t-60 -37.5t-73 -14q-57 0 -96 30t-39 91
q0 12 4 35t12 45t20 38.5t28 16.5z" />
    <glyph glyph-name="trademark" unicode="&#x2122;" horiz-adv-x="993" 
d="M582 341q0 12 6 21.5t14 17.5q33 33 55.5 78.5t38.5 95.5t27 100.5t22 95.5q11 44 52 44q44 0 62.5 -21t18.5 -63v-12t-1 -12l-2 -15q-1 -6 -1 -12v-12q0 -9 3 -19.5t15 -10.5q14 0 24 13.5t19.5 33.5t19.5 43t23 43t30 33.5t41 13.5q11 0 22 -2t20 -7.5t14.5 -14
t5.5 -21.5q0 -5 -1 -10t-3 -10q-15 -40 -31 -82.5t-29.5 -85t-22.5 -86t-11 -87.5q-1 -15 -3 -35.5t-16 -30.5q-13 -10 -31 -17t-35 -7q-15 0 -24.5 6.5t-15 16.5t-7.5 22.5t-2 24.5q0 32 8.5 67t18.5 65q-4 -6 -13 -17t-18.5 -22t-19.5 -19t-18 -8q-7 0 -12 8t-8.5 19
t-5 22t-2.5 16q-8 -27 -22 -62t-34.5 -65.5t-48 -51.5t-62.5 -21q-8 0 -18.5 2.5t-19.5 7t-15.5 12t-6.5 17.5zM721 748q0 -35 -24.5 -60.5t-59.5 -25.5q-21 0 -40 9.5t-36 20.5q-9 -37 -18 -73.5t-19 -73.5q-9 -32 -20 -74t-29 -79.5t-46.5 -63.5t-71.5 -26q-8 0 -20 2
t-23 7t-18.5 12.5t-7.5 18.5q0 15 10 25.5t19 21.5q21 25 39 66t34 86.5t28 90.5t21 78q-23 -2 -41.5 -18.5t-24.5 -38.5q-3 -10 -2 -19.5t1 -19.5q0 -8 -1.5 -23t-6.5 -22q-15 -17 -38.5 -31t-46.5 -14q-31 0 -46 20.5t-15 49.5q0 52 27.5 89.5t69 61.5t90.5 35.5t93 11.5
q42 0 82 -8t82 -8h7l13 2q16 0 27.5 -5.5t11.5 -24.5z" />
    <glyph glyph-name="registered" unicode="&#xae;" horiz-adv-x="792" 
d="M393 -12q-61 0 -107.5 20.5t-78 56.5t-48 85.5t-16.5 107.5q0 62 16.5 126.5t46.5 125t72.5 114t95 93.5t113 63.5t127.5 23.5q61 0 107.5 -20.5t78 -56.5t47.5 -85.5t16 -107.5q0 -62 -16.5 -126.5t-46 -125t-72 -114t-95 -93.5t-113 -63.5t-127.5 -23.5zM407 42
q59 0 111.5 20t98 55t82 81.5t62.5 99.5t40 109t14 110q0 51 -14 93.5t-41 73.5t-67.5 48.5t-93.5 17.5q-58 0 -111 -20t-98.5 -55t-82 -81.5t-62.5 -99.5t-40 -109t-14 -110q0 -51 14 -93.5t41 -73.5t67.5 -48.5t93.5 -17.5zM399 594q-10 0 -16.5 5.5t-6.5 15.5
q0 23 16 37.5t38.5 23t47 12t41.5 3.5q35 0 73.5 -6t70.5 -22.5t53 -44t21 -71.5q0 -35 -13 -70t-36.5 -63.5t-54.5 -47.5t-67 -24q12 -35 40 -58.5t66 -23.5q8 0 16 -3t8 -14q0 -5 -4 -15q-8 -17 -20 -34.5t-27 -31.5t-33 -23t-39 -9q-25 0 -41.5 14t-26 34t-13 44t-3.5 43
q0 38 7 70q-9 -31 -22.5 -66.5t-33.5 -66t-48 -51t-67 -20.5q-10 0 -23.5 2.5t-26 8.5t-21.5 15t-9 21q0 19 11.5 29t22.5 22q23 28 44.5 75.5t39.5 100.5t32.5 105t24.5 89q-5 -2 -10 -3.5t-11 -1.5zM514 366q23 3 41 16.5t30.5 32.5t19 41.5t6.5 43.5q0 11 -2.5 22.5
t-8 21.5t-14 16.5t-21.5 7.5q-7 -52 -22 -101.5t-29 -100.5z" />
    <glyph glyph-name="copyright" unicode="&#xa9;" horiz-adv-x="792" 
d="M393 -12q-61 0 -107.5 20.5t-78 56.5t-48 85.5t-16.5 107.5q0 62 16.5 126.5t46.5 125t72.5 114t95 93.5t113 63.5t127.5 23.5q61 0 107.5 -20.5t78 -56.5t47.5 -85.5t16 -107.5q0 -62 -16.5 -126.5t-46 -125t-72 -114t-95 -93.5t-113 -63.5t-127.5 -23.5zM407 42
q59 0 111.5 20t98 55t82 81.5t62.5 99.5t40 109t14 110q0 51 -14 93.5t-41 73.5t-67.5 48.5t-93.5 17.5q-58 0 -111 -20t-98.5 -55t-82 -81.5t-62.5 -99.5t-40 -109t-14 -110q0 -51 14 -93.5t41 -73.5t67.5 -48.5t93.5 -17.5zM614 310q11 0 20.5 -5.5t16 -14t10.5 -19
t4 -20.5q0 -42 -29 -74t-70.5 -53t-87.5 -31.5t-80 -10.5q-40 0 -69.5 12t-49 34.5t-29 54t-9.5 69.5q0 50 12 103.5t34.5 105t55 97.5t74 80.5t90.5 55t104 20.5q30 0 58.5 -7t51 -22.5t36 -39.5t13.5 -58q0 -27 -10 -57t-28.5 -55.5t-43.5 -42.5t-55 -17q-24 0 -34.5 7
t-14.5 18.5t-3 26.5t1 31q0 8 -1.5 17.5t-5 17.5t-10 13.5t-16.5 5.5q-18 0 -33.5 -15.5t-29 -39.5t-24 -53.5t-18 -58.5t-11.5 -53.5t-4 -38.5q0 -10 1.5 -22t6 -22.5t12 -17.5t20.5 -7q23 0 41.5 13.5t35.5 29.5t33.5 29.5t34.5 13.5z" />
    <glyph glyph-name="currency" unicode="&#xa4;" horiz-adv-x="572" 
d="M186 111q-9 0 -19.5 10.5t-18.5 25t-13.5 28.5t-5.5 21q0 14 7 25t16.5 21t20.5 18.5t20 15.5v5l-1 9q0 45 13 87.5t37 80.5q-8 14 -17 28.5t-9 31.5q0 22 15 35q6 5 17 16.5t24 23.5t26 21t21 9q9 0 16 -6t12 -14.5t9.5 -17.5l7.5 -15q38 18 81 18q19 0 37 -4t35 -14
l13.5 13.5t18 17.5t19.5 15.5t18 6.5q9 0 15 -5t11 -13q9 -15 20 -31.5t11 -35.5q0 -13 -7 -24.5t-17 -21t-21 -18t-19 -16.5v-4l1 -9q0 -45 -13.5 -88t-36.5 -81q8 -14 17 -28.5t9 -30.5q0 -22 -15 -36q-6 -5 -17 -16.5t-24 -23.5t-25.5 -21t-21.5 -9t-15.5 6t-12 14.5
t-10 17.5l-7.5 15q-20 -8 -40.5 -13t-41.5 -5q-18 0 -37 3.5t-34 14.5q-5 -4 -13 -13t-18 -18t-20 -15.5t-18 -6.5zM366 296q18 0 33 9t26 23.5t17 32t6 33.5q0 20 -11.5 32t-31.5 12q-18 0 -33 -8.5t-26 -22.5t-17 -30.5t-6 -33.5q0 -21 10.5 -34t32.5 -13z" />
    <glyph glyph-name="cent" unicode="&#xa2;" horiz-adv-x="422" 
d="M459 282q14 0 18.5 -13.5t4.5 -24.5q0 -24 -17.5 -44.5t-42.5 -36t-53 -25.5t-48 -14l-22 -84q-4 -15 -16.5 -27.5t-29.5 -12.5h-83q-12 0 -19 8t-7 19q0 10 3.5 24.5t8 30.5t9 31l7.5 25q-40 21 -55 60t-15 82q0 52 14 109t41 109t66 94t89 63l26 97q4 15 16.5 27.5
t29.5 12.5h83q12 0 19 -8t7 -19q0 -20 -9 -46.5t-14 -46.5q40 -8 68.5 -33.5t28.5 -69.5q0 -24 -8.5 -47.5t-23 -43.5t-34 -35t-42.5 -23q-3 -1 -8 -1q-13 0 -16.5 11.5t-4.5 25.5t-3.5 25.5t-14.5 11.5q-16 0 -30 -20t-24.5 -46.5t-16 -53t-5.5 -39.5q0 -27 12.5 -49
t43.5 -22q22 0 40 9.5t27 9.5z" />
    <glyph glyph-name="sterling" unicode="&#xa3;" horiz-adv-x="739" 
d="M148 324q0 31 12.5 45.5t32 19t43 3t45.5 -1.5v66q0 75 17.5 139t55 110.5t96.5 72.5t141 26q32 0 66.5 -6t63 -21t47 -40.5t18.5 -64.5q0 -28 -11 -60t-30.5 -58.5t-46 -44t-58.5 -17.5q-12 0 -26 4.5t-26 12.5t-20 19.5t-8 24.5q0 17 11.5 30.5t26 29.5t26 36.5
t11.5 51.5q0 18 -9 29.5t-28 11.5q-17 0 -30 -8.5t-23 -22t-16 -29t-10 -29.5q-7 -26 -9.5 -53t-4.5 -54t-4.5 -54t-9.5 -53q-3 -13 -7 -25t-9 -24h65q12 0 19 -8t7 -19q0 -31 -13.5 -45.5t-34 -18.5t-45 -2.5t-46.5 1.5q-22 -32 -47.5 -62t-56.5 -54q28 -8 56.5 -15
t57.5 -7q75 0 137 37t110 91q5 5 10 9.5t12 4.5q10 0 16.5 -12t10.5 -27.5t5.5 -31t1.5 -22.5q0 -52 -21 -95t-56 -74t-81 -47.5t-96 -16.5q-42 0 -75.5 11t-63.5 24t-58.5 24t-60.5 11q-28 0 -52 -10t-42 -22t-30.5 -22t-18.5 -10t-9.5 5.5t-5 13.5t-1.5 16v12
q0 18 7.5 33.5t22.5 25.5q38 24 64 44.5t44.5 43t33 51.5t29.5 71h-96q-12 0 -19 7.5t-7 18.5z" />
    <glyph glyph-name="yen" unicode="&#xa5;" horiz-adv-x="731" 
d="M371 215q0 23 6.5 35.5t18 18.5t27 7.5t33.5 1.5q5 16 10 31.5t11 31.5q-18 -12 -38.5 -24.5t-43 -22t-45 -16t-45.5 -6.5q-37 0 -60 20t-35.5 49.5t-16.5 63.5t-4 62q0 65 11.5 132t31.5 129q5 16 17 29t29 17q36 8 77.5 12t78.5 4q11 0 17.5 -6t6.5 -17q0 -8 -3 -16
q-19 -60 -31.5 -119t-12.5 -122q0 -12 1.5 -32t6.5 -38.5t16 -32t29 -13.5q20 0 36 10q34 89 71.5 176t81.5 172q12 23 28 30.5t41 7.5q32 0 67 -2.5t66 -11.5q9 -3 14.5 -8t5.5 -15q0 -5 -2 -10l-4 -10q-60 -112 -111.5 -223.5t-94.5 -231.5h16.5t15 -2t11 -7.5t4.5 -16.5
q0 -22 -13 -43t-37 -21h-27l-10 -34q9 0 18.5 0.5t17.5 -1.5t13 -8t5 -18q0 -22 -14 -42.5t-37 -20.5h-28q-13 -44 -31 -85.5t-44.5 -74t-64 -52.5t-89.5 -20q-41 0 -79 15t-59 53q-5 8 -5 15q0 11 8 14.5t16 5.5q53 10 87 45t53 84q-8 0 -17.5 -0.5t-17.5 1.5t-13 7.5
t-5 17.5q0 11 3.5 22t10.5 20.5t16 15.5t21 6h30l10 34q-9 0 -19 -0.5t-18.5 1.5t-14 7.5t-5.5 18.5z" />
    <glyph glyph-name="degree" unicode="&#xb0;" horiz-adv-x="428" 
d="M465 840q51 0 77 -32t26 -80q0 -38 -15 -78t-41 -72.5t-62 -53.5t-77 -21q-50 0 -76 31t-26 79q0 38 14.5 78.5t40.5 73.5t61.5 54t77.5 21zM382 656q0 -11 6.5 -19t18.5 -8q10 0 19 5t16 13.5t11 18.5t4 19q0 12 -6.5 20.5t-19.5 8.5q-21 0 -35 -19t-14 -39z" />
    <glyph glyph-name="ordfeminine" unicode="&#xaa;" horiz-adv-x="394" 
d="M496 527q0 -15 -9 -25t-22 -17t-27.5 -10t-26.5 -3q-30 0 -46.5 15.5t-16.5 46.5q-16 -24 -40 -43t-54 -19q-18 0 -29.5 8t-18.5 21t-9.5 28t-2.5 30q0 31 10.5 73t31 80t50 64.5t67.5 26.5q37 0 61 -27q15 14 35.5 21t41.5 7q17 0 27.5 -5.5t10.5 -25.5
q0 -14 -5.5 -27.5t-9.5 -27.5q-9 -35 -20.5 -74t-11.5 -74q0 -16 7 -24t7 -19zM388 730l-5 2q-13 0 -24.5 -19.5t-19.5 -45.5t-12.5 -50.5t-4.5 -35.5q0 -3 1 -11t6 -8q9 0 19.5 26t19 57.5t14.5 57.5t6 27z" />
    <glyph glyph-name="ordmasculine" unicode="&#xba;" horiz-adv-x="316" 
d="M376 804q48 0 74 -24.5t26 -73.5q0 -40 -13 -81.5t-37 -75.5t-59.5 -55t-80.5 -21q-98 0 -98 97q0 40 12.5 81.5t36.5 75.5t59 55.5t80 21.5zM311 565q10 0 20.5 22.5t19.5 51t14.5 56t5.5 36.5q0 5 -1.5 11t-7.5 6q-9 0 -20 -22.5t-20.5 -51t-15.5 -55.5t-6 -37
q0 -5 2 -11t9 -6z" />
    <glyph glyph-name="section" unicode="&#xa7;" horiz-adv-x="622" 
d="M191 81q14 0 18.5 -11t6.5 -22q2 -15 6 -34.5t11.5 -37t20 -30t32.5 -12.5q23 0 39.5 15.5t16.5 38.5q0 21 -15 38.5t-38 35.5t-49.5 38t-49.5 45t-38 57.5t-15 74.5q0 69 33.5 130.5t87.5 102.5q-13 27 -13 61q0 51 23.5 92.5t61 71.5t84.5 46.5t94 16.5q29 0 65 -7.5
t67.5 -23.5t53 -41.5t21.5 -61.5q0 -24 -9.5 -44t-24.5 -36t-34.5 -28t-39.5 -20q-6 -2 -9 -2q-14 0 -18.5 12t-6.5 23q-2 15 -6 34.5t-11.5 37t-20 29.5t-32.5 12q-24 0 -40 -16t-16 -40q0 -21 15 -38.5t38 -35.5t49.5 -37.5t49.5 -44.5t38 -57.5t15 -74.5
q0 -68 -33.5 -130t-87.5 -102q13 -32 13 -62q0 -51 -23.5 -92.5t-61 -71t-84 -45.5t-93.5 -16q-29 0 -65.5 7t-68 23t-53 41.5t-21.5 62.5q0 24 9.5 43.5t24.5 35.5t34.5 27.5t39.5 19.5q6 2 9 2zM314 434q-7 -10 -10.5 -22.5t-3.5 -24.5q0 -32 19.5 -60.5t47 -54t57 -48
t50.5 -42.5q7 11 11.5 23t4.5 26q0 32 -20 60t-47.5 53.5t-57.5 48t-51 41.5z" />
    <glyph glyph-name="asciitilde" unicode="~" horiz-adv-x="601" 
d="M204 285q-4 0 -4.5 3t-0.5 5q0 11 3.5 22.5t6.5 22.5q7 26 24 55.5t41 54t52.5 41t57.5 16.5q31 0 51.5 -15t37.5 -32.5t34.5 -32.5t42.5 -15q17 0 34.5 8.5t32 18.5t25.5 18.5t16 8.5q3 0 4 -3t1 -5q0 -13 -4.5 -27.5t-7.5 -26.5q-7 -26 -24 -54t-40.5 -51.5t-51.5 -39
t-57 -15.5q-30 0 -50.5 15t-38 32.5t-35.5 32.5t-44 15q-19 0 -36.5 -8t-32 -18t-24 -18t-13.5 -8z" />
    <glyph glyph-name="dagger" unicode="&#x2020;" horiz-adv-x="485" 
d="M159 -107q-12 0 -19 8t-7 19q0 7 9.5 46t24.5 95t33 120.5t34 123t28.5 103t16.5 58.5h-81q-12 0 -19 7.5t-7 18.5q0 10 5 30.5t11.5 43t13 43.5t9.5 33q5 15 17 27.5t29 12.5h81q3 11 6.5 29.5t10 36.5t18 31t29.5 13h110q12 0 19.5 -8t7.5 -20q0 -20 -8 -41.5
t-13 -40.5h80q12 0 19 -8t7 -19q0 -10 -5 -30.5t-11.5 -43t-13 -43.5t-9.5 -33q-5 -16 -17 -27.5t-29 -11.5h-80l-144 -533q-5 -15 -17 -27.5t-29 -12.5h-110z" />
    <glyph glyph-name="daggerdbl" unicode="&#x2021;" horiz-adv-x="485" 
d="M172 492q0 10 5 30.5t11.5 43t13 43.5t9.5 33q5 15 17 27.5t29 12.5h80q3 11 6.5 29.5t10 36.5t18 31t29.5 13h110q12 0 19.5 -8t7.5 -20q0 -20 -8 -41.5t-13 -40.5h81q12 0 19 -8t7 -19q0 -10 -5 -30.5t-11.5 -43t-13 -43.5t-9.5 -33q-5 -16 -17 -27.5t-29 -11.5h-81
l-67 -246h81q12 0 19 -8t7 -19q0 -10 -5 -30t-11 -43t-12.5 -44t-9.5 -33q-4 -16 -16.5 -27.5t-29.5 -11.5h-81q-3 -11 -6.5 -30t-10 -37t-18 -31t-30.5 -13h-110q-12 0 -19 8t-7 19q0 20 8 42t13 42h-80q-12 0 -19 7.5t-7 18.5t5 31t11 42.5t12.5 43.5t9.5 33
q4 15 16.5 27.5t29.5 12.5h80l67 246h-80q-12 0 -19 7.5t-7 18.5z" />
    <glyph glyph-name="guilsinglleft" unicode="&#x2039;" horiz-adv-x="374" 
d="M112 242q0 14 4 27t12 24l130 162q11 13 26.5 21.5t32.5 8.5h108q6 0 12.5 -2t6.5 -10q0 -5 -2.5 -9.5t-5.5 -8.5l-154 -192q3 -13 11.5 -41t17 -58.5t15 -57t6.5 -36.5q0 -12 -7.5 -20t-19.5 -8h-108q-17 0 -29 12.5t-16 27.5q-4 14 -10.5 36t-13 45.5t-11.5 45t-5 33.5
z" />
    <glyph glyph-name="guilsinglright" unicode="&#x203a;" horiz-adv-x="375" 
d="M406 283q0 -13 -4 -26t-12 -24l-130 -161q-10 -12 -26.5 -21t-32.5 -9h-108q-6 0 -12.5 2.5t-6.5 10.5q0 5 2.5 9t5.5 8l154 191q-3 13 -11.5 41t-17 59t-15 57.5t-6.5 36.5q0 12 7.5 20t19.5 8h108q17 0 29 -12.5t16 -27.5l38 -143q2 -5 2 -9.5v-9.5z" />
    <glyph glyph-name="guillemotleft" unicode="&#xab;" horiz-adv-x="633" 
d="M128 242q0 14 4 27t12 24l130 162q11 13 26.5 21.5t32.5 8.5h108q6 0 12.5 -2t6.5 -10q0 -5 -2.5 -9.5t-5.5 -8.5l-154 -192q3 -13 11.5 -41t17 -58.5t15 -57t6.5 -36.5q0 -12 -7.5 -20t-19.5 -8h-108q-17 0 -29 12.5t-16 27.5q-4 14 -10.5 36t-13 45.5t-11.5 45t-5 33.5
zM359 242q0 14 4 27t12 24l130 162q11 13 26.5 21.5t32.5 8.5h108q6 0 12.5 -2t6.5 -10q0 -5 -2.5 -9.5t-5.5 -8.5l-154 -192q3 -13 11.5 -41t17 -58.5t15 -57t6.5 -36.5q0 -12 -7.5 -20t-19.5 -8h-108q-17 0 -29 12.5t-16 27.5q-4 14 -10.5 36t-13 45.5t-11.5 45t-5 33.5z
" />
    <glyph glyph-name="guillemotright" unicode="&#xbb;" horiz-adv-x="633" 
d="M647 283q0 -13 -4 -26t-12 -24l-130 -161q-10 -12 -26.5 -21t-32.5 -9h-108q-6 0 -12.5 2.5t-6.5 10.5q0 5 2.5 9t5.5 8l154 191q-3 13 -11.5 41t-17 59t-15 57.5t-6.5 36.5q0 12 7.5 20t19.5 8h108q17 0 29 -12.5t16 -27.5l38 -143q2 -5 2 -9.5v-9.5zM416 283
q0 -13 -4 -26t-12 -24l-130 -161q-10 -12 -26.5 -21t-32.5 -9h-108q-6 0 -12.5 2.5t-6.5 10.5q0 5 2.5 9t5.5 8l154 191q-3 13 -11.5 41t-17 59t-15 57.5t-6.5 36.5q0 12 7.5 20t19.5 8h108q17 0 29 -12.5t16 -27.5l38 -143q2 -5 2 -9.5v-9.5z" />
    <glyph glyph-name="infinity" unicode="&#x221e;" horiz-adv-x="857" 
d="M668 203q-33 0 -58.5 11t-45 30t-35 44t-29.5 52q-21 -22 -46 -46t-53 -44t-59 -33.5t-63 -13.5q-29 0 -51 10.5t-36.5 28.5t-21.5 42t-7 51q0 50 19 99t53 87.5t79.5 62.5t97.5 24q33 0 59 -10.5t46.5 -28.5t37 -42.5t29.5 -52.5q20 22 44.5 45.5t52 43t57.5 32.5t62 13
q29 0 50.5 -10.5t35.5 -28.5t20.5 -42t6.5 -51q0 -49 -18.5 -98t-51.5 -88t-78 -63t-97 -24zM811 485q0 28 -15.5 46.5t-44.5 18.5q-22 0 -44 -10.5t-41.5 -26t-37 -33.5t-30.5 -34q7 -16 16 -33.5t21 -32t28 -24t36 -9.5q25 0 45.5 13.5t35.5 33.5t23 44.5t8 46.5zM486 367
q-7 17 -16.5 34t-21.5 31t-27.5 23t-36.5 9q-25 0 -46.5 -12t-37.5 -31t-24.5 -42.5t-8.5 -47.5q0 -30 15.5 -49.5t47.5 -19.5q22 0 44.5 10.5t42.5 26.5t38 34.5t31 33.5z" />
    <glyph glyph-name="greaterequal" unicode="&#x2265;" horiz-adv-x="500" 
d="M139 189q-7 0 -10 4.5t-3 10.5q0 10 4 27t9.5 36t10.5 36.5t8 27.5q5 17 16.5 32t27.5 21l196 77l-150 65q-12 5 -18 16t-6 24q0 11 3.5 27t9 33.5t10.5 34t8 27.5t10.5 19t19.5 8q7 0 13 -3l280 -142q11 -6 17 -17t6 -23q0 -11 -4.5 -29.5t-10 -39t-11.5 -39.5t-9 -31
q-5 -16 -17 -31.5t-27 -21.5q-9 -3 -40 -15.5t-72.5 -29t-87.5 -35t-85.5 -34t-66.5 -25.5t-31 -10zM467 156q12 0 19 -8t7 -19q0 -20 -8.5 -44.5t-13.5 -44.5q-4 -15 -16.5 -27.5t-29.5 -12.5h-321q-12 0 -19 8t-7 19q0 20 8.5 44.5t13.5 44.5q4 15 16.5 27.5t29.5 12.5
h321z" />
    <glyph glyph-name="lessequal" unicode="&#x2264;" horiz-adv-x="498" 
d="M458 190q-8 0 -14 3l-280 143q-11 6 -17 17t-6 23q0 11 4.5 29.5t10 39t11.5 39.5t9 31q5 16 17 31.5t27 21.5q9 4 40 16t72.5 28.5t87.5 34.5t85.5 33.5t66.5 25.5t30 10q14 0 14 -16q0 -9 -4 -25t-9 -33.5t-10 -34t-8 -27.5q-5 -16 -16.5 -31.5t-27.5 -20.5l-192 -67
l147 -75q23 -12 23 -40q0 -11 -4 -28t-9 -35.5t-10.5 -36t-8.5 -29.5q-3 -11 -10.5 -19t-18.5 -8zM114 156h321q12 0 19 -8t7 -19q0 -20 -8.5 -44.5t-13.5 -44.5q-4 -15 -16.5 -27.5t-29.5 -12.5h-321q-12 0 -19 8t-7 19q0 20 8.5 44.5t13.5 44.5q4 15 16.5 27.5t29.5 12.5z
" />
    <glyph glyph-name="notequal" unicode="&#x2260;" horiz-adv-x="562" 
d="M453 605q19 32 29 51t21.5 29t30 13t53.5 3q8 0 14.5 -3.5t6.5 -12.5q0 -6 -5.5 -17.5t-12.5 -23.5t-14 -23t-10 -16h77q12 0 19 -8t7 -19q0 -20 -7.5 -41t-12.5 -39q-5 -15 -17 -27.5t-29 -12.5h-124l-56 -97h154q12 0 19 -7.5t7 -19.5q0 -19 -7.5 -40.5t-12.5 -39.5
q-4 -15 -16.5 -27t-29.5 -12h-201q-21 -36 -31.5 -57.5t-22.5 -33t-31 -15t-56 -3.5q-8 0 -14 3.5t-6 12.5q0 7 6 20t14.5 27.5t16.5 27t11 18.5h-82q-12 0 -19 7.5t-7 19.5q0 19 7.5 40.5t12.5 39.5q4 15 16.5 27t29.5 12h129l56 97h-159q-12 0 -19 8t-7 19q0 20 7.5 41
t12.5 39q5 15 17 27.5t29 12.5h206z" />
    <glyph glyph-name="approxequal" unicode="&#x2248;" horiz-adv-x="552" 
d="M191 429q-5 0 -6 3.5t-1 6.5q0 8 2.5 15t4.5 14q8 27 24.5 53.5t38.5 48t49.5 35t57.5 13.5q31 0 52 -13t38.5 -28t35.5 -28t43 -13q18 0 35.5 7t31.5 15.5t24 15.5t14 7t5 -3t1 -6q0 -9 -3 -19t-5 -18q-7 -25 -24 -50.5t-40 -46.5t-50.5 -34t-54.5 -13q-30 0 -51.5 13
t-39.5 28t-36.5 28t-44.5 13q-18 0 -34.5 -7t-30 -15t-23 -15t-13.5 -7zM137 233q-4 0 -5 3t-1 6q0 29 16.5 60.5t42 58t57 43.5t61.5 17q31 0 52 -12.5t38.5 -28t35.5 -28t43 -12.5q17 0 33.5 7t30.5 15t24.5 15t14.5 7q5 0 6 -3.5t1 -6.5q0 -30 -16 -61.5t-41.5 -58
t-56.5 -43.5t-61 -17q-31 0 -52 13t-39.5 28.5t-37 28.5t-44.5 13q-17 0 -33.5 -7t-30.5 -15t-24 -15t-14 -7z" />
    <glyph glyph-name="ae" unicode="&#xe6;" horiz-adv-x="707" 
d="M825 271q11 0 19.5 -6.5t8.5 -18.5q0 -9 -5 -17q-25 -47 -59 -92.5t-76 -81t-92.5 -57.5t-107.5 -22q-59 0 -104 25.5t-64 83.5q-15 -19 -34 -38.5t-41.5 -35t-47 -25.5t-50.5 -10q-31 0 -52 14t-33.5 36t-17.5 49t-5 53q0 37 8 81.5t24 89t39.5 86t54.5 73.5t69 51.5
t83 19.5q39 0 73 -15.5t60 -44.5q39 31 84.5 45t94.5 14q26 0 52 -4.5t46.5 -16t33 -31.5t12.5 -52q0 -46 -17.5 -84t-47.5 -65t-69.5 -42.5t-83.5 -17.5q-1 -6 -1.5 -12.5t-0.5 -12.5q0 -28 13 -48.5t44 -20.5q27 0 50 13t42.5 32t36 42t29.5 42q6 9 13 15t19 6zM416 406
q-7 3 -15 3q-16 0 -30 -15t-25.5 -38t-21 -51.5t-15.5 -56t-9.5 -50.5t-3.5 -36v-9t1.5 -11.5t4 -10t7.5 -4.5q9 0 16.5 10t11.5 17v7q0 28 6.5 61t17 66t25 64t30.5 54zM593 268q14 5 29.5 13t29.5 19t23 25t9 30q0 9 -4 17t-15 8q-13 0 -24.5 -14t-21.5 -32.5t-16.5 -37.5
t-9.5 -28z" />
    <glyph glyph-name="OE" unicode="&#x152;" horiz-adv-x="995" 
d="M1105 777q20 0 26.5 -14t6.5 -31q0 -34 -11.5 -62t-31.5 -48t-48.5 -30.5t-62.5 -10.5q-45 0 -86 16.5t-77 40.5q-11 -39 -19.5 -78.5t-19.5 -78.5q31 14 65.5 24t69.5 10q18 0 36 -4.5t32.5 -13.5t23 -24t8.5 -36q0 -25 -10 -46.5t-26.5 -39t-38 -30t-43.5 -19.5
q-2 -1 -6 -1q-10 0 -15 6t-9.5 15.5t-10 21t-17 22.5t-31 19.5t-50.5 11.5q-9 -33 -18 -67t-18.5 -68t-21.5 -67t-28 -63q14 -4 28.5 -5.5t28.5 -1.5q59 0 112 23t96 62q5 5 11 9t14 4q11 0 18 -9t11.5 -22t6.5 -26t2 -21q0 -40 -20 -72t-51 -53.5t-69 -33t-74 -11.5
q-47 0 -90 17.5t-81 44.5q-63 -25 -133.5 -43t-138.5 -18q-120 0 -179.5 66.5t-59.5 183.5q0 45 7.5 89t19.5 87q28 101 71 174.5t104.5 121.5t143.5 71t188 23q96 0 190 -9.5t190 -9.5q21 0 42.5 2t42.5 2zM375 101q19 0 37.5 17t36 44t32.5 59.5t27.5 64t21 58t12.5 40.5
q12 45 20.5 91t8.5 93q0 10 -1 26.5t-5.5 32.5t-13 28t-23.5 12q-19 0 -37.5 -17t-36 -44t-33 -59.5t-28 -64t-21 -58t-12.5 -40.5q-12 -45 -20 -90.5t-8 -91.5q0 -10 1 -27t5.5 -33.5t13 -28.5t23.5 -12z" />
    <glyph glyph-name="oe" unicode="&#x153;" horiz-adv-x="810" 
d="M923 271q11 0 19.5 -6.5t8.5 -18.5q0 -9 -5 -17q-25 -47 -59.5 -92.5t-77 -81t-93 -57.5t-108.5 -22q-56 0 -100.5 24t-62.5 80q-42 -51 -96 -77.5t-120 -26.5q-80 0 -123 41t-43 122q0 29 4.5 57.5t12.5 55.5q15 55 40 105t62 88t85.5 60.5t110.5 22.5q53 0 95.5 -21
t61.5 -74q42 48 98 71.5t120 23.5q26 0 52 -4.5t46 -16.5t32.5 -32t12.5 -51q0 -46 -17.5 -84t-47.5 -65t-69.5 -42.5t-83.5 -17.5q-1 -6 -1.5 -12.5t-0.5 -12.5q0 -28 13 -48.5t44 -20.5q27 0 50 13t42.5 32t36 42t29.5 42q6 9 13 15t19 6zM270 130q15 0 27 19t21 44.5
t15 50.5t9 37q8 29 17.5 60t9.5 62q0 8 -3 19t-14 11q-15 0 -27.5 -22.5t-22.5 -51.5t-16.5 -58t-9.5 -41q-7 -26 -15 -51.5t-8 -51.5q0 -8 3 -17.5t14 -9.5zM691 268q14 5 29.5 13t29.5 19t23 25t9 30q0 9 -4 17t-15 8q-13 0 -24.5 -14t-21.5 -32.5t-16.5 -37.5t-9.5 -28z
" />
    <glyph glyph-name="AE" unicode="&#xc6;" horiz-adv-x="946" 
d="M1070 775q18 0 23.5 -14.5t5.5 -28.5q0 -34 -11.5 -62t-31.5 -48t-48.5 -30.5t-62.5 -10.5q-45 0 -86 16.5t-77 40.5q-11 -39 -19.5 -78.5t-19.5 -78.5q31 14 65.5 24t69.5 10q18 0 36 -4.5t32.5 -13.5t23 -24t8.5 -36q0 -25 -10 -46.5t-26.5 -38.5t-38 -30t-43.5 -20
q-2 -1 -6 -1q-10 0 -15 6t-9.5 15.5t-10 21t-17 22.5t-30.5 19.5t-51 11.5q-19 -66 -37 -134.5t-49 -130.5q14 -4 28.5 -5.5t28.5 -1.5q59 0 112 23t96 62q5 5 11 9t14 4q11 0 18 -9t11.5 -21.5t6.5 -26t2 -21.5q0 -40 -20 -72t-51 -53.5t-69 -33t-74 -11.5q-47 0 -90 17.5
t-81 44.5q-20 -25 -50 -44t-64 -19q-17 0 -32 6.5t-15 26.5q0 8 2.5 15t6.5 14q15 26 26.5 50t19.5 53q-27 -7 -57 -7q-13 0 -26 1t-26 6q-16 -28 -39.5 -57.5t-52 -53t-61.5 -38.5t-69 -15q-45 0 -75.5 25t-30.5 73q0 18 5 37.5t13 35.5t23 21.5t32 8.5q37 7 78.5 37.5
t82.5 74.5t81 97t74.5 105t62 98t43.5 77q-15 3 -30 3q-22 0 -45 -8.5t-41.5 -23t-30 -35t-11.5 -44.5q0 -14 4 -24t8.5 -18t8 -15.5t3.5 -17.5q0 -11 -9 -22q-13 -15 -29.5 -30t-36 -26.5t-40 -19t-41.5 -7.5q-23 0 -39 9t-26.5 23.5t-15 33.5t-4.5 39q0 61 22 107.5
t59.5 81t86 58t102 37.5t108 20t102.5 6q51 0 100.5 -3.5t100.5 -8.5q40 -5 79.5 -9.5t80.5 -4.5q21 0 40.5 4.5t33.5 4.5zM441 300q3 -1 6.5 -1h6.5q32 0 67 8q25 83 46.5 165.5t36.5 167.5q-39 -86 -76.5 -172.5t-86.5 -167.5z" />
    <glyph glyph-name="grave" unicode="`" horiz-adv-x="364" 
d="M251 759q0 18 10 31t25.5 22t33.5 13t33 4q35 0 60.5 -18t31.5 -53q3 -14 8 -39t10 -51.5t9 -50.5t4 -36q0 -13 -7.5 -22t-21.5 -9h-83q-26 0 -38.5 9.5t-20.5 33.5q-4 13 -13 36t-18 48t-16 47.5t-7 34.5z" />
    <glyph glyph-name="dieresis" unicode="&#xa8;" horiz-adv-x="476" 
d="M295 553q-31 0 -44 24t-13 51q0 23 9 51.5t25.5 53.5t39 42t48.5 17q15 0 25.5 -7t17 -18t9.5 -24.5t3 -26.5q0 -23 -9 -51.5t-24.5 -53t-37.5 -41.5t-49 -17zM481 553q-31 0 -44 24t-13 51q0 23 9 51.5t25.5 53.5t39 42t48.5 17q15 0 26 -7t17.5 -18t9.5 -24.5t3 -26.5
q0 -23 -9 -51.5t-24.5 -53t-38 -41.5t-49.5 -17z" />
    <glyph glyph-name="macron" unicode="&#xaf;" horiz-adv-x="405" 
d="M268 595q-12 0 -19 8t-7 19q0 18 7 38t12 37q5 15 17 27.5t29 12.5h191q12 0 19 -8t7 -19q0 -18 -7 -38t-12 -37q-5 -15 -17 -27.5t-29 -12.5h-191z" />
    <glyph glyph-name="acute" unicode="&#xb4;" horiz-adv-x="364" 
d="M215 550q-7 0 -13 2.5t-6 10.5q0 9 7 18l126 177q23 32 58 51.5t74 19.5q11 0 23 -2.5t22.5 -8.5t17.5 -15t7 -22q0 -22 -13 -36l-137 -152q-18 -20 -36 -31.5t-47 -11.5h-83z" />
    <glyph glyph-name="cedilla" unicode="&#xb8;" horiz-adv-x="330" 
d="M87 -22q0 11 7.5 20.5t18.5 9.5h56q12 0 19 -7.5t7 -18.5q0 -5 -1 -9t-2 -9q51 -32 51 -91q0 -33 -13 -62.5t-34.5 -51t-51 -34.5t-62.5 -13q-12 0 -29 3t-32.5 10t-26.5 17.5t-11 25.5q0 12 4.5 19.5t12.5 15.5q15 16 37.5 19.5t43 8t35.5 17t15 46.5q0 18 -7 29.5
t-15 20t-15 16t-7 18.5z" />
    <glyph glyph-name="circumflex" unicode="&#x2c6;" horiz-adv-x="541" 
d="M630 631q0 -18 -8.5 -30.5t-22 -21t-30 -12t-31.5 -3.5q-13 0 -27.5 3t-27 9.5t-20.5 17t-8 26.5q0 12 3 32t7 41.5t8.5 42.5t6.5 34l-55 -142q-6 -16 -19 -28t-29 -20t-34 -12t-34 -4q-10 0 -21.5 2t-21 7t-16 13.5t-6.5 20.5q0 19 14 35l120 134q16 18 33 28.5t42 10.5
h77q23 0 34 -9t19 -30q4 -12 12 -32t15.5 -41t13.5 -40.5t6 -31.5z" />
    <glyph glyph-name="caron" unicode="&#x2c7;" horiz-adv-x="539" 
d="M283 748q0 18 9 30.5t22.5 20.5t30 12t31.5 4q13 0 27.5 -3t26.5 -9.5t20 -17.5t8 -26q0 -13 -2.5 -32.5t-6.5 -41.5t-8 -42.5t-6 -34.5l53 143q6 16 19 28t29.5 20t34.5 12t34 4q10 0 21.5 -2t21 -7t15.5 -13.5t6 -20.5q0 -19 -14 -35l-120 -135q-16 -17 -33 -27.5
t-41 -10.5h-77q-22 0 -34 9t-20 29q-4 12 -12 32t-15.5 41.5t-13.5 41t-6 31.5z" />
    <glyph glyph-name="breve" unicode="&#x2d8;" horiz-adv-x="466" 
d="M555 811q21 0 30 -16t9 -34q0 -17 -6 -34q-12 -31 -32 -60.5t-46 -52.5t-57.5 -36.5t-67.5 -13.5q-57 0 -87 36t-30 91q0 43 17 75t61 44q2 1 7 1q16 0 18 -14.5t4.5 -31.5t12.5 -31.5t40 -14.5t47.5 14.5t29.5 31.5t22.5 31.5t27.5 14.5z" />
    <glyph glyph-name="dotaccent" unicode="&#x2d9;" horiz-adv-x="349" 
d="M325 553q-40 0 -67.5 23.5t-27.5 65.5q0 30 14 57t36.5 48t51 33t57.5 12q40 0 67 -23t27 -65q0 -30 -13.5 -57.5t-36 -48t-51 -33t-57.5 -12.5z" />
    <glyph glyph-name="ring" unicode="&#x2da;" horiz-adv-x="346" 
d="M403 848q43 0 65.5 -25.5t22.5 -67.5q0 -33 -12.5 -68t-34.5 -63t-52.5 -46t-66.5 -18q-44 0 -66 26t-22 68q0 33 12.5 67.5t34.5 62.5t52.5 46t66.5 18zM317 684q0 -32 32 -32q14 0 25.5 6.5t19.5 17t12.5 23t4.5 25.5q0 33 -33 33q-14 0 -25 -6.5t-19 -17t-12.5 -23.5
t-4.5 -26z" />
    <glyph glyph-name="ogonek" unicode="&#x2db;" horiz-adv-x="314" 
d="M225 7q2 0 9 -0.5t7 -4.5q0 -3 -15.5 -14t-34.5 -28t-34.5 -39.5t-15.5 -48.5q0 -23 11.5 -30.5t25 -12t25 -13t11.5 -32.5q0 -17 -14 -30.5t-33.5 -22.5t-40.5 -14t-35 -5q-42 0 -64.5 24t-22.5 65q0 33 15 69.5t40 66.5t58 50t68 20h40z" />
    <glyph glyph-name="hungarumlaut" unicode="&#x2dd;" horiz-adv-x="522" 
d="M228 550q-7 0 -13 2.5t-6 10.5q0 5 8.5 19.5t22 34t29.5 42t31 42.5t26.5 35.5t15.5 21.5q9 12 21 25t25.5 23t29 16.5t31.5 6.5q20 0 33.5 -12t13.5 -32q0 -22 -14 -41l-119 -151q-15 -19 -30.5 -31t-41.5 -12h-63zM410 550q-7 0 -13 2.5t-6 10.5q0 5 8.5 19.5t22 34
t29.5 42t31 42.5t26.5 35.5t15.5 21.5q9 12 21 25t25.5 23t29 16.5t31.5 6.5q20 0 33.5 -12t13.5 -32q0 -22 -14 -41l-119 -151q-15 -19 -30.5 -31t-41.5 -12h-63z" />
    <glyph glyph-name="Eth" unicode="&#xd0;" horiz-adv-x="856" 
d="M240 52q0 13 6 22t16 17q6 5 12 9t12 9q12 11 30 42t34.5 66t30 67.5t16.5 46.5q-10 2 -17.5 10.5t-2.5 28.5l13 47q2 9 8.5 11t14 3t14.5 3.5t11 11.5q8 17 16.5 44.5t17 57.5t16 59t12.5 48q-21 -2 -41.5 -13t-36.5 -28t-26 -38t-10 -43q0 -20 8.5 -35.5t8.5 -34.5
q0 -13 -9 -25q-13 -18 -31 -34.5t-39 -30t-43.5 -21.5t-45.5 -8q-26 0 -45.5 10t-32 26.5t-19 38t-6.5 45.5q0 33 9 64q14 51 44.5 90.5t71.5 69t90 49.5t100.5 32.5t103 18t97.5 5.5q64 0 123 -10.5t104 -38.5t72 -75.5t27 -122.5q0 -42 -11.5 -100.5t-33.5 -122t-53 -126
t-70 -112t-84.5 -80t-96.5 -30.5q-38 0 -67.5 18.5t-46.5 52.5q-29 -33 -68.5 -52t-83.5 -19q-15 0 -35.5 5t-39 15t-31.5 24t-13 33zM701 423q0 -13 -4.5 -27t-8.5 -26q-8 -26 -23.5 -33t-39.5 -7q-16 -51 -33.5 -100.5t-38.5 -97.5q3 -1 9 -1q34 0 62 25t50.5 64.5
t38.5 88.5t27 97t16 90t5 68q0 13 -1.5 30.5t-6.5 34t-15 29t-27 13.5q-21 -113 -51 -221q15 0 28 -3t13 -24z" />
    <glyph glyph-name="Oslash" unicode="&#xd8;" horiz-adv-x="661" 
d="M608 798q16 0 31 11t30 11h37q8 0 14.5 -4t6.5 -13q0 -4 -3 -11.5t-7.5 -15t-9 -14.5t-7.5 -11q45 -40 63 -97t18 -116t-15 -124t-43.5 -127.5t-69 -119t-91 -99t-110 -67.5t-125.5 -25q-16 0 -31 3t-30 3q-16 0 -31 -9t-30 -9h-37q-8 0 -14.5 3.5t-6.5 12.5q0 5 3 12
t7 14t8 13.5t7 10.5q-45 40 -62.5 96t-17.5 114q0 60 15 124.5t43.5 127.5t69 119.5t91 99.5t110.5 68t126 25q16 0 31 -3t30 -3zM323 288l220 376q-10 15 -29 15t-37.5 -18t-36.5 -46t-33.5 -62t-28.5 -67t-21.5 -60t-12.5 -41q-7 -24 -11.5 -48.5t-9.5 -48.5zM358 101
q19 0 38 17.5t37 45.5t34 62t28.5 66.5t21 60t12.5 41.5q7 25 12 50l10 50l-221 -378q9 -15 28 -15z" />
    <glyph glyph-name="eth" unicode="&#xf0;" horiz-adv-x="508" 
d="M332 781q0 8 6.5 9.5t11.5 1.5h114q29 0 45 -11.5t34 -31.5q5 3 15 8.5t21 11t21 9.5t15 4q16 0 21 -16t5 -29q0 -15 -5 -25t-13.5 -16.5t-19 -12t-22.5 -11.5q13 -39 18.5 -79.5t5.5 -81.5q0 -55 -10 -116.5t-30 -121t-51 -113.5t-73 -95t-95 -65t-118 -24
q-79 0 -122.5 38.5t-43.5 119.5q0 30 5.5 60t13.5 59q12 45 32 90t49 82t69.5 60t93.5 23q45 0 76.5 -19t45.5 -64q2 15 3 30.5t1 31.5q0 29 -4 57.5t-12 55.5q-6 -3 -20.5 -10.5t-31 -16t-30 -14.5t-18.5 -6q-15 0 -20.5 16.5t-5.5 28.5q0 19 9 31.5t23 21t30 15t30 13.5
q-14 23 -28.5 44t-31.5 41l-6 8t-3 9zM290 152q21 0 38 19t29 45.5t18.5 54t6.5 43.5q0 8 -1 18t-4.5 19t-10 15t-16.5 6q-21 0 -38 -18.5t-29 -44t-18.5 -52t-6.5 -43.5q0 -7 1 -17.5t4.5 -20.5t10 -17t16.5 -7z" />
    <glyph glyph-name="oslash" unicode="&#xf8;" horiz-adv-x="467" 
d="M397 539q17 0 33 10.5t32 10.5h37q8 0 14.5 -3.5t6.5 -12.5q0 -8 -8 -21t-13 -21q27 -24 36.5 -59t9.5 -70q0 -67 -21.5 -137.5t-62 -128t-99.5 -94.5t-134 -37l-18 1q-17 0 -33 -10.5t-32 -10.5h-37q-8 0 -14.5 3.5t-6.5 12.5q0 8 8 22t13 22q-26 24 -36 58t-10 68
q0 29 5 58.5t13 58.5q15 55 40.5 105.5t62 89.5t85 62.5t111.5 23.5zM268 130q15 0 27.5 20t21.5 46.5t15.5 52.5l9.5 38q8 31 18.5 64t10.5 65q0 8 -2.5 18.5t-13.5 10.5q-16 0 -29 -23t-23.5 -53.5t-17.5 -60t-10 -42.5q-8 -26 -16 -53.5t-8 -55.5q0 -8 3 -17.5t14 -9.5z
" />
    <glyph glyph-name="thorn" unicode="&#xfe;" 
d="M440 754q0 -5 -6.5 -26.5t-14.5 -47.5t-15.5 -49.5t-9.5 -32.5l-36 -131q26 26 61 43.5t73 17.5q31 0 51.5 -13t33 -34t17.5 -47t5 -52q0 -39 -9.5 -84t-28 -90.5t-45 -87t-60 -74t-73 -51.5t-84.5 -19q-18 0 -35.5 4t-33.5 14q-15 -57 -29 -114t-27 -115
q-5 -23 -14.5 -35.5t-23 -18.5t-31 -7.5t-37.5 -1.5t-39 4t-33.5 13.5t-23.5 25t-9 38.5q0 16 5 36l203 750q9 35 25.5 74t40.5 72t57 55t75 22q10 0 22.5 -0.5t23 -4.5t18 -11.5t7.5 -21.5zM256 89q5 -6 14 -6q15 0 29 16.5t27 43t24.5 58t20 62t13 55.5t4.5 37
q0 5 -0.5 12t-2.5 14t-6 12t-10 5q-9 0 -18 -6t-16 -12z" />
    <glyph glyph-name="Lslash" unicode="&#x141;" horiz-adv-x="852" 
d="M703 523q14 0 14 -16q0 -5 -2 -13q-4 -17 -8 -33.5t-11 -30.5t-18 -25t-30 -17q-17 -57 -36.5 -113.5t-44.5 -111.5q20 -3 38 -3q36 0 70 10.5t64.5 28t57.5 41t50 49.5l9.5 9.5t11.5 4.5q10 0 17 -12t11 -28t5.5 -31.5t1.5 -22.5q0 -45 -17.5 -87.5t-48 -74.5t-71 -51.5
t-87.5 -19.5q-51 0 -96 24t-80 60q-30 -35 -72.5 -60t-90.5 -25q-15 0 -32.5 4.5t-33.5 13.5t-26.5 22.5t-10.5 31.5q0 14 7 24t17 18q49 38 76.5 86t50.5 105q-6 -2 -14.5 -6.5t-14.5 -4.5q-7 0 -10 5t-3 11q0 15 5.5 31.5t9.5 30.5q8 29 27.5 42t45.5 24q18 60 35.5 120.5
t31.5 121.5q-21 -1 -41.5 -12t-36.5 -28t-26 -38t-10 -42q0 -20 8.5 -36.5t8.5 -36.5q0 -12 -9 -24q-13 -18 -31 -34.5t-39 -30t-44 -21.5t-46 -8q-26 0 -45.5 10t-32 26.5t-18.5 38t-6 45.5q0 60 22.5 107.5t60.5 84.5t87.5 62.5t103.5 42.5t109 24.5t104 7.5q22 0 41 -1.5
t33 -8.5t22 -21.5t8 -40.5q0 -51 -13.5 -103.5t-26.5 -100.5q5 2 9.5 4t9.5 2z" />
    <glyph glyph-name="lslash" unicode="&#x142;" horiz-adv-x="325" 
d="M453 276q26 0 26 -25q0 -4 -2 -12q-14 -43 -36 -89.5t-53 -85t-72 -63.5t-93 -25q-60 0 -87 33.5t-27 90.5q0 47 12.5 92t24.5 90q-6 -3 -16.5 -8t-18.5 -5q-7 0 -10 5t-3 11q0 15 5.5 31.5t9.5 30.5q8 27 26 40t42 23l72 266q16 58 60 87t103 29q12 0 25.5 -0.5t25 -4
t19.5 -12t8 -24.5q0 -3 -4.5 -20t-11 -41t-15 -52t-16 -53.5t-13.5 -45t-9 -27.5q7 3 15 7t15 4q14 0 14 -16q0 -15 -5.5 -31.5t-9.5 -30.5q-8 -27 -25 -40t-41 -23q-6 -27 -14.5 -54.5t-15.5 -55.5t-12 -56t-5 -56v-7t1 -10t3 -9t6 -4q9 0 19.5 16t20.5 36.5t17.5 39.5
t10.5 26q4 10 13 19t21 9z" />
    <glyph glyph-name="Agrave" unicode="&#xc0;" horiz-adv-x="797" 
d="M509 1023q0 18 10 31t25.5 22t33.5 13t33 4q35 0 60.5 -18t31.5 -53q3 -14 8 -39t10 -51.5t9 -50.5t4 -36q0 -13 -7.5 -22t-21.5 -9h-83q-26 0 -38.5 9.5t-20.5 33.5q-4 13 -13 36t-18 48t-16 47.5t-7 34.5zM796 94q0 -7 -2.5 -12t-6.5 -10q-14 -17 -33 -34.5t-41 -31
t-45.5 -22t-46.5 -8.5q-33 0 -54 16.5t-33 42t-16 55.5t-4 56q-24 -7 -48.5 -9.5t-49.5 -2.5q-12 0 -24 1t-24 4q-17 -28 -40.5 -57.5t-52 -53t-61.5 -38.5t-69 -15q-45 0 -75 25.5t-30 72.5q0 18 5 37.5t13 35.5q9 17 23 21t31 6q36 3 75 29t78 66t76 89t69 97.5t57.5 91.5
t40.5 71q-3 14 -12.5 23.5t-24.5 9.5q-16 0 -31.5 -9.5t-26.5 -24t-18 -31.5t-7 -32q0 -17 7 -32t7 -32q0 -19 -17 -38.5t-40.5 -34.5t-49 -24.5t-43.5 -9.5q-24 0 -41 9t-28 24t-16.5 34.5t-5.5 40.5q0 72 37.5 128.5t95 95t126.5 59t132 20.5q56 0 90 -15.5t52.5 -43.5
t25.5 -67.5t8 -87.5q2 -41 1.5 -81.5t1.5 -82.5q2 -33 3.5 -71.5t6 -77.5t14.5 -75.5t28 -64.5q5 -8 9 -15.5t4 -16.5zM446 300q3 -1 6.5 -1h6.5q17 0 32.5 3t32.5 5v131z" />
    <glyph glyph-name="Aacute" unicode="&#xc1;" horiz-adv-x="797" 
d="M503 814q-7 0 -13 2.5t-6 10.5q0 9 7 18l126 177q23 32 58 51.5t74 19.5q11 0 23 -2.5t22.5 -8.5t17.5 -15t7 -22q0 -22 -13 -36l-137 -152q-18 -20 -36 -31.5t-47 -11.5h-83zM796 94q0 -7 -2.5 -12t-6.5 -10q-14 -17 -33 -34.5t-41 -31t-45.5 -22t-46.5 -8.5
q-33 0 -54 16.5t-33 42t-16 55.5t-4 56q-24 -7 -48.5 -9.5t-49.5 -2.5q-12 0 -24 1t-24 4q-17 -28 -40.5 -57.5t-52 -53t-61.5 -38.5t-69 -15q-45 0 -75 25.5t-30 72.5q0 18 5 37.5t13 35.5q9 17 23 21t31 6q36 3 75 29t78 66t76 89t69 97.5t57.5 91.5t40.5 71
q-3 14 -12.5 23.5t-24.5 9.5q-16 0 -31.5 -9.5t-26.5 -24t-18 -31.5t-7 -32q0 -17 7 -32t7 -32q0 -19 -17 -38.5t-40.5 -34.5t-49 -24.5t-43.5 -9.5q-24 0 -41 9t-28 24t-16.5 34.5t-5.5 40.5q0 72 37.5 128.5t95 95t126.5 59t132 20.5q56 0 90 -15.5t52.5 -43.5t25.5 -67.5
t8 -87.5q2 -41 1.5 -81.5t1.5 -82.5q2 -33 3.5 -71.5t6 -77.5t14.5 -75.5t28 -64.5q5 -8 9 -15.5t4 -16.5zM446 300q3 -1 6.5 -1h6.5q17 0 32.5 3t32.5 5v131z" />
    <glyph glyph-name="Acircumflex" unicode="&#xc2;" horiz-adv-x="797" 
d="M809 895q0 -18 -8.5 -30.5t-22 -21t-30 -12t-31.5 -3.5q-13 0 -27.5 3t-27 9.5t-20.5 17t-8 26.5q0 12 3 32t7 41.5t8.5 42.5t6.5 34l-55 -142q-6 -16 -19 -28t-29 -20t-34 -12t-34 -4q-10 0 -21.5 2t-21 7t-16 13.5t-6.5 20.5q0 19 14 35l120 134q16 18 33 28.5t42 10.5
h77q23 0 34 -9t19 -30q4 -12 12 -32t15.5 -41t13.5 -40.5t6 -31.5zM796 94q0 -7 -2.5 -12t-6.5 -10q-14 -17 -33 -34.5t-41 -31t-45.5 -22t-46.5 -8.5q-33 0 -54 16.5t-33 42t-16 55.5t-4 56q-24 -7 -48.5 -9.5t-49.5 -2.5q-12 0 -24 1t-24 4q-17 -28 -40.5 -57.5t-52 -53
t-61.5 -38.5t-69 -15q-45 0 -75 25.5t-30 72.5q0 18 5 37.5t13 35.5q9 17 23 21t31 6q36 3 75 29t78 66t76 89t69 97.5t57.5 91.5t40.5 71q-3 14 -12.5 23.5t-24.5 9.5q-16 0 -31.5 -9.5t-26.5 -24t-18 -31.5t-7 -32q0 -17 7 -32t7 -32q0 -19 -17 -38.5t-40.5 -34.5
t-49 -24.5t-43.5 -9.5q-24 0 -41 9t-28 24t-16.5 34.5t-5.5 40.5q0 72 37.5 128.5t95 95t126.5 59t132 20.5q56 0 90 -15.5t52.5 -43.5t25.5 -67.5t8 -87.5q2 -41 1.5 -81.5t1.5 -82.5q2 -33 3.5 -71.5t6 -77.5t14.5 -75.5t28 -64.5q5 -8 9 -15.5t4 -16.5zM446 300
q3 -1 6.5 -1h6.5q17 0 32.5 3t32.5 5v131z" />
    <glyph glyph-name="Atilde" unicode="&#xc3;" horiz-adv-x="797" 
d="M447 820q-9 0 -9 9l1 4q7 26 21 64.5t35 74t48.5 61t61.5 25.5q22 0 37.5 -9t29 -20t27 -20t31.5 -9q21 0 34.5 9t23 20t16.5 20t13 9q10 0 10 -10l-1 -4q-7 -26 -21 -64.5t-35.5 -74t-49 -60.5t-61.5 -25q-22 0 -37 9t-28.5 20t-27.5 20t-33 9q-21 0 -35 -9t-23 -20
t-15 -20t-13 -9zM796 94q0 -7 -2.5 -12t-6.5 -10q-14 -17 -33 -34.5t-41 -31t-45.5 -22t-46.5 -8.5q-33 0 -54 16.5t-33 42t-16 55.5t-4 56q-24 -7 -48.5 -9.5t-49.5 -2.5q-12 0 -24 1t-24 4q-17 -28 -40.5 -57.5t-52 -53t-61.5 -38.5t-69 -15q-45 0 -75 25.5t-30 72.5
q0 18 5 37.5t13 35.5q9 17 23 21t31 6q36 3 75 29t78 66t76 89t69 97.5t57.5 91.5t40.5 71q-3 14 -12.5 23.5t-24.5 9.5q-16 0 -31.5 -9.5t-26.5 -24t-18 -31.5t-7 -32q0 -17 7 -32t7 -32q0 -19 -17 -38.5t-40.5 -34.5t-49 -24.5t-43.5 -9.5q-24 0 -41 9t-28 24t-16.5 34.5
t-5.5 40.5q0 72 37.5 128.5t95 95t126.5 59t132 20.5q56 0 90 -15.5t52.5 -43.5t25.5 -67.5t8 -87.5q2 -41 1.5 -81.5t1.5 -82.5q2 -33 3.5 -71.5t6 -77.5t14.5 -75.5t28 -64.5q5 -8 9 -15.5t4 -16.5zM446 300q3 -1 6.5 -1h6.5q17 0 32.5 3t32.5 5v131z" />
    <glyph glyph-name="Adieresis" unicode="&#xc4;" horiz-adv-x="797" 
d="M507 817q-31 0 -44 24t-13 51q0 23 9 51.5t25.5 53.5t39 42t48.5 17q15 0 25.5 -7t17 -18t9.5 -24.5t3 -26.5q0 -23 -9 -51.5t-24.5 -53t-37.5 -41.5t-49 -17zM693 817q-31 0 -44 24t-13 51q0 23 9 51.5t25.5 53.5t39 42t48.5 17q15 0 26 -7t17.5 -18t9.5 -24.5t3 -26.5
q0 -23 -9 -51.5t-24.5 -53t-38 -41.5t-49.5 -17zM796 94q0 -7 -2.5 -12t-6.5 -10q-14 -17 -33 -34.5t-41 -31t-45.5 -22t-46.5 -8.5q-33 0 -54 16.5t-33 42t-16 55.5t-4 56q-24 -7 -48.5 -9.5t-49.5 -2.5q-12 0 -24 1t-24 4q-17 -28 -40.5 -57.5t-52 -53t-61.5 -38.5
t-69 -15q-45 0 -75 25.5t-30 72.5q0 18 5 37.5t13 35.5q9 17 23 21t31 6q36 3 75 29t78 66t76 89t69 97.5t57.5 91.5t40.5 71q-3 14 -12.5 23.5t-24.5 9.5q-16 0 -31.5 -9.5t-26.5 -24t-18 -31.5t-7 -32q0 -17 7 -32t7 -32q0 -19 -17 -38.5t-40.5 -34.5t-49 -24.5
t-43.5 -9.5q-24 0 -41 9t-28 24t-16.5 34.5t-5.5 40.5q0 72 37.5 128.5t95 95t126.5 59t132 20.5q56 0 90 -15.5t52.5 -43.5t25.5 -67.5t8 -87.5q2 -41 1.5 -81.5t1.5 -82.5q2 -33 3.5 -71.5t6 -77.5t14.5 -75.5t28 -64.5q5 -8 9 -15.5t4 -16.5zM446 300q3 -1 6.5 -1h6.5
q17 0 32.5 3t32.5 5v131z" />
    <glyph glyph-name="Aring" unicode="&#xc5;" horiz-adv-x="797" 
d="M680 1112q43 0 65.5 -25.5t22.5 -67.5q0 -33 -12.5 -68t-34.5 -63t-52.5 -46t-66.5 -18q-44 0 -66 26t-22 68q0 33 12.5 67.5t34.5 62.5t52.5 46t66.5 18zM594 948q0 -32 32 -32q14 0 25.5 6.5t19.5 17t12.5 23t4.5 25.5q0 33 -33 33q-14 0 -25 -6.5t-19 -17t-12.5 -23.5
t-4.5 -26zM796 94q0 -7 -2.5 -12t-6.5 -10q-14 -17 -33 -34.5t-41 -31t-45.5 -22t-46.5 -8.5q-33 0 -54 16.5t-33 42t-16 55.5t-4 56q-24 -7 -48.5 -9.5t-49.5 -2.5q-12 0 -24 1t-24 4q-17 -28 -40.5 -57.5t-52 -53t-61.5 -38.5t-69 -15q-45 0 -75 25.5t-30 72.5
q0 18 5 37.5t13 35.5q9 17 23 21t31 6q36 3 75 29t78 66t76 89t69 97.5t57.5 91.5t40.5 71q-3 14 -12.5 23.5t-24.5 9.5q-16 0 -31.5 -9.5t-26.5 -24t-18 -31.5t-7 -32q0 -17 7 -32t7 -32q0 -19 -17 -38.5t-40.5 -34.5t-49 -24.5t-43.5 -9.5q-24 0 -41 9t-28 24t-16.5 34.5
t-5.5 40.5q0 72 37.5 128.5t95 95t126.5 59t132 20.5q56 0 90 -15.5t52.5 -43.5t25.5 -67.5t8 -87.5q2 -41 1.5 -81.5t1.5 -82.5q2 -33 3.5 -71.5t6 -77.5t14.5 -75.5t28 -64.5q5 -8 9 -15.5t4 -16.5zM446 300q3 -1 6.5 -1h6.5q17 0 32.5 3t32.5 5v131z" />
    <glyph glyph-name="Ccedilla" unicode="&#xc7;" horiz-adv-x="619" 
d="M558 272q15 0 28 -7.5t23 -19t15.5 -26t5.5 -28.5q0 -46 -29.5 -82t-73 -62.5t-92 -42.5t-86.5 -22l-5 -18q51 -32 51 -91q0 -33 -13 -62.5t-34.5 -51t-51 -34.5t-62.5 -13q-12 0 -29 3t-32.5 10t-26.5 17.5t-11 25.5q0 12 4.5 19.5t12.5 15.5q16 16 35 19t37 5.5
t33 11.5t23 36q3 9 3 18q0 14 -7.5 28.5t-19 27.5t-25.5 22.5t-26 14.5q-35 13 -58.5 34.5t-37.5 48.5t-20 59.5t-6 67.5q0 64 15 132.5t44 135t70 126t93.5 104.5t114.5 71.5t133 26.5q39 0 77 -9t68 -28.5t48.5 -50.5t18.5 -76q0 -35 -13 -74t-36.5 -72t-56.5 -54.5
t-72 -21.5q-27 0 -48 10t-21 41q0 14 2.5 28.5t2.5 28.5q0 10 -1.5 22t-6 22t-13 17t-21.5 7q-23 0 -43.5 -19.5t-38 -50.5t-31.5 -69.5t-24 -75.5t-15 -69t-5 -50q0 -12 2 -27.5t7 -29t15.5 -22.5t26.5 -9q30 0 55 17.5t47 38.5t42 38.5t39 17.5z" />
    <glyph glyph-name="Egrave" unicode="&#xc8;" horiz-adv-x="906" 
d="M713 1023q0 18 10 31t25.5 22t33.5 13t33 4q35 0 60.5 -18t31.5 -53q3 -14 8 -39t10 -51.5t9 -50.5t4 -36q0 -13 -7.5 -22t-21.5 -9h-83q-26 0 -38.5 9.5t-20.5 33.5q-4 13 -13 36t-18 48t-16 47.5t-7 34.5zM885 223q11 0 18 -9t11 -22t6 -26t2 -21q0 -41 -20 -73
t-51 -53.5t-69.5 -32.5t-74.5 -11q-47 0 -89.5 18t-79.5 44q-27 -29 -64.5 -45.5t-77.5 -16.5q-15 0 -36 5t-40 14.5t-32.5 24t-13.5 32.5q0 12 6 21t14.5 16.5t18 14t16.5 13.5q19 19 40 58.5t41.5 90.5t40 108.5t36 111t29 98.5t19.5 72q-21 -3 -41.5 -13.5t-36.5 -27
t-26 -37.5t-10 -43q0 -19 8 -35t8 -35q0 -14 -8 -25q-13 -18 -31 -34.5t-39 -29.5t-44 -21t-46 -8q-26 0 -45 10t-31.5 26.5t-18.5 38t-6 45.5q0 58 21.5 104.5t58 82.5t84 62.5t99.5 43.5t105.5 25t100.5 8q39 0 77.5 -4t77.5 -9t77.5 -9t77.5 -4q19 0 36.5 1.5t35.5 6.5
q6 2 10 2q19 0 24.5 -15t5.5 -29q0 -35 -11.5 -63t-32.5 -47.5t-50 -30t-63 -10.5q-44 0 -84.5 16.5t-75.5 40.5q-11 -39 -19.5 -78.5t-19.5 -78.5q31 14 65 24t68 10q18 0 36.5 -4t33 -13t23.5 -24t9 -36q0 -25 -10 -47t-26.5 -39t-37.5 -30t-44 -20q-2 -1 -6 -1
q-10 0 -15 6t-9.5 15.5t-10 21t-17 22.5t-30.5 19.5t-51 11.5q-19 -67 -36.5 -135t-49.5 -130q14 -4 27.5 -5.5t27.5 -1.5q60 0 113 22.5t97 62.5q5 5 11 9t14 4z" />
    <glyph glyph-name="Eacute" unicode="&#xc9;" horiz-adv-x="906" 
d="M677 814q-7 0 -13 2.5t-6 10.5q0 9 7 18l126 177q23 32 58 51.5t74 19.5q11 0 23 -2.5t22.5 -8.5t17.5 -15t7 -22q0 -22 -13 -36l-137 -152q-18 -20 -36 -31.5t-47 -11.5h-83zM885 223q11 0 18 -9t11 -22t6 -26t2 -21q0 -41 -20 -73t-51 -53.5t-69.5 -32.5t-74.5 -11
q-47 0 -89.5 18t-79.5 44q-27 -29 -64.5 -45.5t-77.5 -16.5q-15 0 -36 5t-40 14.5t-32.5 24t-13.5 32.5q0 12 6 21t14.5 16.5t18 14t16.5 13.5q19 19 40 58.5t41.5 90.5t40 108.5t36 111t29 98.5t19.5 72q-21 -3 -41.5 -13.5t-36.5 -27t-26 -37.5t-10 -43q0 -19 8 -35t8 -35
q0 -14 -8 -25q-13 -18 -31 -34.5t-39 -29.5t-44 -21t-46 -8q-26 0 -45 10t-31.5 26.5t-18.5 38t-6 45.5q0 58 21.5 104.5t58 82.5t84 62.5t99.5 43.5t105.5 25t100.5 8q39 0 77.5 -4t77.5 -9t77.5 -9t77.5 -4q19 0 36.5 1.5t35.5 6.5q6 2 10 2q19 0 24.5 -15t5.5 -29
q0 -35 -11.5 -63t-32.5 -47.5t-50 -30t-63 -10.5q-44 0 -84.5 16.5t-75.5 40.5q-11 -39 -19.5 -78.5t-19.5 -78.5q31 14 65 24t68 10q18 0 36.5 -4t33 -13t23.5 -24t9 -36q0 -25 -10 -47t-26.5 -39t-37.5 -30t-44 -20q-2 -1 -6 -1q-10 0 -15 6t-9.5 15.5t-10 21t-17 22.5
t-30.5 19.5t-51 11.5q-19 -67 -36.5 -135t-49.5 -130q14 -4 27.5 -5.5t27.5 -1.5q60 0 113 22.5t97 62.5q5 5 11 9t14 4z" />
    <glyph glyph-name="Ecircumflex" unicode="&#xca;" horiz-adv-x="906" 
d="M1004 895q0 -18 -8.5 -30.5t-22 -21t-30 -12t-31.5 -3.5q-13 0 -27.5 3t-27 9.5t-20.5 17t-8 26.5q0 12 3 32t7 41.5t8.5 42.5t6.5 34l-55 -142q-6 -16 -19 -28t-29 -20t-34 -12t-34 -4q-10 0 -21.5 2t-21 7t-16 13.5t-6.5 20.5q0 19 14 35l120 134q16 18 33 28.5
t42 10.5h77q23 0 34 -9t19 -30q4 -12 12 -32t15.5 -41t13.5 -40.5t6 -31.5zM885 223q11 0 18 -9t11 -22t6 -26t2 -21q0 -41 -20 -73t-51 -53.5t-69.5 -32.5t-74.5 -11q-47 0 -89.5 18t-79.5 44q-27 -29 -64.5 -45.5t-77.5 -16.5q-15 0 -36 5t-40 14.5t-32.5 24t-13.5 32.5
q0 12 6 21t14.5 16.5t18 14t16.5 13.5q19 19 40 58.5t41.5 90.5t40 108.5t36 111t29 98.5t19.5 72q-21 -3 -41.5 -13.5t-36.5 -27t-26 -37.5t-10 -43q0 -19 8 -35t8 -35q0 -14 -8 -25q-13 -18 -31 -34.5t-39 -29.5t-44 -21t-46 -8q-26 0 -45 10t-31.5 26.5t-18.5 38t-6 45.5
q0 58 21.5 104.5t58 82.5t84 62.5t99.5 43.5t105.5 25t100.5 8q39 0 77.5 -4t77.5 -9t77.5 -9t77.5 -4q19 0 36.5 1.5t35.5 6.5q6 2 10 2q19 0 24.5 -15t5.5 -29q0 -35 -11.5 -63t-32.5 -47.5t-50 -30t-63 -10.5q-44 0 -84.5 16.5t-75.5 40.5q-11 -39 -19.5 -78.5
t-19.5 -78.5q31 14 65 24t68 10q18 0 36.5 -4t33 -13t23.5 -24t9 -36q0 -25 -10 -47t-26.5 -39t-37.5 -30t-44 -20q-2 -1 -6 -1q-10 0 -15 6t-9.5 15.5t-10 21t-17 22.5t-30.5 19.5t-51 11.5q-19 -67 -36.5 -135t-49.5 -130q14 -4 27.5 -5.5t27.5 -1.5q60 0 113 22.5
t97 62.5q5 5 11 9t14 4z" />
    <glyph glyph-name="Edieresis" unicode="&#xcb;" horiz-adv-x="906" 
d="M701 817q-31 0 -44 24t-13 51q0 23 9 51.5t25.5 53.5t39 42t48.5 17q15 0 25.5 -7t17 -18t9.5 -24.5t3 -26.5q0 -23 -9 -51.5t-24.5 -53t-37.5 -41.5t-49 -17zM887 817q-31 0 -44 24t-13 51q0 23 9 51.5t25.5 53.5t39 42t48.5 17q15 0 26 -7t17.5 -18t9.5 -24.5t3 -26.5
q0 -23 -9 -51.5t-24.5 -53t-38 -41.5t-49.5 -17zM885 223q11 0 18 -9t11 -22t6 -26t2 -21q0 -41 -20 -73t-51 -53.5t-69.5 -32.5t-74.5 -11q-47 0 -89.5 18t-79.5 44q-27 -29 -64.5 -45.5t-77.5 -16.5q-15 0 -36 5t-40 14.5t-32.5 24t-13.5 32.5q0 12 6 21t14.5 16.5t18 14
t16.5 13.5q19 19 40 58.5t41.5 90.5t40 108.5t36 111t29 98.5t19.5 72q-21 -3 -41.5 -13.5t-36.5 -27t-26 -37.5t-10 -43q0 -19 8 -35t8 -35q0 -14 -8 -25q-13 -18 -31 -34.5t-39 -29.5t-44 -21t-46 -8q-26 0 -45 10t-31.5 26.5t-18.5 38t-6 45.5q0 58 21.5 104.5t58 82.5
t84 62.5t99.5 43.5t105.5 25t100.5 8q39 0 77.5 -4t77.5 -9t77.5 -9t77.5 -4q19 0 36.5 1.5t35.5 6.5q6 2 10 2q19 0 24.5 -15t5.5 -29q0 -35 -11.5 -63t-32.5 -47.5t-50 -30t-63 -10.5q-44 0 -84.5 16.5t-75.5 40.5q-11 -39 -19.5 -78.5t-19.5 -78.5q31 14 65 24t68 10
q18 0 36.5 -4t33 -13t23.5 -24t9 -36q0 -25 -10 -47t-26.5 -39t-37.5 -30t-44 -20q-2 -1 -6 -1q-10 0 -15 6t-9.5 15.5t-10 21t-17 22.5t-30.5 19.5t-51 11.5q-19 -67 -36.5 -135t-49.5 -130q14 -4 27.5 -5.5t27.5 -1.5q60 0 113 22.5t97 62.5q5 5 11 9t14 4z" />
    <glyph glyph-name="Igrave" unicode="&#xcc;" horiz-adv-x="566" 
d="M513 1023q0 18 10 31t25.5 22t33.5 13t33 4q35 0 60.5 -18t31.5 -53q3 -14 8 -39t10 -51.5t9 -50.5t4 -36q0 -13 -7.5 -22t-21.5 -9h-83q-26 0 -38.5 9.5t-20.5 33.5q-4 13 -13 36t-18 48t-16 47.5t-7 34.5zM238 47q0 13 6 22.5t14.5 17t18 14t17.5 14.5q22 22 44 61.5
t42.5 89t39 104.5t34 107.5t27 98.5l19.5 78q-22 -2 -42.5 -13t-36.5 -27.5t-25.5 -37.5t-9.5 -43q0 -20 8.5 -36.5t8.5 -35.5q0 -13 -9 -24q-13 -17 -31 -34t-39 -30.5t-44 -21.5t-46 -8q-26 0 -45.5 10t-32 26.5t-18.5 38t-6 45.5q0 17 2.5 33.5t7.5 33.5q21 73 72 123
t117 81t140.5 44.5t141.5 13.5q21 0 41.5 -1t37 -8t26.5 -21t10 -41q0 -42 -11.5 -85t-22.5 -83t-26 -98.5t-35.5 -123t-47.5 -128t-62 -114.5t-78.5 -82.5t-97.5 -31.5q-15 0 -33.5 4.5t-35.5 13.5t-28.5 22.5t-11.5 31.5z" />
    <glyph glyph-name="Iacute" unicode="&#xcd;" horiz-adv-x="566" 
d="M477 814q-7 0 -13 2.5t-6 10.5q0 9 7 18l126 177q23 32 58 51.5t74 19.5q11 0 23 -2.5t22.5 -8.5t17.5 -15t7 -22q0 -22 -13 -36l-137 -152q-18 -20 -36 -31.5t-47 -11.5h-83zM238 47q0 13 6 22.5t14.5 17t18 14t17.5 14.5q22 22 44 61.5t42.5 89t39 104.5t34 107.5
t27 98.5l19.5 78q-22 -2 -42.5 -13t-36.5 -27.5t-25.5 -37.5t-9.5 -43q0 -20 8.5 -36.5t8.5 -35.5q0 -13 -9 -24q-13 -17 -31 -34t-39 -30.5t-44 -21.5t-46 -8q-26 0 -45.5 10t-32 26.5t-18.5 38t-6 45.5q0 17 2.5 33.5t7.5 33.5q21 73 72 123t117 81t140.5 44.5t141.5 13.5
q21 0 41.5 -1t37 -8t26.5 -21t10 -41q0 -42 -11.5 -85t-22.5 -83t-26 -98.5t-35.5 -123t-47.5 -128t-62 -114.5t-78.5 -82.5t-97.5 -31.5q-15 0 -33.5 4.5t-35.5 13.5t-28.5 22.5t-11.5 31.5z" />
    <glyph glyph-name="Icircumflex" unicode="&#xce;" horiz-adv-x="566" 
d="M784 895q0 -18 -8.5 -30.5t-22 -21t-30 -12t-31.5 -3.5q-13 0 -27.5 3t-27 9.5t-20.5 17t-8 26.5q0 12 3 32t7 41.5t8.5 42.5t6.5 34l-55 -142q-6 -16 -19 -28t-29 -20t-34 -12t-34 -4q-10 0 -21.5 2t-21 7t-16 13.5t-6.5 20.5q0 19 14 35l120 134q16 18 33 28.5t42 10.5
h77q23 0 34 -9t19 -30q4 -12 12 -32t15.5 -41t13.5 -40.5t6 -31.5zM238 47q0 13 6 22.5t14.5 17t18 14t17.5 14.5q22 22 44 61.5t42.5 89t39 104.5t34 107.5t27 98.5l19.5 78q-22 -2 -42.5 -13t-36.5 -27.5t-25.5 -37.5t-9.5 -43q0 -20 8.5 -36.5t8.5 -35.5q0 -13 -9 -24
q-13 -17 -31 -34t-39 -30.5t-44 -21.5t-46 -8q-26 0 -45.5 10t-32 26.5t-18.5 38t-6 45.5q0 17 2.5 33.5t7.5 33.5q21 73 72 123t117 81t140.5 44.5t141.5 13.5q21 0 41.5 -1t37 -8t26.5 -21t10 -41q0 -42 -11.5 -85t-22.5 -83t-26 -98.5t-35.5 -123t-47.5 -128t-62 -114.5
t-78.5 -82.5t-97.5 -31.5q-15 0 -33.5 4.5t-35.5 13.5t-28.5 22.5t-11.5 31.5z" />
    <glyph glyph-name="Idieresis" unicode="&#xcf;" horiz-adv-x="566" 
d="M481 817q-31 0 -44 24t-13 51q0 23 9 51.5t25.5 53.5t39 42t48.5 17q15 0 25.5 -7t17 -18t9.5 -24.5t3 -26.5q0 -23 -9 -51.5t-24.5 -53t-37.5 -41.5t-49 -17zM667 817q-31 0 -44 24t-13 51q0 23 9 51.5t25.5 53.5t39 42t48.5 17q15 0 26 -7t17.5 -18t9.5 -24.5t3 -26.5
q0 -23 -9 -51.5t-24.5 -53t-38 -41.5t-49.5 -17zM238 47q0 13 6 22.5t14.5 17t18 14t17.5 14.5q22 22 44 61.5t42.5 89t39 104.5t34 107.5t27 98.5l19.5 78q-22 -2 -42.5 -13t-36.5 -27.5t-25.5 -37.5t-9.5 -43q0 -20 8.5 -36.5t8.5 -35.5q0 -13 -9 -24q-13 -17 -31 -34
t-39 -30.5t-44 -21.5t-46 -8q-26 0 -45.5 10t-32 26.5t-18.5 38t-6 45.5q0 17 2.5 33.5t7.5 33.5q21 73 72 123t117 81t140.5 44.5t141.5 13.5q21 0 41.5 -1t37 -8t26.5 -21t10 -41q0 -42 -11.5 -85t-22.5 -83t-26 -98.5t-35.5 -123t-47.5 -128t-62 -114.5t-78.5 -82.5
t-97.5 -31.5q-15 0 -33.5 4.5t-35.5 13.5t-28.5 22.5t-11.5 31.5z" />
    <glyph glyph-name="Ntilde" unicode="&#xd1;" horiz-adv-x="936" 
d="M666 820q-9 0 -9 9l1 4q7 26 21 64.5t35 74t48.5 61t61.5 25.5q22 0 37.5 -9t29 -20t27 -20t31.5 -9q21 0 34.5 9t23 20t16.5 20t13 9q10 0 10 -10l-1 -4q-7 -26 -21 -64.5t-35.5 -74t-49 -60.5t-61.5 -25q-22 0 -37 9t-28.5 20t-27.5 20t-33 9q-21 0 -35 -9t-23 -20
t-15 -20t-13 -9zM1090 736q0 -5 -1 -9t-3 -9q-25 -64 -54.5 -142.5t-54.5 -160t-41.5 -161.5t-16.5 -149l3 -23v-11q0 -12 -2.5 -22.5t-11.5 -19.5q-23 -23 -56 -38.5t-66 -15.5q-32 0 -55 15t-39 40t-25 56.5t-14 63.5t-6.5 62t-1.5 53q0 18 0.5 36.5t1.5 36.5
q-8 -31 -21.5 -70t-32 -79.5t-42 -79t-52.5 -68.5t-63.5 -48t-74.5 -18q-15 0 -33.5 4.5t-35.5 13.5t-28.5 22.5t-11.5 31.5q0 14 6 23t15 16.5t19 14.5t18 15q21 21 42.5 60.5t41.5 89t38.5 105t34.5 108.5t28 99t19 76q-22 -2 -42.5 -13t-36.5 -27.5t-25.5 -37.5t-9.5 -43
q0 -20 8.5 -36.5t8.5 -35.5q0 -13 -9 -24q-13 -17 -31.5 -34t-39.5 -30.5t-43.5 -21.5t-45.5 -8q-26 0 -45.5 10t-32 26.5t-18.5 38t-6 45.5q0 53 19 98t51.5 81.5t75.5 64.5t90.5 47t97 28.5t95.5 9.5q67 0 107 -21.5t61 -59t27 -88t6 -107.5q0 -27 -1 -53.5t-3 -53.5
q8 26 17 64.5t20.5 81.5t27 86t36.5 77t48 55.5t63 21.5q13 0 31 -3t34.5 -10t28.5 -18.5t12 -27.5z" />
    <glyph glyph-name="Ograve" unicode="&#xd2;" horiz-adv-x="669" 
d="M475 1023q0 18 10 31t25.5 22t33.5 13t33 4q35 0 60.5 -18t31.5 -53q3 -14 8 -39t10 -51.5t9 -50.5t4 -36q0 -13 -7.5 -22t-21.5 -9h-83q-26 0 -38.5 9.5t-20.5 33.5q-4 13 -13 36t-18 48t-16 47.5t-7 34.5zM548 792q59 0 103 -20.5t73 -56.5t43.5 -84.5t14.5 -103.5
q0 -60 -15.5 -124t-43.5 -125t-69 -116t-91 -96.5t-109.5 -65.5t-125.5 -24q-59 0 -103 20.5t-73 56t-43.5 83.5t-14.5 103q0 60 15.5 124t43.5 125.5t69 116.5t91 96.5t109.5 66t125.5 24.5zM361 101q19 0 38 17t36 44t32.5 59.5t28 64.5t21 58.5t12.5 40.5q12 45 20.5 91
t8.5 93q0 10 -1 26.5t-5.5 32.5t-13 27.5t-23.5 11.5q-19 0 -38 -17t-36 -43.5t-32.5 -59.5t-28 -64t-21 -57.5t-12.5 -40.5q-12 -45 -20.5 -91.5t-8.5 -93.5q0 -10 1 -26.5t5.5 -32.5t13 -28t23.5 -12z" />
    <glyph glyph-name="Oacute" unicode="&#xd3;" horiz-adv-x="669" 
d="M439 814q-7 0 -13 2.5t-6 10.5q0 9 7 18l126 177q23 32 58 51.5t74 19.5q11 0 23 -2.5t22.5 -8.5t17.5 -15t7 -22q0 -22 -13 -36l-137 -152q-18 -20 -36 -31.5t-47 -11.5h-83zM548 792q59 0 103 -20.5t73 -56.5t43.5 -84.5t14.5 -103.5q0 -60 -15.5 -124t-43.5 -125
t-69 -116t-91 -96.5t-109.5 -65.5t-125.5 -24q-59 0 -103 20.5t-73 56t-43.5 83.5t-14.5 103q0 60 15.5 124t43.5 125.5t69 116.5t91 96.5t109.5 66t125.5 24.5zM361 101q19 0 38 17t36 44t32.5 59.5t28 64.5t21 58.5t12.5 40.5q12 45 20.5 91t8.5 93q0 10 -1 26.5
t-5.5 32.5t-13 27.5t-23.5 11.5q-19 0 -38 -17t-36 -43.5t-32.5 -59.5t-28 -64t-21 -57.5t-12.5 -40.5q-12 -45 -20.5 -91.5t-8.5 -93.5q0 -10 1 -26.5t5.5 -32.5t13 -28t23.5 -12z" />
    <glyph glyph-name="Ocircumflex" unicode="&#xd4;" horiz-adv-x="669" 
d="M765 895q0 -18 -8.5 -30.5t-22 -21t-30 -12t-31.5 -3.5q-13 0 -27.5 3t-27 9.5t-20.5 17t-8 26.5q0 12 3 32t7 41.5t8.5 42.5t6.5 34l-55 -142q-6 -16 -19 -28t-29 -20t-34 -12t-34 -4q-10 0 -21.5 2t-21 7t-16 13.5t-6.5 20.5q0 19 14 35l120 134q16 18 33 28.5t42 10.5
h77q23 0 34 -9t19 -30q4 -12 12 -32t15.5 -41t13.5 -40.5t6 -31.5zM548 792q59 0 103 -20.5t73 -56.5t43.5 -84.5t14.5 -103.5q0 -60 -15.5 -124t-43.5 -125t-69 -116t-91 -96.5t-109.5 -65.5t-125.5 -24q-59 0 -103 20.5t-73 56t-43.5 83.5t-14.5 103q0 60 15.5 124
t43.5 125.5t69 116.5t91 96.5t109.5 66t125.5 24.5zM361 101q19 0 38 17t36 44t32.5 59.5t28 64.5t21 58.5t12.5 40.5q12 45 20.5 91t8.5 93q0 10 -1 26.5t-5.5 32.5t-13 27.5t-23.5 11.5q-19 0 -38 -17t-36 -43.5t-32.5 -59.5t-28 -64t-21 -57.5t-12.5 -40.5
q-12 -45 -20.5 -91.5t-8.5 -93.5q0 -10 1 -26.5t5.5 -32.5t13 -28t23.5 -12z" />
    <glyph glyph-name="Otilde" unicode="&#xd5;" horiz-adv-x="669" 
d="M403 820q-9 0 -9 9l1 4q7 26 21 64.5t35 74t48.5 61t61.5 25.5q22 0 37.5 -9t29 -20t27 -20t31.5 -9q21 0 34.5 9t23 20t16.5 20t13 9q10 0 10 -10l-1 -4q-7 -26 -21 -64.5t-35.5 -74t-49 -60.5t-61.5 -25q-22 0 -37 9t-28.5 20t-27.5 20t-33 9q-21 0 -35 -9t-23 -20
t-15 -20t-13 -9zM548 792q59 0 103 -20.5t73 -56.5t43.5 -84.5t14.5 -103.5q0 -60 -15.5 -124t-43.5 -125t-69 -116t-91 -96.5t-109.5 -65.5t-125.5 -24q-59 0 -103 20.5t-73 56t-43.5 83.5t-14.5 103q0 60 15.5 124t43.5 125.5t69 116.5t91 96.5t109.5 66t125.5 24.5z
M361 101q19 0 38 17t36 44t32.5 59.5t28 64.5t21 58.5t12.5 40.5q12 45 20.5 91t8.5 93q0 10 -1 26.5t-5.5 32.5t-13 27.5t-23.5 11.5q-19 0 -38 -17t-36 -43.5t-32.5 -59.5t-28 -64t-21 -57.5t-12.5 -40.5q-12 -45 -20.5 -91.5t-8.5 -93.5q0 -10 1 -26.5t5.5 -32.5t13 -28
t23.5 -12z" />
    <glyph glyph-name="Odieresis" unicode="&#xd6;" horiz-adv-x="669" 
d="M463 817q-31 0 -44 24t-13 51q0 23 9 51.5t25.5 53.5t39 42t48.5 17q15 0 25.5 -7t17 -18t9.5 -24.5t3 -26.5q0 -23 -9 -51.5t-24.5 -53t-37.5 -41.5t-49 -17zM649 817q-31 0 -44 24t-13 51q0 23 9 51.5t25.5 53.5t39 42t48.5 17q15 0 26 -7t17.5 -18t9.5 -24.5t3 -26.5
q0 -23 -9 -51.5t-24.5 -53t-38 -41.5t-49.5 -17zM548 792q59 0 103 -20.5t73 -56.5t43.5 -84.5t14.5 -103.5q0 -60 -15.5 -124t-43.5 -125t-69 -116t-91 -96.5t-109.5 -65.5t-125.5 -24q-59 0 -103 20.5t-73 56t-43.5 83.5t-14.5 103q0 60 15.5 124t43.5 125.5t69 116.5
t91 96.5t109.5 66t125.5 24.5zM361 101q19 0 38 17t36 44t32.5 59.5t28 64.5t21 58.5t12.5 40.5q12 45 20.5 91t8.5 93q0 10 -1 26.5t-5.5 32.5t-13 27.5t-23.5 11.5q-19 0 -38 -17t-36 -43.5t-32.5 -59.5t-28 -64t-21 -57.5t-12.5 -40.5q-12 -45 -20.5 -91.5t-8.5 -93.5
q0 -10 1 -26.5t5.5 -32.5t13 -28t23.5 -12z" />
    <glyph glyph-name="Ugrave" unicode="&#xd9;" horiz-adv-x="901" 
d="M709 1023q0 18 10 31t25.5 22t33.5 13t33 4q35 0 60.5 -18t31.5 -53q3 -14 8 -39t10 -51.5t9 -50.5t4 -36q0 -13 -7.5 -22t-21.5 -9h-83q-26 0 -38.5 9.5t-20.5 33.5q-4 13 -13 36t-18 48t-16 47.5t-7 34.5zM1065 737q0 -5 -1 -9.5t-3 -9.5q-25 -65 -54 -142.5
t-54 -157.5t-41 -159.5t-16 -149.5l2 -21v-10q0 -12 -2.5 -24.5t-11.5 -21.5q-10 -10 -24 -20.5t-29.5 -18t-31.5 -12.5t-31 -5q-23 0 -39 9.5t-26.5 25.5t-15.5 35.5t-5 39.5q-15 -21 -40 -40.5t-54 -35t-59 -24.5t-56 -9q-30 0 -48 16.5t-28 40.5t-13 51.5t-3 50.5
q0 60 12.5 127.5t31.5 135.5t41.5 133.5t43.5 122.5q-21 -3 -41.5 -13.5t-36.5 -27t-26 -37.5t-10 -43q0 -20 8.5 -35.5t8.5 -34.5q0 -14 -9 -25q-13 -18 -31 -34.5t-39 -29.5t-43.5 -21t-45.5 -8q-52 0 -78 35t-26 83q0 57 23.5 103t62.5 82.5t89.5 63.5t105 44.5t108.5 26
t100 8.5q21 0 38.5 -2t30.5 -9t20 -21t7 -39q0 -31 -5.5 -65t-14 -68.5t-18 -67.5t-17.5 -63q-15 -57 -27.5 -115.5t-12.5 -117.5q0 -6 0.5 -17.5t3 -23t8 -19.5t15.5 -8t19 5t16 11q7 65 24 128.5t34 126.5q11 38 21.5 77t22.5 77q8 27 20.5 64t31 71t44.5 58t62 24
q13 0 32 -3.5t37 -11t30.5 -19t12.5 -27.5z" />
    <glyph glyph-name="Uacute" unicode="&#xda;" horiz-adv-x="901" 
d="M692 814q-7 0 -13 2.5t-6 10.5q0 9 7 18l126 177q23 32 58 51.5t74 19.5q11 0 23 -2.5t22.5 -8.5t17.5 -15t7 -22q0 -22 -13 -36l-137 -152q-18 -20 -36 -31.5t-47 -11.5h-83zM1065 737q0 -5 -1 -9.5t-3 -9.5q-25 -65 -54 -142.5t-54 -157.5t-41 -159.5t-16 -149.5l2 -21
v-10q0 -12 -2.5 -24.5t-11.5 -21.5q-10 -10 -24 -20.5t-29.5 -18t-31.5 -12.5t-31 -5q-23 0 -39 9.5t-26.5 25.5t-15.5 35.5t-5 39.5q-15 -21 -40 -40.5t-54 -35t-59 -24.5t-56 -9q-30 0 -48 16.5t-28 40.5t-13 51.5t-3 50.5q0 60 12.5 127.5t31.5 135.5t41.5 133.5
t43.5 122.5q-21 -3 -41.5 -13.5t-36.5 -27t-26 -37.5t-10 -43q0 -20 8.5 -35.5t8.5 -34.5q0 -14 -9 -25q-13 -18 -31 -34.5t-39 -29.5t-43.5 -21t-45.5 -8q-52 0 -78 35t-26 83q0 57 23.5 103t62.5 82.5t89.5 63.5t105 44.5t108.5 26t100 8.5q21 0 38.5 -2t30.5 -9t20 -21
t7 -39q0 -31 -5.5 -65t-14 -68.5t-18 -67.5t-17.5 -63q-15 -57 -27.5 -115.5t-12.5 -117.5q0 -6 0.5 -17.5t3 -23t8 -19.5t15.5 -8t19 5t16 11q7 65 24 128.5t34 126.5q11 38 21.5 77t22.5 77q8 27 20.5 64t31 71t44.5 58t62 24q13 0 32 -3.5t37 -11t30.5 -19t12.5 -27.5z
" />
    <glyph glyph-name="Ucircumflex" unicode="&#xdb;" horiz-adv-x="901" 
d="M1026 893q0 -18 -8.5 -30.5t-22 -20.5t-30 -11.5t-31.5 -3.5q-12 0 -26.5 3t-27 9.5t-21 17t-8.5 25.5q0 12 3 32t7 42t8.5 43t6.5 34l-55 -143q-6 -16 -19 -28t-29.5 -19.5t-34 -11.5t-33.5 -4q-10 0 -21.5 2t-21 7t-16 13.5t-6.5 20.5q0 19 14 35l120 134
q16 18 33 28.5t42 10.5h77q23 0 34 -9t19 -30q4 -12 12 -32t15.5 -41.5t13.5 -41t6 -31.5zM1065 737q0 -5 -1 -9.5t-3 -9.5q-25 -65 -54 -142.5t-54 -157.5t-41 -159.5t-16 -149.5l2 -21v-10q0 -12 -2.5 -24.5t-11.5 -21.5q-10 -10 -24 -20.5t-29.5 -18t-31.5 -12.5t-31 -5
q-23 0 -39 9.5t-26.5 25.5t-15.5 35.5t-5 39.5q-15 -21 -40 -40.5t-54 -35t-59 -24.5t-56 -9q-30 0 -48 16.5t-28 40.5t-13 51.5t-3 50.5q0 60 12.5 127.5t31.5 135.5t41.5 133.5t43.5 122.5q-21 -3 -41.5 -13.5t-36.5 -27t-26 -37.5t-10 -43q0 -20 8.5 -35.5t8.5 -34.5
q0 -14 -9 -25q-13 -18 -31 -34.5t-39 -29.5t-43.5 -21t-45.5 -8q-52 0 -78 35t-26 83q0 57 23.5 103t62.5 82.5t89.5 63.5t105 44.5t108.5 26t100 8.5q21 0 38.5 -2t30.5 -9t20 -21t7 -39q0 -31 -5.5 -65t-14 -68.5t-18 -67.5t-17.5 -63q-15 -57 -27.5 -115.5t-12.5 -117.5
q0 -6 0.5 -17.5t3 -23t8 -19.5t15.5 -8t19 5t16 11q7 65 24 128.5t34 126.5q11 38 21.5 77t22.5 77q8 27 20.5 64t31 71t44.5 58t62 24q13 0 32 -3.5t37 -11t30.5 -19t12.5 -27.5z" />
    <glyph glyph-name="Udieresis" unicode="&#xdc;" horiz-adv-x="901" 
d="M724 816q-15 0 -26 6.5t-18 17t-10 24t-3 26.5q0 23 9 51.5t25.5 54t38.5 42.5t49 17q15 0 25.5 -7t17 -18t9.5 -24.5t3 -26.5q0 -23 -9 -51.5t-24.5 -53t-37.5 -41.5t-49 -17zM910 816q-15 0 -26 6.5t-18 17t-10 24t-3 26.5q0 23 9 51.5t25.5 54t38.5 42.5t49 17
q15 0 26 -7t17.5 -18t9.5 -24.5t3 -26.5q0 -23 -9 -51.5t-24.5 -53t-38 -41.5t-49.5 -17zM1065 737q0 -5 -1 -9.5t-3 -9.5q-25 -65 -54 -142.5t-54 -157.5t-41 -159.5t-16 -149.5l2 -21v-10q0 -12 -2.5 -24.5t-11.5 -21.5q-10 -10 -24 -20.5t-29.5 -18t-31.5 -12.5t-31 -5
q-23 0 -39 9.5t-26.5 25.5t-15.5 35.5t-5 39.5q-15 -21 -40 -40.5t-54 -35t-59 -24.5t-56 -9q-30 0 -48 16.5t-28 40.5t-13 51.5t-3 50.5q0 60 12.5 127.5t31.5 135.5t41.5 133.5t43.5 122.5q-21 -3 -41.5 -13.5t-36.5 -27t-26 -37.5t-10 -43q0 -20 8.5 -35.5t8.5 -34.5
q0 -14 -9 -25q-13 -18 -31 -34.5t-39 -29.5t-43.5 -21t-45.5 -8q-52 0 -78 35t-26 83q0 57 23.5 103t62.5 82.5t89.5 63.5t105 44.5t108.5 26t100 8.5q21 0 38.5 -2t30.5 -9t20 -21t7 -39q0 -31 -5.5 -65t-14 -68.5t-18 -67.5t-17.5 -63q-15 -57 -27.5 -115.5t-12.5 -117.5
q0 -6 0.5 -17.5t3 -23t8 -19.5t15.5 -8t19 5t16 11q7 65 24 128.5t34 126.5q11 38 21.5 77t22.5 77q8 27 20.5 64t31 71t44.5 58t62 24q13 0 32 -3.5t37 -11t30.5 -19t12.5 -27.5z" />
    <glyph glyph-name="Yacute" unicode="&#xdd;" horiz-adv-x="900" 
d="M703 809q-7 0 -13 2.5t-6 10.5q0 9 7 18l126 178q22 31 58 50.5t74 19.5q11 0 23 -2.5t22.5 -8.5t17.5 -15t7 -22q0 -22 -13 -36l-137 -152q-18 -20 -36.5 -31.5t-46.5 -11.5h-83zM1068 713q0 -6 -1 -11.5t-3 -11.5l-51.5 -154.5t-47.5 -155.5q-20 -70 -34 -141t-34 -141
q-14 -52 -38.5 -112t-61 -111.5t-86 -85.5t-113.5 -34q-29 0 -56.5 9.5t-48.5 27.5t-33.5 43.5t-12.5 56.5q0 11 5.5 19t17.5 8t23.5 -3.5t24.5 -3.5q35 0 64 15t51 39.5t36.5 55.5t19.5 62q-15 -21 -39.5 -40.5t-53.5 -34t-58.5 -23.5t-55.5 -9q-30 0 -48 16.5t-28 41
t-13 52.5t-3 50q0 61 12.5 128t31 134.5t41 133t43.5 122.5q-21 -3 -41.5 -13.5t-36.5 -27t-26 -37.5t-10 -43q0 -20 8.5 -35.5t8.5 -34.5q0 -14 -9 -25q-13 -18 -31 -34.5t-39 -29.5t-43.5 -21t-45.5 -8q-52 0 -78 35t-26 83q0 58 24 104.5t63.5 83t90.5 63t106 43.5
t110 25.5t101 8.5q21 0 37.5 -2t28 -9t17.5 -21.5t6 -38.5q0 -31 -5.5 -65t-13.5 -68.5t-17.5 -67.5t-17.5 -63q-16 -59 -32 -122t-16 -125q0 -8 1 -18t4 -19t9 -15.5t17 -6.5q10 0 19 4t17 9q6 32 19.5 91t32.5 129t43 143.5t53 133.5t61.5 98t67.5 38q15 0 31.5 -7t30 -19
t22.5 -27t9 -31z" />
    <glyph glyph-name="Thorn" unicode="&#xde;" horiz-adv-x="648" 
d="M53 53q0 14 6.5 24t15.5 18q41 39 72.5 89t56 105t43 112t32.5 111q16 59 28 118t27 118q8 31 24 38.5t44 7.5q59 0 91 -24.5t32 -86.5q0 -17 -2.5 -34.5t-5.5 -34.5q14 3 28.5 4t28.5 1q37 0 69 -8.5t55 -26.5t36.5 -46.5t13.5 -68.5q0 -20 -3.5 -39.5t-8.5 -39.5
q-17 -61 -49 -106.5t-76.5 -74t-99 -40t-116.5 -5.5q-13 -34 -34.5 -68t-49.5 -60.5t-62.5 -43t-74.5 -16.5q-15 0 -36 5t-39.5 15t-32 24t-13.5 33zM420 244q36 4 63 26.5t45 54.5t27.5 68.5t9.5 67.5t-14 55t-49 26q-18 -75 -38.5 -149.5t-43.5 -148.5z" />
    <glyph glyph-name="germandbls" unicode="&#xdf;" horiz-adv-x="691" 
d="M383 89q0 17 14 30t28 19q25 11 47 25.5t38 34t25 43.5t9 53q0 26 -11 42t-24.5 29t-24.5 25.5t-11 31.5q0 22 9 35.5t23 23.5t30 19.5t30 22.5t23 32t9 49q0 16 -7.5 30t-25.5 14q-24 0 -42 -29t-33 -77t-29.5 -108.5t-31.5 -124.5t-39 -124.5t-52.5 -108.5t-71.5 -77
t-96 -29q-16 0 -37.5 5.5t-41 15.5t-32.5 25t-13 34q0 12 5 20.5t12.5 16t16 13.5t15.5 13q22 21 45 65.5t44 95t37.5 99t25.5 77.5q22 70 49 132.5t67 109t97 73.5t139 27q33 0 69 -6t66 -21t49.5 -41.5t19.5 -67.5q0 -30 -9.5 -61t-27 -57t-41.5 -46.5t-54 -29.5
q-3 -1 -10 -2.5t-14.5 -4t-13 -6t-5.5 -6.5q0 -5 4 -8.5t9.5 -6t11.5 -4t10 -3.5q46 -18 66.5 -57.5t20.5 -87.5t-21 -101.5t-56.5 -98t-82.5 -73.5t-99 -29q-54 0 -80.5 31.5t-26.5 83.5z" />
    <glyph glyph-name="agrave" unicode="&#xe0;" horiz-adv-x="559" 
d="M349 759q0 18 10 31t25.5 22t33.5 13t33 4q35 0 60.5 -18t31.5 -53q3 -14 8 -39t10 -51.5t9 -50.5t4 -36q0 -13 -7.5 -22t-21.5 -9h-83q-26 0 -38.5 9.5t-20.5 33.5q-4 13 -13 36t-18 48t-16 47.5t-7 34.5zM684 276q10 0 15.5 -8t5.5 -16q0 -4 -2 -12
q-15 -42 -37.5 -88.5t-54.5 -85.5t-73.5 -64.5t-93.5 -25.5q-51 0 -79 26t-27 78q-14 -21 -31.5 -39.5t-38.5 -33t-45 -23t-50 -8.5q-32 0 -53 13.5t-34 35.5t-18 48.5t-5 53.5q0 36 8.5 80t24.5 88.5t39.5 86.5t54 74.5t67.5 52.5t80 20q32 0 60.5 -11t51.5 -34
q24 24 56.5 34.5t66.5 10.5q11 0 24 -0.5t24 -4t19 -11t8 -22.5q0 -5 -1 -10.5t-3 -10.5q-10 -29 -23 -70.5t-25 -85.5t-20 -85.5t-8 -71.5q0 -4 1 -15.5t9 -11.5t18.5 16t20.5 36.5t18 40t11 25.5q6 14 15 21t24 7zM406 406q-8 2 -12 2q-14 0 -27 -15.5t-24 -39.5
t-19.5 -53.5t-15 -57t-10 -51t-3.5 -34.5v-7t1 -10t3 -9t6 -4q6 0 14 10.5t14.5 24t12 26.5t6.5 18z" />
    <glyph glyph-name="aacute" unicode="&#xe1;" horiz-adv-x="559" 
d="M341 548q-7 0 -13 3t-6 11q0 9 7 18l126 177q22 31 58 51t74 20q11 0 23 -2.5t22.5 -8.5t17.5 -15t7 -22q0 -22 -13 -36l-137 -152q-18 -20 -36 -32t-47 -12h-83zM684 276q10 0 15.5 -8t5.5 -16q0 -4 -2 -12q-15 -42 -37.5 -88.5t-54.5 -85.5t-73.5 -64.5t-93.5 -25.5
q-51 0 -79 26t-27 78q-14 -21 -31.5 -39.5t-38.5 -33t-45 -23t-50 -8.5q-32 0 -53 13.5t-34 35.5t-18 48.5t-5 53.5q0 36 8.5 80t24.5 88.5t39.5 86.5t54 74.5t67.5 52.5t80 20q32 0 60.5 -11t51.5 -34q24 24 56.5 34.5t66.5 10.5q11 0 24 -0.5t24 -4t19 -11t8 -22.5
q0 -5 -1 -10.5t-3 -10.5q-10 -29 -23 -70.5t-25 -85.5t-20 -85.5t-8 -71.5q0 -4 1 -15.5t9 -11.5t18.5 16t20.5 36.5t18 40t11 25.5q6 14 15 21t24 7zM406 406q-8 2 -12 2q-14 0 -27 -15.5t-24 -39.5t-19.5 -53.5t-15 -57t-10 -51t-3.5 -34.5v-7t1 -10t3 -9t6 -4
q6 0 14 10.5t14.5 24t12 26.5t6.5 18z" />
    <glyph glyph-name="acircumflex" unicode="&#xe2;" horiz-adv-x="559" 
d="M659 631q0 -18 -8.5 -30.5t-22 -21t-30 -12t-31.5 -3.5q-13 0 -27.5 3t-27 9.5t-20.5 17t-8 26.5q0 12 3 32t7 41.5t8.5 42.5t6.5 34l-55 -142q-6 -16 -19 -28t-29 -20t-34 -12t-34 -4q-10 0 -21.5 2t-21 7t-16 13.5t-6.5 20.5q0 19 14 35l120 134q16 18 33 28.5t42 10.5
h77q23 0 34 -9t19 -30q4 -12 12 -32t15.5 -41t13.5 -40.5t6 -31.5zM684 276q10 0 15.5 -8t5.5 -16q0 -4 -2 -12q-15 -42 -37.5 -88.5t-54.5 -85.5t-73.5 -64.5t-93.5 -25.5q-51 0 -79 26t-27 78q-14 -21 -31.5 -39.5t-38.5 -33t-45 -23t-50 -8.5q-32 0 -53 13.5t-34 35.5
t-18 48.5t-5 53.5q0 36 8.5 80t24.5 88.5t39.5 86.5t54 74.5t67.5 52.5t80 20q32 0 60.5 -11t51.5 -34q24 24 56.5 34.5t66.5 10.5q11 0 24 -0.5t24 -4t19 -11t8 -22.5q0 -5 -1 -10.5t-3 -10.5q-10 -29 -23 -70.5t-25 -85.5t-20 -85.5t-8 -71.5q0 -4 1 -15.5t9 -11.5
t18.5 16t20.5 36.5t18 40t11 25.5q6 14 15 21t24 7zM406 406q-8 2 -12 2q-14 0 -27 -15.5t-24 -39.5t-19.5 -53.5t-15 -57t-10 -51t-3.5 -34.5v-7t1 -10t3 -9t6 -4q6 0 14 10.5t14.5 24t12 26.5t6.5 18z" />
    <glyph glyph-name="atilde" unicode="&#xe3;" horiz-adv-x="559" 
d="M297 556q-9 0 -9 9l1 4q7 26 21 64.5t35 74t48.5 61t61.5 25.5q22 0 37.5 -9t29 -20t27 -20t31.5 -9q21 0 34.5 9t23 20t16.5 20t13 9q10 0 10 -10l-1 -4q-7 -26 -21 -64.5t-35.5 -74t-49 -60.5t-61.5 -25q-22 0 -37 9t-28.5 20t-27.5 20t-33 9q-21 0 -35 -9t-23 -20
t-15 -20t-13 -9zM684 276q10 0 15.5 -8t5.5 -16q0 -4 -2 -12q-15 -42 -37.5 -88.5t-54.5 -85.5t-73.5 -64.5t-93.5 -25.5q-51 0 -79 26t-27 78q-14 -21 -31.5 -39.5t-38.5 -33t-45 -23t-50 -8.5q-32 0 -53 13.5t-34 35.5t-18 48.5t-5 53.5q0 36 8.5 80t24.5 88.5t39.5 86.5
t54 74.5t67.5 52.5t80 20q32 0 60.5 -11t51.5 -34q24 24 56.5 34.5t66.5 10.5q11 0 24 -0.5t24 -4t19 -11t8 -22.5q0 -5 -1 -10.5t-3 -10.5q-10 -29 -23 -70.5t-25 -85.5t-20 -85.5t-8 -71.5q0 -4 1 -15.5t9 -11.5t18.5 16t20.5 36.5t18 40t11 25.5q6 14 15 21t24 7z
M406 406q-8 2 -12 2q-14 0 -27 -15.5t-24 -39.5t-19.5 -53.5t-15 -57t-10 -51t-3.5 -34.5v-7t1 -10t3 -9t6 -4q6 0 14 10.5t14.5 24t12 26.5t6.5 18z" />
    <glyph glyph-name="adieresis" unicode="&#xe4;" horiz-adv-x="559" 
d="M357 553q-31 0 -44 24t-13 51q0 23 9 51.5t25.5 53.5t39 42t48.5 17q15 0 25.5 -7t17 -18t9.5 -24.5t3 -26.5q0 -23 -9 -51.5t-24.5 -53t-37.5 -41.5t-49 -17zM543 553q-31 0 -44 24t-13 51q0 23 9 51.5t25.5 53.5t39 42t48.5 17q15 0 26 -7t17.5 -18t9.5 -24.5t3 -26.5
q0 -23 -9 -51.5t-24.5 -53t-38 -41.5t-49.5 -17zM684 276q10 0 15.5 -8t5.5 -16q0 -4 -2 -12q-15 -42 -37.5 -88.5t-54.5 -85.5t-73.5 -64.5t-93.5 -25.5q-51 0 -79 26t-27 78q-14 -21 -31.5 -39.5t-38.5 -33t-45 -23t-50 -8.5q-32 0 -53 13.5t-34 35.5t-18 48.5t-5 53.5
q0 36 8.5 80t24.5 88.5t39.5 86.5t54 74.5t67.5 52.5t80 20q32 0 60.5 -11t51.5 -34q24 24 56.5 34.5t66.5 10.5q11 0 24 -0.5t24 -4t19 -11t8 -22.5q0 -5 -1 -10.5t-3 -10.5q-10 -29 -23 -70.5t-25 -85.5t-20 -85.5t-8 -71.5q0 -4 1 -15.5t9 -11.5t18.5 16t20.5 36.5t18 40
t11 25.5q6 14 15 21t24 7zM406 406q-8 2 -12 2q-14 0 -27 -15.5t-24 -39.5t-19.5 -53.5t-15 -57t-10 -51t-3.5 -34.5v-7t1 -10t3 -9t6 -4q6 0 14 10.5t14.5 24t12 26.5t6.5 18z" />
    <glyph glyph-name="aring" unicode="&#xe5;" horiz-adv-x="559" 
d="M530 848q43 0 65.5 -25.5t22.5 -67.5q0 -33 -12.5 -68t-34.5 -63t-52.5 -46t-66.5 -18q-44 0 -66 26t-22 68q0 33 12.5 67.5t34.5 62.5t52.5 46t66.5 18zM444 684q0 -32 32 -32q14 0 25.5 6.5t19.5 17t12.5 23t4.5 25.5q0 33 -33 33q-14 0 -25 -6.5t-19 -17t-12.5 -23.5
t-4.5 -26zM684 276q10 0 15.5 -8t5.5 -16q0 -4 -2 -12q-15 -42 -37.5 -88.5t-54.5 -85.5t-73.5 -64.5t-93.5 -25.5q-51 0 -79 26t-27 78q-14 -21 -31.5 -39.5t-38.5 -33t-45 -23t-50 -8.5q-32 0 -53 13.5t-34 35.5t-18 48.5t-5 53.5q0 36 8.5 80t24.5 88.5t39.5 86.5
t54 74.5t67.5 52.5t80 20q32 0 60.5 -11t51.5 -34q24 24 56.5 34.5t66.5 10.5q11 0 24 -0.5t24 -4t19 -11t8 -22.5q0 -5 -1 -10.5t-3 -10.5q-10 -29 -23 -70.5t-25 -85.5t-20 -85.5t-8 -71.5q0 -4 1 -15.5t9 -11.5t18.5 16t20.5 36.5t18 40t11 25.5q6 14 15 21t24 7z
M406 406q-8 2 -12 2q-14 0 -27 -15.5t-24 -39.5t-19.5 -53.5t-15 -57t-10 -51t-3.5 -34.5v-7t1 -10t3 -9t6 -4q6 0 14 10.5t14.5 24t12 26.5t6.5 18z" />
    <glyph glyph-name="ccedilla" unicode="&#xe7;" horiz-adv-x="422" 
d="M543 271q11 0 19.5 -6.5t8.5 -18.5q0 -9 -5 -17q-25 -44 -57.5 -87.5t-72 -78.5t-86 -58.5t-100.5 -27.5l-4 -13q51 -32 51 -91q0 -33 -13 -62.5t-34.5 -51t-51 -34.5t-62.5 -13q-12 0 -29 3t-32.5 10t-26.5 17.5t-11 25.5q0 12 6 24.5t14 20.5q11 11 29 12t36.5 3.5
t35.5 11t24 35.5q3 9 3 18q0 15 -5.5 26t-14.5 22q0 6 3.5 18.5t5.5 17.5q-58 21 -84.5 58t-26.5 101q0 30 5 59.5t13 58.5q15 54 39.5 104.5t60.5 90t84 63t110 23.5q26 0 53 -5.5t49.5 -18t37 -33t14.5 -51.5q0 -24 -8.5 -47.5t-23.5 -43t-34.5 -35t-42.5 -23.5
q-2 -1 -8 -1q-13 0 -16 11.5t-4 26t-4 26t-15 11.5q-16 0 -29.5 -20t-23.5 -46.5t-16 -53t-6 -39.5q0 -28 13 -50t45 -22q26 0 49 13t42.5 32t35.5 42t28 42q5 9 13 15t19 6z" />
    <glyph glyph-name="egrave" unicode="&#xe8;" horiz-adv-x="436" 
d="M307 759q0 18 10 31t25.5 22t33.5 13t33 4q35 0 60.5 -18t31.5 -53q3 -14 8 -39t10 -51.5t9 -50.5t4 -36q0 -13 -7.5 -22t-21.5 -9h-83q-26 0 -38.5 9.5t-20.5 33.5q-4 13 -13 36t-18 48t-16 47.5t-7 34.5zM555 271q11 0 19.5 -6.5t8.5 -18.5q0 -9 -5 -17
q-25 -47 -59.5 -92.5t-77 -81t-93 -57.5t-108.5 -22q-85 0 -129 45.5t-44 129.5q0 29 4.5 57.5t12.5 56.5q15 57 40.5 105t62.5 83.5t86 55t112 19.5q26 0 52 -4.5t46 -16.5t32.5 -32t12.5 -51q0 -47 -17.5 -84.5t-47.5 -64.5t-69.5 -42.5t-83.5 -17.5q-1 -6 -1.5 -12.5
t-0.5 -12.5q0 -28 13 -48.5t44 -20.5q26 0 49.5 13t43.5 32t36.5 42t28.5 42q5 9 13 15t19 6zM323 268q14 5 29.5 13t29.5 19t23 25t9 30q0 9 -4 17t-15 8q-13 0 -24.5 -14t-21.5 -32.5t-16.5 -37.5t-9.5 -28z" />
    <glyph glyph-name="eacute" unicode="&#xe9;" horiz-adv-x="436" 
d="M281 550q-7 0 -13 2.5t-6 10.5q0 9 7 18l126 177q23 32 58 51.5t74 19.5q11 0 23 -2.5t22.5 -8.5t17.5 -15t7 -22q0 -22 -13 -36l-137 -152q-18 -20 -36 -31.5t-47 -11.5h-83zM555 271q11 0 19.5 -6.5t8.5 -18.5q0 -9 -5 -17q-25 -47 -59.5 -92.5t-77 -81t-93 -57.5
t-108.5 -22q-85 0 -129 45.5t-44 129.5q0 29 4.5 57.5t12.5 56.5q15 57 40.5 105t62.5 83.5t86 55t112 19.5q26 0 52 -4.5t46 -16.5t32.5 -32t12.5 -51q0 -47 -17.5 -84.5t-47.5 -64.5t-69.5 -42.5t-83.5 -17.5q-1 -6 -1.5 -12.5t-0.5 -12.5q0 -28 13 -48.5t44 -20.5
q26 0 49.5 13t43.5 32t36.5 42t28.5 42q5 9 13 15t19 6zM323 268q14 5 29.5 13t29.5 19t23 25t9 30q0 9 -4 17t-15 8q-13 0 -24.5 -14t-21.5 -32.5t-16.5 -37.5t-9.5 -28z" />
    <glyph glyph-name="ecircumflex" unicode="&#xea;" horiz-adv-x="436" 
d="M597 631q0 -18 -8.5 -30.5t-22 -21t-30 -12t-31.5 -3.5q-13 0 -27.5 3t-27 9.5t-20.5 17t-8 26.5q0 12 3 32t7 41.5t8.5 42.5t6.5 34l-55 -142q-6 -16 -19 -28t-29 -20t-34 -12t-34 -4q-10 0 -21.5 2t-21 7t-16 13.5t-6.5 20.5q0 19 14 35l120 134q16 18 33 28.5t42 10.5
h77q23 0 34 -9t19 -30q4 -12 12 -32t15.5 -41t13.5 -40.5t6 -31.5zM555 271q11 0 19.5 -6.5t8.5 -18.5q0 -9 -5 -17q-25 -47 -59.5 -92.5t-77 -81t-93 -57.5t-108.5 -22q-85 0 -129 45.5t-44 129.5q0 29 4.5 57.5t12.5 56.5q15 57 40.5 105t62.5 83.5t86 55t112 19.5
q26 0 52 -4.5t46 -16.5t32.5 -32t12.5 -51q0 -47 -17.5 -84.5t-47.5 -64.5t-69.5 -42.5t-83.5 -17.5q-1 -6 -1.5 -12.5t-0.5 -12.5q0 -28 13 -48.5t44 -20.5q26 0 49.5 13t43.5 32t36.5 42t28.5 42q5 9 13 15t19 6zM323 268q14 5 29.5 13t29.5 19t23 25t9 30q0 9 -4 17
t-15 8q-13 0 -24.5 -14t-21.5 -32.5t-16.5 -37.5t-9.5 -28z" />
    <glyph glyph-name="edieresis" unicode="&#xeb;" horiz-adv-x="436" 
d="M295 553q-31 0 -44 24t-13 51q0 23 9 51.5t25.5 53.5t39 42t48.5 17q15 0 25.5 -7t17 -18t9.5 -24.5t3 -26.5q0 -23 -9 -51.5t-24.5 -53t-37.5 -41.5t-49 -17zM481 553q-31 0 -44 24t-13 51q0 23 9 51.5t25.5 53.5t39 42t48.5 17q15 0 26 -7t17.5 -18t9.5 -24.5t3 -26.5
q0 -23 -9 -51.5t-24.5 -53t-38 -41.5t-49.5 -17zM555 271q11 0 19.5 -6.5t8.5 -18.5q0 -9 -5 -17q-25 -47 -59.5 -92.5t-77 -81t-93 -57.5t-108.5 -22q-85 0 -129 45.5t-44 129.5q0 29 4.5 57.5t12.5 56.5q15 57 40.5 105t62.5 83.5t86 55t112 19.5q26 0 52 -4.5t46 -16.5
t32.5 -32t12.5 -51q0 -47 -17.5 -84.5t-47.5 -64.5t-69.5 -42.5t-83.5 -17.5q-1 -6 -1.5 -12.5t-0.5 -12.5q0 -28 13 -48.5t44 -20.5q26 0 49.5 13t43.5 32t36.5 42t28.5 42q5 9 13 15t19 6zM323 268q14 5 29.5 13t29.5 19t23 25t9 30q0 9 -4 17t-15 8q-13 0 -24.5 -14
t-21.5 -32.5t-16.5 -37.5t-9.5 -28z" />
    <glyph glyph-name="igrave" unicode="&#xec;" horiz-adv-x="275" 
d="M196 759q0 18 10 31t25.5 22t33.5 13t33 4q35 0 60.5 -18t31.5 -53q3 -14 8 -39t10 -51.5t9 -50.5t4 -36q0 -13 -7.5 -22t-21.5 -9h-83q-26 0 -38.5 9.5t-20.5 33.5q-4 13 -13 36t-18 48t-16 47.5t-7 34.5zM408 276q10 0 15.5 -8t5.5 -16q0 -4 -2 -12q-15 -43 -37 -89.5
t-53.5 -85.5t-72.5 -64t-93 -25q-60 0 -87 32.5t-27 89.5q0 26 4.5 51.5t11.5 50.5l57 212q16 58 61.5 87t103.5 29q10 0 23 -0.5t24.5 -4t19.5 -11t8 -21.5q0 -5 -1 -10.5t-3 -10.5q-10 -28 -23 -70t-25 -87t-20 -87t-8 -70q0 -3 1 -14.5t8 -11.5q9 0 19.5 15.5t20.5 36
t18 40t11 26.5q12 28 40 28z" />
    <glyph glyph-name="iacute" unicode="&#xed;" horiz-adv-x="275" 
d="M190 550q-7 0 -13 2.5t-6 10.5q0 9 7 18l126 177q23 32 58 51.5t74 19.5q11 0 23 -2.5t22.5 -8.5t17.5 -15t7 -22q0 -22 -13 -36l-137 -152q-18 -20 -36 -31.5t-47 -11.5h-83zM408 276q10 0 15.5 -8t5.5 -16q0 -4 -2 -12q-15 -43 -37 -89.5t-53.5 -85.5t-72.5 -64
t-93 -25q-60 0 -87 32.5t-27 89.5q0 26 4.5 51.5t11.5 50.5l57 212q16 58 61.5 87t103.5 29q10 0 23 -0.5t24.5 -4t19.5 -11t8 -21.5q0 -5 -1 -10.5t-3 -10.5q-10 -28 -23 -70t-25 -87t-20 -87t-8 -70q0 -3 1 -14.5t8 -11.5q9 0 19.5 15.5t20.5 36t18 40t11 26.5
q12 28 40 28z" />
    <glyph glyph-name="icircumflex" unicode="&#xee;" horiz-adv-x="275" 
d="M497 631q0 -18 -8.5 -30.5t-22 -21t-30 -12t-31.5 -3.5q-13 0 -27.5 3t-27 9.5t-20.5 17t-8 26.5q0 12 3 32t7 41.5t8.5 42.5t6.5 34l-55 -142q-6 -16 -19 -28t-29 -20t-34 -12t-34 -4q-10 0 -21.5 2t-21 7t-16 13.5t-6.5 20.5q0 19 14 35l120 134q16 18 33 28.5t42 10.5
h77q23 0 34 -9t19 -30q4 -12 12 -32t15.5 -41t13.5 -40.5t6 -31.5zM408 276q10 0 15.5 -8t5.5 -16q0 -4 -2 -12q-15 -43 -37 -89.5t-53.5 -85.5t-72.5 -64t-93 -25q-60 0 -87 32.5t-27 89.5q0 26 4.5 51.5t11.5 50.5l57 212q16 58 61.5 87t103.5 29q10 0 23 -0.5t24.5 -4
t19.5 -11t8 -21.5q0 -5 -1 -10.5t-3 -10.5q-10 -28 -23 -70t-25 -87t-20 -87t-8 -70q0 -3 1 -14.5t8 -11.5q9 0 19.5 15.5t20.5 36t18 40t11 26.5q12 28 40 28z" />
    <glyph glyph-name="idieresis" unicode="&#xef;" horiz-adv-x="275" 
d="M194 553q-31 0 -44 24t-13 51q0 23 9 51.5t25.5 53.5t39 42t48.5 17q15 0 25.5 -7t17 -18t9.5 -24.5t3 -26.5q0 -23 -9 -51.5t-24.5 -53t-37.5 -41.5t-49 -17zM380 553q-31 0 -44 24t-13 51q0 23 9 51.5t25.5 53.5t39 42t48.5 17q15 0 26 -7t17.5 -18t9.5 -24.5t3 -26.5
q0 -23 -9 -51.5t-24.5 -53t-38 -41.5t-49.5 -17zM408 276q10 0 15.5 -8t5.5 -16q0 -4 -2 -12q-15 -43 -37 -89.5t-53.5 -85.5t-72.5 -64t-93 -25q-60 0 -87 32.5t-27 89.5q0 26 4.5 51.5t11.5 50.5l57 212q16 58 61.5 87t103.5 29q10 0 23 -0.5t24.5 -4t19.5 -11t8 -21.5
q0 -5 -1 -10.5t-3 -10.5q-10 -28 -23 -70t-25 -87t-20 -87t-8 -70q0 -3 1 -14.5t8 -11.5q9 0 19.5 15.5t20.5 36t18 40t11 26.5q12 28 40 28z" />
    <glyph glyph-name="ntilde" unicode="&#xf1;" horiz-adv-x="550" 
d="M272 556q-9 0 -9 9l1 4q7 26 21 64.5t35 74t48.5 61t61.5 25.5q22 0 37.5 -9t29 -20t27 -20t31.5 -9q21 0 34.5 9t23 20t16.5 20t13 9q10 0 10 -10l-1 -4q-7 -26 -21 -64.5t-35.5 -74t-49 -60.5t-61.5 -25q-22 0 -37 9t-28.5 20t-27.5 20t-33 9q-21 0 -35 -9t-23 -20
t-15 -20t-13 -9zM676 276q12 0 19.5 -5.5t7.5 -18.5q0 -4 -2 -12q-15 -43 -39.5 -90t-58.5 -85.5t-77 -63.5t-96 -25q-54 0 -80.5 28t-26.5 82q0 31 6.5 62t15.5 61.5t19.5 60.5t18.5 60q3 11 5.5 21t2.5 21q0 8 -3 15.5t-13 7.5q-8 0 -17.5 -5t-16.5 -10l-69 -253
q-3 -13 -6 -30t-7.5 -34.5t-11 -32t-18.5 -22.5q-21 -14 -48 -23t-53 -9q-42 0 -60 26.5t-18 64.5q0 18 2.5 36t7.5 35l74 274q16 58 61 87t103 29q9 0 21.5 -0.5t24 -3t19.5 -9t8 -18.5q0 -8 -2.5 -15t-4.5 -15q32 27 75 45t85 18q45 0 66.5 -23.5t21.5 -67.5
q0 -36 -11.5 -74t-26 -75t-26 -71t-11.5 -62q0 -9 3.5 -18t14.5 -9q14 0 25 11t21 27t19 35t17.5 35t18 27t20.5 11z" />
    <glyph glyph-name="ograve" unicode="&#xf2;" horiz-adv-x="496" 
d="M317 759q0 18 10 31t25.5 22t33.5 13t33 4q35 0 60.5 -18t31.5 -53q3 -14 8 -39t10 -51.5t9 -50.5t4 -36q0 -13 -7.5 -22t-21.5 -9h-83q-26 0 -38.5 9.5t-20.5 33.5q-4 13 -13 36t-18 48t-16 47.5t-7 34.5zM629 276q9 0 14.5 -7.5t5.5 -15.5q0 -7 -3 -13q-8 -19 -23 -45
t-34.5 -50t-42.5 -40.5t-47 -16.5q-20 0 -36 16q-42 -60 -100.5 -94t-132.5 -34q-80 0 -123.5 41t-43.5 122q0 29 4.5 57.5t12.5 55.5q15 55 40.5 105t62 88t85.5 60.5t111 22.5q81 0 123.5 -41t42.5 -122q0 -40 -9.5 -78.5t-9.5 -78.5q0 -6 2 -14.5t10 -8.5q15 0 24 14
t17 31.5t19.5 31.5t30.5 14zM270 130q14 0 27 16t24 41t19.5 55.5t14.5 59.5t9.5 52.5t3.5 35.5v11t-1.5 14t-5 12.5t-9.5 5.5q-13 0 -25.5 -16.5t-24 -42.5t-20.5 -57t-16 -60.5t-11 -53.5t-4 -35q0 -9 3 -23.5t16 -14.5z" />
    <glyph glyph-name="oacute" unicode="&#xf3;" horiz-adv-x="496" 
d="M281 550q-7 0 -13 2.5t-6 10.5q0 9 7 18l126 177q23 32 58 51.5t74 19.5q11 0 23 -2.5t22.5 -8.5t17.5 -15t7 -22q0 -22 -13 -36l-137 -152q-18 -20 -36 -31.5t-47 -11.5h-83zM629 276q9 0 14.5 -7.5t5.5 -15.5q0 -7 -3 -13q-8 -19 -23 -45t-34.5 -50t-42.5 -40.5
t-47 -16.5q-20 0 -36 16q-42 -60 -100.5 -94t-132.5 -34q-80 0 -123.5 41t-43.5 122q0 29 4.5 57.5t12.5 55.5q15 55 40.5 105t62 88t85.5 60.5t111 22.5q81 0 123.5 -41t42.5 -122q0 -40 -9.5 -78.5t-9.5 -78.5q0 -6 2 -14.5t10 -8.5q15 0 24 14t17 31.5t19.5 31.5t30.5 14
zM270 130q14 0 27 16t24 41t19.5 55.5t14.5 59.5t9.5 52.5t3.5 35.5v11t-1.5 14t-5 12.5t-9.5 5.5q-13 0 -25.5 -16.5t-24 -42.5t-20.5 -57t-16 -60.5t-11 -53.5t-4 -35q0 -9 3 -23.5t16 -14.5z" />
    <glyph glyph-name="ocircumflex" unicode="&#xf4;" horiz-adv-x="496" 
d="M594 631q0 -18 -8.5 -30.5t-22 -21t-30 -12t-31.5 -3.5q-13 0 -27.5 3t-27 9.5t-20.5 17t-8 26.5q0 12 3 32t7 41.5t8.5 42.5t6.5 34l-55 -142q-6 -16 -19 -28t-29 -20t-34 -12t-34 -4q-10 0 -21.5 2t-21 7t-16 13.5t-6.5 20.5q0 19 14 35l120 134q16 18 33 28.5t42 10.5
h77q23 0 34 -9t19 -30q4 -12 12 -32t15.5 -41t13.5 -40.5t6 -31.5zM629 276q9 0 14.5 -7.5t5.5 -15.5q0 -7 -3 -13q-8 -19 -23 -45t-34.5 -50t-42.5 -40.5t-47 -16.5q-20 0 -36 16q-42 -60 -100.5 -94t-132.5 -34q-80 0 -123.5 41t-43.5 122q0 29 4.5 57.5t12.5 55.5
q15 55 40.5 105t62 88t85.5 60.5t111 22.5q81 0 123.5 -41t42.5 -122q0 -40 -9.5 -78.5t-9.5 -78.5q0 -6 2 -14.5t10 -8.5q15 0 24 14t17 31.5t19.5 31.5t30.5 14zM270 130q14 0 27 16t24 41t19.5 55.5t14.5 59.5t9.5 52.5t3.5 35.5v11t-1.5 14t-5 12.5t-9.5 5.5
q-13 0 -25.5 -16.5t-24 -42.5t-20.5 -57t-16 -60.5t-11 -53.5t-4 -35q0 -9 3 -23.5t16 -14.5z" />
    <glyph glyph-name="otilde" unicode="&#xf5;" horiz-adv-x="496" 
d="M233 556q-9 0 -9 9l1 4q7 26 21 64.5t35 74t48.5 61t61.5 25.5q22 0 37.5 -9t29 -20t27 -20t31.5 -9q21 0 34.5 9t23 20t16.5 20t13 9q10 0 10 -10l-1 -4q-7 -26 -21 -64.5t-35.5 -74t-49 -60.5t-61.5 -25q-22 0 -37 9t-28.5 20t-27.5 20t-33 9q-21 0 -35 -9t-23 -20
t-15 -20t-13 -9zM629 276q9 0 14.5 -7.5t5.5 -15.5q0 -7 -3 -13q-8 -19 -23 -45t-34.5 -50t-42.5 -40.5t-47 -16.5q-20 0 -36 16q-42 -60 -100.5 -94t-132.5 -34q-80 0 -123.5 41t-43.5 122q0 29 4.5 57.5t12.5 55.5q15 55 40.5 105t62 88t85.5 60.5t111 22.5
q81 0 123.5 -41t42.5 -122q0 -40 -9.5 -78.5t-9.5 -78.5q0 -6 2 -14.5t10 -8.5q15 0 24 14t17 31.5t19.5 31.5t30.5 14zM270 130q14 0 27 16t24 41t19.5 55.5t14.5 59.5t9.5 52.5t3.5 35.5v11t-1.5 14t-5 12.5t-9.5 5.5q-13 0 -25.5 -16.5t-24 -42.5t-20.5 -57t-16 -60.5
t-11 -53.5t-4 -35q0 -9 3 -23.5t16 -14.5z" />
    <glyph glyph-name="odieresis" unicode="&#xf6;" horiz-adv-x="496" 
d="M291 553q-31 0 -44 24t-13 51q0 23 9 51.5t25.5 53.5t39 42t48.5 17q15 0 25.5 -7t17 -18t9.5 -24.5t3 -26.5q0 -23 -9 -51.5t-24.5 -53t-37.5 -41.5t-49 -17zM477 553q-31 0 -44 24t-13 51q0 23 9 51.5t25.5 53.5t39 42t48.5 17q15 0 26 -7t17.5 -18t9.5 -24.5t3 -26.5
q0 -23 -9 -51.5t-24.5 -53t-38 -41.5t-49.5 -17zM629 276q9 0 14.5 -7.5t5.5 -15.5q0 -7 -3 -13q-8 -19 -23 -45t-34.5 -50t-42.5 -40.5t-47 -16.5q-20 0 -36 16q-42 -60 -100.5 -94t-132.5 -34q-80 0 -123.5 41t-43.5 122q0 29 4.5 57.5t12.5 55.5q15 55 40.5 105t62 88
t85.5 60.5t111 22.5q81 0 123.5 -41t42.5 -122q0 -40 -9.5 -78.5t-9.5 -78.5q0 -6 2 -14.5t10 -8.5q15 0 24 14t17 31.5t19.5 31.5t30.5 14zM270 130q14 0 27 16t24 41t19.5 55.5t14.5 59.5t9.5 52.5t3.5 35.5v11t-1.5 14t-5 12.5t-9.5 5.5q-13 0 -25.5 -16.5t-24 -42.5
t-20.5 -57t-16 -60.5t-11 -53.5t-4 -35q0 -9 3 -23.5t16 -14.5z" />
    <glyph glyph-name="ugrave" unicode="&#xf9;" horiz-adv-x="548" 
d="M333 759q0 18 10 31t25.5 22t33.5 13t33 4q35 0 60.5 -18t31.5 -53q3 -14 8 -39t10 -51.5t9 -50.5t4 -36q0 -13 -7.5 -22t-21.5 -9h-83q-26 0 -38.5 9.5t-20.5 33.5q-4 13 -13 36t-18 48t-16 47.5t-7 34.5zM682 276q9 0 14.5 -8t5.5 -16q0 -4 -2 -12q-14 -40 -37.5 -86.5
t-55.5 -86t-72.5 -65.5t-90.5 -26q-42 0 -68 21.5t-37 62.5q-31 -38 -69 -61t-88 -23q-63 0 -92.5 35t-29.5 95q0 24 4 47.5t10 46.5l57 212q16 58 61 87t103 29q11 0 24 -0.5t24.5 -4t19.5 -11t8 -22.5q0 -6 -1 -11t-3 -10q-10 -29 -23 -71t-25 -86.5t-20.5 -86.5t-8.5 -71
v-5t1 -8t2.5 -7.5t4.5 -3.5q5 0 12.5 7t15 17t13 19.5t6.5 14.5l60 224q16 58 61 87t103 29q11 0 24 -0.5t24.5 -4t19.5 -11t8 -22.5q0 -6 -1 -11t-3 -10q-10 -28 -23.5 -70t-26 -87t-21 -87t-8.5 -71q0 -3 1 -13.5t8 -10.5q9 0 20.5 16t22 36t18.5 39.5t11 26.5q6 14 15 21
t24 7z" />
    <glyph glyph-name="uacute" unicode="&#xfa;" horiz-adv-x="548" 
d="M307 550q-7 0 -13 2.5t-6 10.5q0 9 7 18l126 177q23 32 58 51.5t74 19.5q11 0 23 -2.5t22.5 -8.5t17.5 -15t7 -22q0 -22 -13 -36l-137 -152q-18 -20 -36 -31.5t-47 -11.5h-83zM682 276q9 0 14.5 -8t5.5 -16q0 -4 -2 -12q-14 -40 -37.5 -86.5t-55.5 -86t-72.5 -65.5
t-90.5 -26q-42 0 -68 21.5t-37 62.5q-31 -38 -69 -61t-88 -23q-63 0 -92.5 35t-29.5 95q0 24 4 47.5t10 46.5l57 212q16 58 61 87t103 29q11 0 24 -0.5t24.5 -4t19.5 -11t8 -22.5q0 -6 -1 -11t-3 -10q-10 -29 -23 -71t-25 -86.5t-20.5 -86.5t-8.5 -71v-5t1 -8t2.5 -7.5
t4.5 -3.5q5 0 12.5 7t15 17t13 19.5t6.5 14.5l60 224q16 58 61 87t103 29q11 0 24 -0.5t24.5 -4t19.5 -11t8 -22.5q0 -6 -1 -11t-3 -10q-10 -28 -23.5 -70t-26 -87t-21 -87t-8.5 -71q0 -3 1 -13.5t8 -10.5q9 0 20.5 16t22 36t18.5 39.5t11 26.5q6 14 15 21t24 7z" />
    <glyph glyph-name="ucircumflex" unicode="&#xfb;" horiz-adv-x="548" 
d="M634 631q0 -18 -8.5 -30.5t-22 -21t-30 -12t-31.5 -3.5q-13 0 -27.5 3t-27 9.5t-20.5 17t-8 26.5q0 12 3 32t7 41.5t8.5 42.5t6.5 34l-55 -142q-6 -16 -19 -28t-29 -20t-34 -12t-34 -4q-10 0 -21.5 2t-21 7t-16 13.5t-6.5 20.5q0 19 14 35l120 134q16 18 33 28.5t42 10.5
h77q23 0 34 -9t19 -30q4 -12 12 -32t15.5 -41t13.5 -40.5t6 -31.5zM682 276q9 0 14.5 -8t5.5 -16q0 -4 -2 -12q-14 -40 -37.5 -86.5t-55.5 -86t-72.5 -65.5t-90.5 -26q-42 0 -68 21.5t-37 62.5q-31 -38 -69 -61t-88 -23q-63 0 -92.5 35t-29.5 95q0 24 4 47.5t10 46.5l57 212
q16 58 61 87t103 29q11 0 24 -0.5t24.5 -4t19.5 -11t8 -22.5q0 -6 -1 -11t-3 -10q-10 -29 -23 -71t-25 -86.5t-20.5 -86.5t-8.5 -71v-5t1 -8t2.5 -7.5t4.5 -3.5q5 0 12.5 7t15 17t13 19.5t6.5 14.5l60 224q16 58 61 87t103 29q11 0 24 -0.5t24.5 -4t19.5 -11t8 -22.5
q0 -6 -1 -11t-3 -10q-10 -28 -23.5 -70t-26 -87t-21 -87t-8.5 -71q0 -3 1 -13.5t8 -10.5q9 0 20.5 16t22 36t18.5 39.5t11 26.5q6 14 15 21t24 7z" />
    <glyph glyph-name="udieresis" unicode="&#xfc;" horiz-adv-x="548" 
d="M331 553q-31 0 -44 24t-13 51q0 23 9 51.5t25.5 53.5t39 42t48.5 17q15 0 25.5 -7t17 -18t9.5 -24.5t3 -26.5q0 -23 -9 -51.5t-24.5 -53t-37.5 -41.5t-49 -17zM517 553q-31 0 -44 24t-13 51q0 23 9 51.5t25.5 53.5t39 42t48.5 17q15 0 26 -7t17.5 -18t9.5 -24.5t3 -26.5
q0 -23 -9 -51.5t-24.5 -53t-38 -41.5t-49.5 -17zM682 276q9 0 14.5 -8t5.5 -16q0 -4 -2 -12q-14 -40 -37.5 -86.5t-55.5 -86t-72.5 -65.5t-90.5 -26q-42 0 -68 21.5t-37 62.5q-31 -38 -69 -61t-88 -23q-63 0 -92.5 35t-29.5 95q0 24 4 47.5t10 46.5l57 212q16 58 61 87
t103 29q11 0 24 -0.5t24.5 -4t19.5 -11t8 -22.5q0 -6 -1 -11t-3 -10q-10 -29 -23 -71t-25 -86.5t-20.5 -86.5t-8.5 -71v-5t1 -8t2.5 -7.5t4.5 -3.5q5 0 12.5 7t15 17t13 19.5t6.5 14.5l60 224q16 58 61 87t103 29q11 0 24 -0.5t24.5 -4t19.5 -11t8 -22.5q0 -6 -1 -11t-3 -10
q-10 -28 -23.5 -70t-26 -87t-21 -87t-8.5 -71q0 -3 1 -13.5t8 -10.5q9 0 20.5 16t22 36t18.5 39.5t11 26.5q6 14 15 21t24 7z" />
    <glyph glyph-name="yacute" unicode="&#xfd;" 
d="M309 550q-7 0 -13 2.5t-6 10.5q0 9 7 18l126 177q23 32 58 51.5t74 19.5q11 0 23 -2.5t22.5 -8.5t17.5 -15t7 -22q0 -22 -13 -36l-137 -152q-18 -20 -36 -31.5t-47 -11.5h-83zM671 265q11 0 19 -8.5t8 -19.5q0 -5 -1 -8.5t-3 -7.5q-32 -62 -79.5 -116.5t-104.5 -93.5
q-23 -56 -54 -106.5t-72 -88t-93 -59.5t-118 -22q-18 0 -39 2.5t-39 10.5t-29.5 22t-11.5 38q0 43 26.5 73.5t65 51.5t82 34t76.5 21q4 16 6.5 31.5t3.5 32.5q-28 -33 -68.5 -55t-84.5 -22q-28 0 -47.5 10.5t-31.5 28t-17.5 40.5t-5.5 48t4 49.5t11 48.5l57 212q16 58 61 87
t103 29q11 0 24 -0.5t24.5 -4t19.5 -11t8 -22.5q0 -6 -1 -11t-3 -10q-10 -29 -23 -70.5t-25 -86t-20 -86.5t-8 -71q0 -3 0.5 -14t7.5 -11q10 0 21.5 16.5t21 38.5t17 42.5t9.5 28.5q12 43 24 90.5t33 88t56 67t92 26.5q12 0 25.5 -0.5t24.5 -4t18.5 -12t7.5 -24.5
q0 -10 -3 -19q-24 -83 -47.5 -165t-46.5 -165q-2 -5 -3 -10.5t-2 -11.5q31 30 53.5 62.5t44.5 68.5q5 8 10.5 13t15.5 5zM271 -83q-9 -2 -31.5 -8.5t-46 -16.5t-41.5 -22t-18 -25q0 -9 8.5 -10.5t14.5 -1.5q16 0 33 8.5t32 21t28 27.5t21 27z" />
    <glyph glyph-name="Scaron" unicode="&#x160;" horiz-adv-x="601" 
d="M395 1012q0 18 9 30.5t22.5 20.5t30 12t31.5 4q13 0 27.5 -3t26.5 -9.5t20 -17.5t8 -26q0 -13 -2.5 -32.5t-6.5 -41.5t-8 -42.5t-6 -34.5l53 143q6 16 19 28t29.5 20t34.5 12t34 4q10 0 21.5 -2t21 -7t15.5 -13.5t6 -20.5q0 -19 -14 -35l-120 -135q-16 -17 -33 -27.5
t-41 -10.5h-77q-22 0 -34 9t-20 29q-4 12 -12 32t-15.5 41.5t-13.5 41t-6 31.5zM224 342q14 0 19 -11.5t7 -22.5q3 -20 9.5 -52.5t19.5 -63t32.5 -52.5t47.5 -22q23 0 32.5 14t9.5 34q0 33 -14.5 62t-36.5 57t-48 56t-48 58t-36.5 63.5t-14.5 72.5q0 57 25 105.5t65.5 83.5
t92.5 54.5t106 19.5q32 0 73 -8t77 -25.5t60.5 -46t24.5 -69.5q0 -27 -10.5 -49.5t-28 -40.5t-40 -31t-45.5 -22q-6 -2 -9 -2q-14 0 -18.5 12t-6.5 23q-2 17 -6 39t-12.5 42t-22.5 34t-37 14t-42 -14t-19 -39q0 -22 16.5 -43t41.5 -44t53.5 -49t53.5 -57t41.5 -68t16.5 -83
q0 -71 -32 -126t-83.5 -93t-115.5 -58t-128 -20q-36 0 -77.5 7.5t-77.5 25.5t-59.5 48t-23.5 75q0 35 13.5 67t35.5 59.5t51 49t59 34.5q6 2 9 2z" />
    <glyph glyph-name="scaron" unicode="&#x161;" horiz-adv-x="521" 
d="M294 748q0 18 9 30.5t22.5 20.5t30 12t31.5 4q13 0 27.5 -3t26.5 -9.5t20 -17.5t8 -26q0 -13 -2.5 -32.5t-6.5 -41.5t-8 -42.5t-6 -34.5l53 143q6 16 19 28t29.5 20t34.5 12t34 4q10 0 21.5 -2t21 -7t15.5 -13.5t6 -20.5q0 -19 -14 -35l-120 -135q-16 -17 -33 -27.5
t-41 -10.5h-77q-22 0 -34 9t-20 29q-4 12 -12 32t-15.5 41.5t-13.5 41t-6 31.5zM650 275q8 -2 13.5 -7t5.5 -13q0 -6 -4 -14q-25 -54 -69.5 -102t-100 -84.5t-117.5 -57.5t-122 -21q-42 0 -78.5 11t-63.5 33.5t-42.5 55.5t-15.5 78q0 26 7.5 62t23.5 68t40 54.5t57 22.5
q26 0 44.5 -17.5t18.5 -43.5q0 -19 -5.5 -37t-11.5 -36t-11.5 -37.5t-5.5 -41.5q0 -11 2 -24t7.5 -24t15 -18.5t23.5 -7.5q30 0 46 24.5t16 51.5q0 26 -10 52.5t-22 54.5t-22 57.5t-10 62.5q0 38 13 68.5t36 51.5t54.5 32.5t68.5 11.5q12 0 29.5 -2.5t34 -9t28.5 -17
t12 -26.5q0 -15 -8.5 -24.5t-18 -19t-18 -22.5t-8.5 -36q0 -26 9 -50.5t18.5 -50t16.5 -53.5t3 -62q46 32 78 82q5 9 14.5 17.5t20.5 8.5h7z" />
    <glyph glyph-name="Ydieresis" unicode="&#x178;" horiz-adv-x="900" 
d="M738 817q-31 0 -44 24t-13 51q0 23 9 51.5t25.5 53.5t39 42t48.5 17q15 0 25.5 -7t17 -18t9.5 -24.5t3 -26.5q0 -23 -9 -51.5t-24.5 -53t-37.5 -41.5t-49 -17zM924 817q-31 0 -44 24t-13 51q0 23 9 51.5t25.5 53.5t39 42t48.5 17q15 0 26 -7t17.5 -18t9.5 -24.5t3 -26.5
q0 -23 -9 -51.5t-24.5 -53t-38 -41.5t-49.5 -17zM1068 713q0 -6 -1 -11.5t-3 -11.5l-51.5 -154.5t-47.5 -155.5q-20 -70 -34 -141t-34 -141q-14 -52 -38.5 -112t-61 -111.5t-86 -85.5t-113.5 -34q-29 0 -56.5 9.5t-48.5 27.5t-33.5 43.5t-12.5 56.5q0 11 5.5 19t17.5 8
t23.5 -3.5t24.5 -3.5q35 0 64 15t51 39.5t36.5 55.5t19.5 62q-15 -21 -39.5 -40.5t-53.5 -34t-58.5 -23.5t-55.5 -9q-30 0 -48 16.5t-28 41t-13 52.5t-3 50q0 61 12.5 128t31 134.5t41 133t43.5 122.5q-21 -3 -41.5 -13.5t-36.5 -27t-26 -37.5t-10 -43q0 -20 8.5 -35.5
t8.5 -34.5q0 -14 -9 -25q-13 -18 -31 -34.5t-39 -29.5t-43.5 -21t-45.5 -8q-52 0 -78 35t-26 83q0 32 9 60q14 48 43 86t68.5 68t86.5 51.5t96.5 35.5t98.5 20.5t93 6.5q21 0 37.5 -2t28 -9t17.5 -21.5t6 -38.5q0 -31 -5.5 -65t-13.5 -68.5t-17.5 -67.5t-17.5 -63
q-16 -59 -32 -122t-16 -125q0 -8 1 -18t4 -19t9 -15.5t17 -6.5q10 0 19 4t17 9q6 32 19.5 91t32.5 129t43 143.5t53 133.5t61.5 98t67.5 38q15 0 31.5 -7t30 -19t22.5 -27t9 -31z" />
    <glyph glyph-name="Zcaron" unicode="&#x17d;" horiz-adv-x="666" 
d="M418 1012q0 18 9 30.5t22.5 20.5t30 12t31.5 4q13 0 27.5 -3t26.5 -9.5t20 -17.5t8 -26q0 -13 -2.5 -32.5t-6.5 -41.5t-8 -42.5t-6 -34.5l53 143q6 16 19 28t29.5 20t34.5 12t34 4q10 0 21.5 -2t21 -7t15.5 -13.5t6 -20.5q0 -19 -14 -35l-120 -135q-16 -17 -33 -27.5
t-41 -10.5h-77q-22 0 -34 9t-20 29q-4 12 -12 32t-15.5 41.5t-13.5 41t-6 31.5zM668 292q11 0 17.5 -9.5t10 -22t4.5 -25.5t1 -21q0 -43 -14.5 -85.5t-41 -76.5t-64.5 -55t-85 -21q-32 0 -63.5 7t-62.5 12q-38 7 -76.5 11.5t-76.5 4.5q-29 0 -56.5 -3.5t-55.5 -14.5
q-7 -3 -17 -3q-12 0 -18.5 6t-10.5 14.5t-5 19t-1 19.5q0 17 5 35q5 20 16 40t25 38.5t29 36.5t28 33q88 102 179 199.5t185 194.5q-25 -13 -58 -31t-67.5 -34t-68.5 -27.5t-62 -11.5q-40 0 -60.5 23t-20.5 62q0 18 8 46.5t21.5 56.5t31.5 48t39 20q9 0 19 -3t21.5 -6
t25.5 -6t32 -3q34 0 67.5 5t66.5 11t66.5 11t67.5 5q75 0 109.5 -31.5t34.5 -106.5q0 -17 -10.5 -35.5t-22.5 -29.5q-57 -52 -106.5 -104.5t-97 -105t-95 -106.5t-98.5 -110q84 8 152.5 36t131.5 83q5 4 10 7t11 3z" />
    <glyph glyph-name="zcaron" unicode="&#x17e;" horiz-adv-x="529" 
d="M298 748q0 18 9 30.5t22.5 20.5t30 12t31.5 4q13 0 27.5 -3t26.5 -9.5t20 -17.5t8 -26q0 -13 -2.5 -32.5t-6.5 -41.5t-8 -42.5t-6 -34.5l53 143q6 16 19 28t29.5 20t34.5 12t34 4q10 0 21.5 -2t21 -7t15.5 -13.5t6 -20.5q0 -19 -14 -35l-120 -135q-16 -17 -33 -27.5
t-41 -10.5h-77q-22 0 -34 9t-20 29q-4 12 -12 32t-15.5 41.5t-13.5 41t-6 31.5zM124 -14q-14 0 -19.5 10t-5.5 22q0 45 20 79.5t49.5 62.5t64 52.5t64 50.5t49.5 55.5t20 67.5v12t-2 12q-16 -22 -40.5 -51t-53 -55t-60 -44t-61.5 -18q-29 0 -44 16.5t-15 45.5q0 28 12 57.5
t31 56.5t42 50t45 38q4 3 13 3q19 0 35.5 -8.5t36.5 -8.5q24 0 46.5 5.5t45 12.5t45 12.5t46.5 5.5t44.5 -7t36 -20t24.5 -32.5t9 -44.5q0 -42 -24 -81.5t-59.5 -72.5t-76.5 -59.5t-75 -43.5q5 1 8.5 1h8.5q39 0 73.5 -14.5t54.5 -50.5q35 32 60.5 67.5t49.5 76.5
q5 8 10.5 13t14.5 5q11 0 19 -8.5t8 -19.5q0 -5 -1 -8.5t-3 -7.5q-26 -52 -62 -99t-81 -84v-8q0 -67 -28.5 -121.5t-75 -93t-106 -59.5t-122.5 -21q-21 0 -46 3t-46 12t-35.5 25.5t-14.5 43.5q0 45 29.5 74t71.5 48t87.5 31.5t77.5 23.5q-9 14 -25.5 17.5t-31.5 3.5
q-19 0 -40 -5t-40 -10.5t-34.5 -10.5t-23.5 -5zM318 -70q-11 -3 -41 -9.5t-61 -16.5t-55 -23.5t-24 -29.5q0 -11 13.5 -14t21.5 -3q23 0 45 7.5t41.5 20t35 30t24.5 38.5z" />
    <glyph glyph-name="ydieresis" unicode="&#xff;" 
d="M333 553q-31 0 -44 24t-13 51q0 23 9 51.5t25.5 53.5t39 42t48.5 17q15 0 25.5 -7t17 -18t9.5 -24.5t3 -26.5q0 -23 -9 -51.5t-24.5 -53t-37.5 -41.5t-49 -17zM519 553q-31 0 -44 24t-13 51q0 23 9 51.5t25.5 53.5t39 42t48.5 17q15 0 26 -7t17.5 -18t9.5 -24.5t3 -26.5
q0 -23 -9 -51.5t-24.5 -53t-38 -41.5t-49.5 -17zM671 265q11 0 19 -8.5t8 -19.5q0 -5 -1 -8.5t-3 -7.5q-32 -62 -79.5 -116.5t-104.5 -93.5q-23 -56 -54 -106.5t-72 -88t-93 -59.5t-118 -22q-18 0 -39 2.5t-39 10.5t-29.5 22t-11.5 38q0 43 26.5 73.5t65 51.5t82 34t76.5 21
q4 16 6.5 31.5t3.5 32.5q-28 -33 -68.5 -55t-84.5 -22q-28 0 -47.5 10.5t-31.5 28t-17.5 40.5t-5.5 48t4 49.5t11 48.5l57 212q16 58 61 87t103 29q11 0 24 -0.5t24.5 -4t19.5 -11t8 -22.5q0 -6 -1 -11t-3 -10q-10 -29 -23 -70.5t-25 -86t-20 -86.5t-8 -71q0 -3 0.5 -14
t7.5 -11q10 0 21.5 16.5t21 38.5t17 42.5t9.5 28.5q12 43 24 90.5t33 88t56 67t92 26.5q12 0 25.5 -0.5t24.5 -4t18.5 -12t7.5 -24.5q0 -10 -3 -19q-24 -83 -47.5 -165t-46.5 -165q-2 -5 -3 -10.5t-2 -11.5q31 30 53.5 62.5t44.5 68.5q5 8 10.5 13t15.5 5zM271 -83
q-9 -2 -31.5 -8.5t-46 -16.5t-41.5 -22t-18 -25q0 -9 8.5 -10.5t14.5 -1.5q16 0 33 8.5t32 21t28 27.5t21 27z" />
    <glyph glyph-name="uniE3AB" unicode="&#xe3ab;" horiz-adv-x="552" 
d="M420 -24q-47 0 -67 30.5t-15 73.5q-14 -21 -31.5 -39.5t-38.5 -33t-45 -23t-50 -8.5q-32 0 -53 13.5t-34 35.5t-18 48.5t-5 53.5q0 36 8.5 80t24.5 88.5t39.5 86.5t54 74.5t67.5 52.5t80 20q32 0 60.5 -11t51.5 -34q24 24 56.5 34.5t66.5 10.5q11 0 24.5 -0.5t25 -4
t19 -11.5t7.5 -23q0 -5 -8.5 -35t-19.5 -66t-21 -68.5t-13 -42.5q-11 -42 -20 -84t-11 -86q-1 -18 -5 -39t-16 -35q-20 -26 -50.5 -42t-63.5 -16zM406 406q-8 2 -12 2q-14 0 -26.5 -15t-23.5 -39t-20 -53t-15 -56t-9.5 -50t-3.5 -34v-8.5t1 -11t3.5 -10t6.5 -4.5q8 0 15 10
t13.5 23.5t11 26.5t5.5 19z" />
    <glyph glyph-name="uniE3B7" unicode="&#xe3b7;" horiz-adv-x="550" 
d="M441 754l-5.5 -20.5t-14.5 -51t-19 -66t-19.5 -67.5t-16 -55t-7.5 -27q26 26 60.5 43.5t72.5 17.5q31 0 51.5 -13t33 -33.5t17.5 -46.5t5 -52q0 -32 -5.5 -63t-13.5 -61q-16 -57 -43.5 -108.5t-67 -90.5t-91 -61.5t-115.5 -22.5q-91 0 -138 50.5t-47 140.5q0 59 17 119
l106 390q16 58 60 87t103 29q11 0 24 -0.5t25 -4t20 -11t8 -22.5zM269 113q0 -6 2 -18t11 -12q12 0 24.5 17t24.5 44t22.5 59t18.5 62.5t12.5 54.5t4.5 35q0 5 -0.5 12t-2.5 14t-6 12t-10 5q-9 0 -18 -6t-16 -12l-59 -217q-3 -12 -5.5 -24.5t-2.5 -25.5z" />
    <glyph glyph-name="uniE3AC" unicode="&#xe3ac;" horiz-adv-x="427" 
d="M434 150q7 0 9.5 -5.5t2.5 -10.5q0 -11 -3 -20q-10 -36 -34.5 -62t-56.5 -43t-68.5 -25t-69.5 -8q-77 0 -114.5 41t-37.5 116q0 30 5 60t13 59q15 54 39.5 105t60.5 90.5t84 63.5t111 24q26 0 53 -5.5t49.5 -18t37 -33t14.5 -51.5q0 -24 -8.5 -47.5t-23.5 -43t-34.5 -35
t-42.5 -23.5q-2 -1 -8 -1q-13 0 -16 11.5t-4 26t-4 26t-15 11.5q-16 0 -30 -20t-24 -47t-15.5 -53.5t-5.5 -39.5q0 -27 12.5 -49t43.5 -22q14 0 26.5 4.5t22.5 10t18 10t13 4.5z" />
    <glyph glyph-name="uniE3AD" unicode="&#xe3ad;" 
d="M400 -24q-47 0 -67 30.5t-15 73.5q-13 -20 -29.5 -38.5t-36 -33t-42.5 -23.5t-48 -9q-30 0 -49 13.5t-30.5 35t-16 47.5t-4.5 50q0 34 8 77.5t23.5 88.5t38 88.5t51.5 77.5t65 54.5t77 20.5q48 0 86 -30l48 177q16 58 60.5 87t103.5 29q12 0 25.5 -0.5t25 -4t19.5 -12
t8 -24.5q0 -10 -3 -19q-34 -109 -65.5 -218t-61.5 -220q-12 -46 -22.5 -92t-13.5 -94q-1 -18 -5 -39t-16 -35q-20 -26 -50.5 -42t-63.5 -16zM386 406q-8 2 -12 2q-14 0 -27 -15.5t-24 -39.5t-19.5 -53.5t-15 -57t-10 -51t-3.5 -34.5v-7t1 -10t3 -9t6 -4q6 0 14 10.5t14.5 24
t12 26.5t6.5 18z" />
    <glyph glyph-name="uniE3E0" unicode="&#xe3e0;" horiz-adv-x="436" 
d="M434 150q7 0 9.5 -5.5t2.5 -10.5q0 -11 -3 -20q-10 -36 -34.5 -62t-56.5 -43t-68.5 -25t-69.5 -8q-77 0 -114.5 41t-37.5 116q0 31 5.5 61.5t13.5 59.5q17 58 42 108t61.5 87t86 58t114.5 21q26 0 52 -4.5t46 -16.5t32.5 -32t12.5 -51q0 -46 -17.5 -84t-47.5 -65
t-69.5 -42.5t-83.5 -17.5q-3 -16 -3 -32q0 -25 9.5 -43.5t38.5 -18.5q14 0 26 4.5t22 10t18 10t13 4.5zM323 268q14 5 29.5 13t29.5 19t23 25t9 30q0 9 -4 17t-15 8q-13 0 -24.5 -14t-21.5 -32.5t-16.5 -37.5t-9.5 -28z" />
    <glyph glyph-name="uniE3BF" unicode="&#xe3bf;" horiz-adv-x="528" 
d="M53 -154q0 8 2 16t13 8q14 0 28.5 -8t34.5 -8q36 0 65 19t49.5 48.5t32 64.5t12.5 66q-26 -30 -62 -53t-77 -23q-28 0 -46 12.5t-28 32.5t-14 44t-4 47q0 35 8 79t23.5 90.5t38.5 91t52.5 79t66 56t78.5 21.5q30 0 56.5 -11t46.5 -34q24 24 56.5 34.5t66.5 10.5
q12 0 25.5 -0.5t25 -4.5t19 -12.5t7.5 -24.5q0 -3 -7 -27.5t-17 -60.5t-22.5 -77.5t-24 -79.5t-20 -66.5t-10.5 -37.5q-18 -63 -46 -133.5t-70 -130.5t-100.5 -99.5t-136.5 -39.5q-56 0 -89 26t-33 85zM386 406q-8 2 -12 2q-14 0 -27 -15.5t-24 -39.5t-19.5 -53.5t-15 -57
t-10 -51t-3.5 -34.5v-7t1 -10t3 -9t6 -4q6 0 14 10.5t14.5 24t12 26.5t6.5 18z" />
    <glyph glyph-name="uniE3AE" unicode="&#xe3ae;" horiz-adv-x="314" 
d="M114 336q0 14 -3 26.5t-3 26.5q0 20 6 31.5t13.5 20t15.5 16.5t12 21q12 38 30 78t44.5 74t61.5 55.5t81 21.5q8 0 21.5 -1.5t26 -6t22 -11t9.5 -17.5q0 -7 -3 -13t-7 -11q-26 -35 -44 -70t-32 -77q3 2 11 7.5t16 10.5t15.5 9t10.5 4q10 0 12.5 -9t2.5 -17
q0 -52 -28.5 -87t-75.5 -53q-13 -57 -23.5 -113.5t-26.5 -112.5q-10 -37 -25.5 -81t-36.5 -89t-48 -87t-60 -74.5t-73 -52t-87 -19.5q-15 0 -32 4t-32 13t-25 22t-10 31q0 14 8.5 23.5t20.5 14.5q66 29 105 85t57 125q3 9 9 32t14 52.5t17 62t16.5 60.5t12 49t4.5 26z" />
    <glyph glyph-name="uniE3AF" unicode="&#xe3af;" horiz-adv-x="559" 
d="M413 -24q-24 0 -39.5 8.5t-25 22.5t-13 33t-3.5 40q0 63 17.5 126.5t34.5 123.5q3 11 5.5 21t2.5 21q0 8 -2.5 15t-12.5 7q-9 0 -18.5 -4.5t-16.5 -9.5l-69 -253q-3 -13 -6 -30t-7.5 -34.5t-11 -32t-18.5 -22.5q-21 -14 -48.5 -23t-52.5 -9q-42 0 -60 26.5t-18 64.5
q0 18 2.5 36t7.5 35l146 538q16 58 60 87t103 29q11 0 24 -0.5t25 -4t20 -11t8 -21.5l-6 -20.5t-14.5 -51.5t-19 -67t-19.5 -68t-15.5 -54.5t-7.5 -26.5q18 11 38.5 22t42.5 20t44.5 15t43.5 6q43 0 61 -25t18 -65q0 -20 -4 -40t-9 -40q-15 -58 -29.5 -116.5t-16.5 -118.5
q-1 -18 -3.5 -40t-13.5 -37q-21 -31 -53.5 -51.5t-70.5 -20.5z" />
    <glyph glyph-name="uniE3B0" unicode="&#xe3b0;" horiz-adv-x="275" 
d="M286 553q-40 0 -67.5 23.5t-27.5 65.5q0 30 14 57t36.5 48t51 33t57.5 12q40 0 67 -23t27 -65q0 -30 -13.5 -57.5t-36 -48t-51 -33t-57.5 -12.5zM144 -24q-25 0 -42 10.5t-26.5 27.5t-13.5 38.5t-4 42.5q0 26 4 52.5t11 52.5l57 212q16 58 61.5 87t103.5 29q11 0 24 -0.5
t24.5 -4t19.5 -11t8 -22.5q0 -3 -4 -17.5t-10 -34.5t-13 -43.5t-13.5 -44.5t-11.5 -37.5t-7 -23.5q-11 -42 -20 -83.5t-12 -84.5q-2 -17 -5.5 -39.5t-13.5 -37.5q-20 -29 -50.5 -48.5t-66.5 -19.5z" />
    <glyph glyph-name="uniE3C1" unicode="&#xe3c1;" horiz-adv-x="276" 
d="M284 553q-40 0 -67 23.5t-27 65.5q0 30 13.5 57t36 48t51 33t57.5 12q41 0 68 -23.5t27 -65.5q0 -30 -14 -57t-36.5 -48t-51 -33t-57.5 -12zM379 487q0 -2 -6.5 -26.5t-17 -60.5t-23 -78t-23.5 -79.5t-19 -66t-11 -37.5q-12 -42 -28 -88t-38 -91t-50.5 -85.5t-64 -71.5
t-78.5 -49t-95 -18q-57 0 -89.5 26.5t-32.5 85.5q0 8 2.5 16t12.5 8q11 0 23.5 -8t32.5 -8q33 0 60.5 21t48.5 51.5t36 64.5t22 61q25 89 47 177.5t48 176.5q17 60 61 90t105 30q12 0 25.5 -0.5t25 -4t19 -12t7.5 -24.5z" />
    <glyph glyph-name="uniE3B1" unicode="&#xe3b1;" horiz-adv-x="551" 
d="M562 106q0 -6 -3 -14q-9 -21 -23.5 -42t-33 -37.5t-40.5 -26.5t-47 -10q-28 0 -47.5 13.5t-32.5 36t-20 50t-10 56t-3.5 55t0.5 45.5l-29 -105q-3 -13 -6 -30t-7.5 -34.5t-11.5 -32t-18 -22.5q-21 -14 -48.5 -23t-52.5 -9q-42 0 -60 26.5t-18 64.5q0 18 2.5 36t7.5 35
l146 538q16 58 60 87t103 29q10 0 23.5 -0.5t25.5 -4t20 -11t8 -21.5l-6 -20.5t-14.5 -51.5t-19 -67t-19.5 -68t-15.5 -54.5t-7.5 -26.5q18 17 42.5 38t52 39t56 30t55.5 12q38 0 60.5 -22.5t22.5 -60.5q0 -34 -15 -63t-39 -51.5t-54 -38.5t-60 -24q2 -20 6 -44t11 -48
t16 -46.5t22 -38.5q8 -9 14.5 -19.5t6.5 -23.5zM325 319q17 3 44.5 12t53.5 22.5t45 31.5t19 41q0 13 -8.5 18t-19.5 5q-15 0 -31.5 -7t-32 -17.5t-29.5 -22.5t-24 -22z" />
    <glyph glyph-name="uniE3B2" unicode="&#xe3b2;" horiz-adv-x="277" 
d="M144 -24q-25 0 -41 10.5t-25.5 27t-13.5 37t-4 41.5q0 28 4 55t12 53l129 476q16 58 60.5 87t102.5 29q12 0 25.5 -0.5t25 -4t19.5 -12t8 -24.5q0 -10 -3 -19q-33 -109 -64.5 -216.5t-61.5 -216.5q-11 -42 -20.5 -83.5t-12.5 -84.5q-2 -18 -4.5 -39.5t-12.5 -37.5
q-20 -32 -52 -55t-71 -23z" />
    <glyph glyph-name="uniE3B3" unicode="&#xe3b3;" horiz-adv-x="808" 
d="M795 93q0 -14 -3 -29t-13 -26q-21 -25 -51 -43.5t-64 -18.5q-24 0 -39.5 9t-24.5 24t-13 34.5t-4 39.5q0 32 6 63.5t15 62t19 61t18 60.5q3 11 6 22.5t3 23.5q0 8 -3 15t-12 7q-8 0 -15.5 -3.5t-14.5 -5.5v-4q0 -8 -4 -21t-6 -21q-18 -68 -36.5 -135t-28.5 -136
q-2 -17 -10 -34t-23 -26q-23 -13 -53 -24.5t-56 -11.5q-38 0 -53.5 24.5t-15.5 59.5q0 21 4 41.5t9 40.5l51 188q3 11 5.5 21.5t2.5 21.5q0 7 -2.5 14.5t-11.5 7.5q-8 0 -18 -5.5t-18 -9.5l-69 -253q-3 -13 -6 -30t-7 -33.5t-11.5 -30.5t-19.5 -21q-25 -14 -53.5 -25
t-57.5 -11q-39 0 -54 24t-15 59q0 20 3.5 40t8.5 39l74 274q16 58 61 87t103 29q9 0 21.5 -0.5t24 -3.5t19 -10t7.5 -20q0 -15 -6 -27q31 26 73 44t83 18q35 0 59 -16.5t29 -52.5q36 28 80.5 48t91.5 20q89 0 89 -89q0 -32 -7 -63.5t-17.5 -62.5t-21.5 -61.5t-19 -60.5
q-8 -28 -8.5 -49t-0.5 -49z" />
    <glyph glyph-name="uniE3E1" unicode="&#xe3e1;" horiz-adv-x="550" 
d="M537 97q0 -14 -3 -30.5t-13 -28.5q-21 -25 -51 -43.5t-64 -18.5q-24 0 -39.5 9t-24.5 24t-13 34.5t-4 39.5q0 32 6 63t15 62t19 61t18 61q3 11 5.5 21t2.5 21q0 8 -3 15.5t-13 7.5q-8 0 -17.5 -5t-16.5 -10l-69 -253q-3 -13 -6 -30t-7.5 -34.5t-11.5 -32t-18 -22.5
q-21 -14 -48.5 -23t-52.5 -9q-42 0 -60 26.5t-18 64.5q0 18 2.5 36t7.5 35l74 274q16 58 61 87t103 29q9 0 21.5 -0.5t24 -3t19.5 -9t8 -18.5q0 -8 -2.5 -15t-4.5 -15q32 27 75 45t85 18q45 0 66 -24t21 -68q0 -41 -11.5 -80t-26 -78t-26 -78t-11.5 -80q0 -6 0.5 -12
t0.5 -13z" />
    <glyph glyph-name="uniE3C3" unicode="&#xe3c3;" horiz-adv-x="496" 
d="M379 528q80 0 123 -40.5t43 -121.5q0 -29 -4.5 -57.5t-12.5 -56.5q-15 -55 -40.5 -105t-62 -88t-85 -60.5t-110.5 -22.5q-80 0 -123.5 41t-43.5 122q0 29 4.5 57t12.5 56q15 55 40 105t62 88t86 60.5t111 22.5zM270 130q15 0 27.5 16t23.5 41t19.5 55.5t15 59.5t9.5 53
t3 36v11t-1.5 14t-5 12t-9.5 5q-13 0 -25.5 -16.5t-24 -42t-20.5 -57t-16 -61t-11 -53.5t-4 -35q0 -9 3 -23.5t16 -14.5z" />
    <glyph glyph-name="uniE3B4" unicode="&#xe3b4;" horiz-adv-x="551" 
d="M70 -241q-42 0 -60 27t-18 65q0 18 3 35.5t8 34.5l132 491q16 58 61.5 87t103.5 29q9 0 21 -0.5t23.5 -3t19.5 -9t8 -18.5q0 -8 -2.5 -15t-4.5 -15q31 26 72 44.5t82 18.5q29 0 47.5 -12t30 -31t16 -43t4.5 -48q0 -36 -9 -80.5t-26 -90.5t-42 -89t-56.5 -77t-69 -54.5
t-80.5 -20.5q-52 0 -90 34q-11 -41 -20 -81.5t-18 -82.5q-4 -17 -12 -34.5t-23 -27.5q-20 -13 -48 -23t-53 -10zM277 139q8 -5 16 -5q16 0 30 14t26 36t21.5 49.5t16.5 53.5t10.5 48.5t3.5 35.5q0 10 -3.5 20t-15.5 10q-11 0 -21.5 -6.5t-18.5 -14.5z" />
    <glyph glyph-name="uniE3B5" unicode="&#xe3b5;" horiz-adv-x="538" 
d="M335 -240q-48 0 -65.5 28.5t-17.5 71.5q0 48 12.5 97t25.5 95q-27 -29 -64 -52.5t-79 -23.5q-27 0 -44.5 12.5t-27 32t-13.5 42.5t-4 45q0 34 8 78.5t23.5 91.5t38 92t52 80.5t66 57t78.5 21.5q30 0 56.5 -11t46.5 -34q25 25 58 35t67 10q12 0 25.5 -0.5t25 -4t19 -12
t7.5 -24.5q0 -9 -3 -18q-19 -58 -42.5 -131.5t-44.5 -150.5t-36.5 -151t-20.5 -133q-2 -16 -4.5 -37.5t-12.5 -34.5q-23 -30 -57 -51t-73 -21zM386 406q-8 2 -12 2q-14 0 -27 -15.5t-24 -39.5t-19.5 -53t-15 -57t-10 -50.5t-3.5 -34.5q0 -2 0.5 -7t1.5 -10.5t3 -9.5t6 -4
q7 0 14 9t13 21t10.5 23.5t5.5 16.5z" />
    <glyph glyph-name="uniE3B6" unicode="&#xe3b6;" horiz-adv-x="482" 
d="M128 -24q-42 0 -60 26.5t-18 64.5q0 18 2.5 36t7.5 35l74 274q16 58 61 87t103 29q9 0 21.5 -0.5t24 -3t19.5 -9t8 -18.5q0 -8 -2.5 -15t-4.5 -15q29 24 66 42.5t75 18.5t60.5 -20.5t22.5 -58.5q0 -29 -14.5 -63t-38.5 -62.5t-54 -47.5t-61 -19q-47 0 -47 49
q0 18 5.5 35.5t5.5 35.5q0 8 -2.5 16t-12.5 8q-8 0 -17 -7t-11 -14l-69 -253q-3 -13 -6 -30t-7.5 -34.5t-11.5 -32t-18 -22.5q-21 -14 -48.5 -23t-52.5 -9z" />
    <glyph glyph-name="uniE3C2" unicode="&#xe3c2;" horiz-adv-x="521" 
d="M247 300q0 -19 -5.5 -37t-11.5 -36t-11.5 -37.5t-5.5 -41.5q0 -11 2 -24t7.5 -24t15 -18.5t23.5 -7.5q16 0 27.5 7t19.5 18t12 25t4 28q0 26 -9.5 51.5t-21 52.5t-21 56.5t-9.5 61.5q0 39 12.5 69.5t35.5 52.5t54.5 33.5t69.5 11.5q11 0 29 -2.5t34.5 -9t28.5 -17
t12 -26.5q0 -15 -8 -24.5t-17.5 -19t-17.5 -23t-8 -37.5q0 -23 7 -45.5t16 -46t16 -47.5t7 -50q0 -54 -25.5 -94.5t-66 -67.5t-90 -41t-96.5 -14q-42 0 -78.5 11t-63.5 33.5t-42.5 55.5t-15.5 78q0 26 7.5 62t23.5 68t40 54.5t57 22.5q26 0 44.5 -17.5t18.5 -43.5z" />
    <glyph glyph-name="uniE3B8" unicode="&#xe3b8;" horiz-adv-x="361" 
d="M305 180q-1 -23 6.5 -44.5t7.5 -44.5t-17 -44t-42 -37t-52 -25t-48 -9q-27 0 -45 10t-29 26.5t-15.5 38.5t-4.5 45q0 26 4.5 52.5t11.5 51.5l96 334q-24 0 -42 3.5t-30 12t-18 23.5t-6 40q0 6 2.5 17t7 21.5t11 18.5t13.5 8q9 0 14.5 -6.5t12 -14.5t16 -14.5t26.5 -6.5
h10.5t10.5 1q11 39 22.5 68.5t30.5 48.5t48 28.5t73 9.5q11 0 24.5 -0.5t25 -4t19 -12t7.5 -23.5q0 -7 -2.5 -17t-6 -21t-7.5 -21.5t-6 -17.5q11 3 21.5 5t21.5 2q26 0 41 -13.5t15 -39.5q0 -11 -4 -27t-11.5 -30.5t-18 -24.5t-23.5 -10q-12 0 -23.5 4t-23.5 4q-5 0 -9 -0.5
t-9 -1.5l-18 -3q-11 -40 -26 -85.5t-28.5 -93t-23 -94t-10.5 -87.5z" />
    <glyph glyph-name="uniE3B9" unicode="&#xe3b9;" horiz-adv-x="548" 
d="M416 -24q-38 0 -56 24.5t-21 59.5q-31 -38 -69 -61t-88 -23q-63 0 -92.5 35t-29.5 95q0 24 4 47.5t10 46.5l57 212q16 58 61 87t103 29q11 0 24 -0.5t24.5 -4t19.5 -11t8 -22.5q0 -6 -1 -11t-3 -10q-10 -29 -23 -71t-25 -86.5t-20.5 -86.5t-8.5 -71v-5t1 -8t2.5 -7.5
t4.5 -3.5q5 0 12.5 7t15 17t13 19.5t6.5 14.5l60 224q16 58 61 87t103 29q11 0 24 -0.5t24.5 -4t19.5 -11t8 -22.5q0 -6 -1 -11t-3 -10q-27 -79 -52.5 -163.5t-30.5 -168.5q-1 -17 -3.5 -39.5t-12.5 -37.5q-10 -16 -23.5 -31t-29.5 -27t-34.5 -19t-38.5 -7z" />
    <glyph glyph-name="uniE3E2" unicode="&#xe3e2;" horiz-adv-x="462" 
d="M421 462q0 11 9 23t22 22t27.5 16t24.5 6q16 0 25.5 -9t15 -21.5t7 -27.5t1.5 -27q0 -41 -11.5 -92t-33 -103t-51.5 -101t-67 -87.5t-80.5 -61.5t-91.5 -23q-40 0 -66.5 19.5t-42 49.5t-21.5 65.5t-6 68.5q0 32 4 70t13.5 77t25.5 75.5t39 64.5t54 45t71 17q11 0 24 -0.5
t24 -4t19 -11t8 -22.5q0 -5 -1 -10.5t-3 -10.5l-21 -63t-22 -74t-17 -74.5t-7 -65.5q0 -9 1 -19.5t4.5 -20t10 -16t18.5 -6.5q19 0 36 13.5t32 35.5t27 49t20.5 54t13.5 50.5t5 38.5q0 24 -6 37.5t-13.5 22t-14 15t-6.5 16.5z" />
    <glyph glyph-name="uniE3BA" unicode="&#xe3ba;" horiz-adv-x="729" 
d="M366 490q0 -6 -1 -11t-3 -10q-10 -29 -22.5 -67.5t-23.5 -79t-18.5 -80t-7.5 -69.5q0 -4 0.5 -11t2 -14t4.5 -12t9 -5q13 0 26.5 17.5t25 40.5t19.5 45t11 32q11 39 19.5 85t25.5 85t47.5 65.5t85.5 26.5q10 0 21 -1t20 -4.5t15 -11t6 -20.5q0 -6 -1 -11.5t-3 -10.5
l-21 -63t-22 -74t-17 -74.5t-7 -65.5q0 -9 1 -19.5t4.5 -20t10 -16t18.5 -6.5q19 0 36 13.5t32 35.5t27 49t20.5 54t13.5 50.5t5 38.5q0 24 -6 37.5t-13.5 22t-14 15t-6.5 16.5q0 11 9 23t22 22t27.5 16t24.5 6q16 0 25.5 -9t15 -21.5t7 -27.5t1.5 -27q0 -42 -11.5 -93
t-33 -103t-52 -101t-68.5 -87t-82 -61t-92 -23q-52 0 -77 27t-33 76q-32 -42 -77.5 -72.5t-100.5 -30.5q-34 0 -56.5 19t-35 47t-17.5 60t-5 59q0 31 5 70t15.5 80t27.5 80t41 69.5t55 49t70 18.5q11 0 24 -0.5t24.5 -4t19.5 -11t8 -22.5z" />
    <glyph glyph-name="uniE3BB" unicode="&#xe3bb;" horiz-adv-x="424" 
d="M433 103q0 -7 -3 -15q-9 -21 -22.5 -41.5t-31 -36t-39 -25t-45.5 -9.5q-30 0 -55.5 14.5t-44.5 37.5q-9 -8 -22 -18.5t-28 -20.5t-30 -16.5t-28 -6.5q-20 0 -25.5 16t-5.5 32q0 17 8 28.5t20 20.5t25.5 16.5t25.5 14.5q-22 34 -32 72.5t-10 78.5q0 47 13.5 97.5t41 91.5
t68.5 67.5t95 26.5q11 0 21.5 -1t18.5 -4.5t13.5 -11t5.5 -21.5q0 -11 -4 -21t-7 -21q-8 -27 -12 -56.5t-4 -58.5v-15q48 79 77 170q4 12 12.5 24t23.5 12q25 0 42.5 -19t17.5 -43q0 -28 -17 -63.5t-41 -71t-49.5 -67l-42.5 -52.5q7 -21 18 -39.5t29 -31.5q9 -6 16 -14
t7 -20z" />
    <glyph glyph-name="uniE3C4" unicode="&#xe3c4;" 
d="M371 490q0 -6 -1 -11t-3 -10q-10 -29 -23 -70.5t-25 -86t-20 -86.5t-8 -71q0 -3 0.5 -14t7.5 -11q10 0 21.5 16.5t21 38.5t17 42.5t9.5 28.5q12 43 24 90.5t33 88t55.5 67t92.5 26.5q12 0 25.5 -0.5t24.5 -4t18.5 -12t7.5 -24.5q0 -4 -6.5 -28.5t-16.5 -60t-21.5 -77
t-22.5 -79t-19 -66t-11 -38.5q-18 -63 -46 -133.5t-70 -130.5t-100.5 -99.5t-136.5 -39.5q-56 0 -89 26t-33 85q0 8 2 16t13 8q14 0 28.5 -8t34.5 -8q36 0 65 19t49.5 48.5t32 64.5t12.5 66q-28 -33 -68.5 -55t-84.5 -22q-28 0 -47.5 10.5t-31.5 28t-17.5 40.5t-5.5 48
t4 49.5t11 48.5l57 212q16 58 61 87t103 29q11 0 24 -0.5t24.5 -4t19.5 -11t8 -22.5z" />
    <glyph glyph-name="uniE3C5" unicode="&#xe3c5;" horiz-adv-x="529" 
d="M198 -203q0 3 20 17.5t44.5 37.5t44.5 53t20 64q0 28 -20.5 38t-44.5 10q-19 0 -40 -5t-40 -10.5t-34.5 -10.5t-23.5 -5q-14 0 -19.5 10t-5.5 22q0 45 20 79.5t49.5 62.5t64 52.5t64 50.5t49.5 55.5t20 67.5v12t-2 12q-17 -22 -43 -53t-57 -59t-64 -48t-64 -20
q-29 0 -44 16.5t-15 45.5t14 60t35 60t46 53.5t48 40.5q4 3 13 3q19 0 35.5 -8.5t36.5 -8.5q24 0 46.5 5.5t45 12.5t45 12.5t46.5 5.5t44.5 -7t36 -20t24.5 -32.5t9 -44.5q0 -42 -24 -81.5t-59.5 -72.5t-76.5 -59.5t-75 -43.5q29 0 55.5 -6.5t46.5 -20t32 -35.5t12 -55
q0 -58 -24 -106t-64 -82t-91.5 -52.5t-106.5 -18.5q-5 0 -17 0.5t-12 5.5z" />
    <glyph glyph-name="uniE3C6" unicode="&#xe3c6;" horiz-adv-x="797" 
d="M508 617q-3 15 -13.5 24t-26.5 9q-18 0 -32.5 -9t-24.5 -23t-15.5 -31t-5.5 -33q0 -7 1 -13t3 -12l4 -15q2 -6 3 -12t1 -13q0 -19 -16.5 -38.5t-40.5 -34.5t-49.5 -24.5t-43.5 -9.5q-24 0 -41 8.5t-28 23.5t-16.5 34.5t-5.5 41.5q0 16 2.5 31t6.5 30q16 60 53 105
t86.5 75.5t107.5 46t116 15.5q61 0 100 -15t62 -43.5t32 -71t9 -98.5q0 -52 -2.5 -103.5t-2.5 -104.5q0 -161 29 -268.5t95.5 -171.5t175 -90.5t267.5 -26.5q50 0 100 3t99.5 11.5t97 23.5t91.5 39q18 10 35 21.5t34 22.5q16 11 33 11q19 0 33.5 -13t24 -31t14.5 -38.5
t5 -35.5q0 -42 -18 -81t-46 -70q-40 -45 -92 -74.5t-110.5 -47t-119 -24.5t-117.5 -7q-96 0 -194 17t-189.5 52t-172.5 87.5t-142.5 123.5t-100 160t-45.5 196q-45 -13 -95 -13q-14 0 -27.5 1t-27.5 5q-18 -37 -46 -84.5t-64 -89t-79 -70t-91 -28.5q-45 0 -68.5 26.5
t-23.5 70.5q0 40 12.5 68.5t54.5 38.5q19 5 34 10t32 15q36 22 72.5 58.5t72.5 81.5t70 96.5t64 102t55.5 97.5t44.5 85zM446 300q6 -1 12 -1.5t12 -0.5q29 0 54 9v131z" />
    <glyph glyph-name="uniE3C7" unicode="&#xe3c7;" horiz-adv-x="897" 
d="M174 -43q0 14 6 22.5t16 16.5q14 12 27 22.5t26 24.5q50 54 90.5 129.5t72 158.5t54 167t34.5 155q-21 -2 -41.5 -12.5t-36.5 -27t-26 -37t-10 -42.5q0 -20 8.5 -36t8.5 -36q0 -13 -9 -24q-14 -18 -32 -34.5t-38.5 -30t-43 -21.5t-46.5 -8q-26 0 -45.5 9.5t-32 26
t-18.5 38t-6 45.5q0 66 27 116t72 86.5t103 61.5t119.5 39.5t122.5 21t111 6.5q38 0 90.5 -4.5t100.5 -20.5t81.5 -47t33.5 -84q0 -31 -10.5 -62t-28.5 -57t-43 -46.5t-54 -32.5q49 -15 69.5 -54.5t20.5 -87.5q0 -33 -7 -67.5t-19.5 -67.5t-29.5 -64t-36 -58
q73 -53 137 -100t131 -81.5t143 -54.5t173 -20q55 0 100 7t85 22.5t77.5 40.5t77.5 62q8 7 15 11.5t18 4.5q17 0 30.5 -14t22.5 -33t13.5 -40t4.5 -34q0 -32 -9.5 -62.5t-26.5 -56.5q-30 -50 -73 -84.5t-94 -56.5t-107 -32t-111 -10q-122 0 -219 36t-180 95.5t-157 136
t-151 156.5q-39 -31 -86 -52t-98 -21q-47 0 -79.5 24.5t-32.5 74.5q0 17 5 35q-16 -21 -35.5 -41.5t-42.5 -37t-48.5 -26.5t-53.5 -10q-15 0 -34 5.5t-36 15.5t-28.5 24t-11.5 32zM668 480q23 2 45 11t39 24t27.5 35.5t10.5 45.5q0 33 -22 53.5t-54 20.5q-11 -48 -22 -95
t-24 -95zM525 91q53 42 119 42q17 0 34 -2.5t34 -8.5q14 34 24 70t10 73q0 50 -25.5 84.5t-78.5 34.5q-41 -153 -117 -293zM579 -10q20 0 38.5 10.5t32.5 24.5q-11 7 -23.5 11t-26.5 4q-6 0 -14 -2.5t-15.5 -7t-13 -10.5t-5.5 -13q0 -11 9.5 -14t17.5 -3z" />
    <glyph glyph-name="uniE3C8" unicode="&#xe3c8;" horiz-adv-x="619" 
d="M519 456q0 13 2 25.5t2 26.5q0 10 -1.5 22.5t-6 24t-13 19.5t-21.5 8q-23 0 -43.5 -19.5t-37.5 -49.5t-31 -68t-23.5 -74t-14.5 -67.5t-5 -49.5q0 -20 3 -40t12 -38q29 54 78.5 88t112.5 34q45 0 73 -20.5t28 -67.5q0 -42 -20.5 -78t-52 -64t-70 -48t-74.5 -30
q27 -43 74.5 -75t107 -54.5t125.5 -37.5t131.5 -23.5t125 -11.5t104.5 -3q47 0 97.5 2.5t100.5 10.5t98 23t88 40q20 13 36 27t33 29q8 7 15.5 11t18.5 4q16 0 28.5 -12.5t21.5 -30.5t13.5 -37.5t4.5 -32.5q0 -33 -11.5 -64t-29.5 -57q-37 -54 -91 -90t-117 -58t-129.5 -31
t-127.5 -9q-72 0 -142.5 9t-139.5 26q-52 13 -110.5 33.5t-116 48t-111.5 63.5t-97 79.5t-72.5 95t-38.5 111.5q-109 2 -165.5 58.5t-56.5 165.5q0 63 15 131t44 133.5t70.5 125t93.5 104.5t114.5 71.5t132.5 26.5q39 0 77 -9t68 -28.5t48.5 -50.5t18.5 -76q0 -35 -13 -74
t-36.5 -72t-56.5 -54.5t-72 -21.5q-13 0 -25.5 2t-22 7.5t-15 15t-5.5 25.5zM397 130q9 -4 19 -5t20 -1q15 0 32.5 4t32.5 12.5t25.5 21.5t10.5 31t-12 26.5t-29 8.5q-19 0 -35 -9.5t-29 -23.5t-21.5 -31.5t-13.5 -33.5z" />
    <glyph glyph-name="uniE3C9" unicode="&#xe3c9;" horiz-adv-x="864" 
d="M129 -33q0 14 6.5 22t17.5 15q23 15 44 28.5t41 33.5q56 53 98.5 124t74 150t53.5 160.5t36 154.5q-21 -2 -41.5 -13t-36.5 -28t-26 -37.5t-10 -42.5q0 -20 8.5 -36t8.5 -35q0 -14 -9 -25q-14 -18 -32 -34.5t-38.5 -30t-43 -21.5t-46.5 -8q-26 0 -45.5 10t-32 26.5
t-18.5 38t-6 45.5q0 17 2.5 33.5t7.5 32.5q14 51 44 90t71.5 68t91 49t101 32.5t102.5 18t96 5.5q65 0 123.5 -11t103 -39t70.5 -76t26 -123q0 -58 -14 -123.5t-38.5 -129.5t-57 -122.5t-70.5 -103.5q72 -49 139 -99t137.5 -90t149 -65t172.5 -25q99 0 189 29t162 99
q7 7 14.5 12.5t18.5 5.5q16 0 28.5 -13.5t21 -32.5t13 -39t4.5 -32q0 -26 -8 -55q-16 -61 -55.5 -108t-92 -78.5t-113 -47.5t-119.5 -16q-80 0 -151.5 21.5t-137 57t-125.5 83t-117 99.5t-111.5 105.5t-108.5 101.5q-38 -27 -84.5 -48t-94.5 -21q-37 0 -64 18.5t-29 58.5
q-35 -38 -81 -66.5t-100 -28.5q-15 0 -35 5t-39 14.5t-32 23.5t-13 33zM711 671q-12 -66 -30 -136.5t-41 -140t-50.5 -136.5t-59.5 -126q34 13 66 13q27 0 56 -8q21 42 41 94.5t35.5 108t25 110.5t9.5 102q0 14 -1.5 33t-7 37t-15.5 32t-28 17zM599 52q-11 5 -23.5 8.5
t-25.5 3.5q-16 0 -33 -11t-17 -29q0 -11 8 -16.5t18 -5.5q22 0 41 17t32 33z" />
    <glyph glyph-name="uniE3CA" unicode="&#xe3ca;" horiz-adv-x="906" 
d="M437 464q0 -14 -8 -25q-13 -18 -31.5 -34.5t-39.5 -29.5t-43.5 -21t-45.5 -8q-26 0 -45.5 10t-32 26.5t-18.5 38t-6 45.5q0 16 2.5 31.5t6.5 30.5q20 72 67.5 122.5t110.5 82t134.5 45.5t138.5 14q38 0 76 -4t76 -9t75.5 -9t75.5 -4q23 0 45 2.5t45 9.5q8 2 12 2
q18 0 23.5 -12t5.5 -26q0 -36 -11.5 -65.5t-32 -51t-50 -33t-65.5 -11.5q-44 0 -84.5 16.5t-75.5 40.5q-11 -39 -19.5 -78.5t-19.5 -78.5q31 14 65 24t68 10q18 0 36.5 -4t33 -13t23.5 -24t9 -36q0 -25 -10 -47t-26.5 -39t-37.5 -29.5t-44 -20.5q-2 -1 -6 -1q-14 0 -20 13
t-11 23q-14 32 -41.5 44t-60.5 16q-14 -54 -32.5 -107.5t-41.5 -104.5q58 -34 116 -77t117.5 -87.5t121 -86.5t125.5 -75.5t131 -53.5t138 -20q45 0 79.5 7.5t64 23t55.5 39.5t54 57q7 8 14 13.5t18 5.5q16 0 27.5 -13.5t19 -32.5t11 -38.5t3.5 -31.5q0 -47 -18 -90.5
t-47.5 -79.5t-68.5 -63.5t-81 -43.5q-34 -14 -69 -20t-72 -8h-15q-84 0 -160.5 25t-147 66.5t-136.5 95t-128.5 111t-122 115t-118.5 106.5q-26 -36 -57 -67t-67 -53.5t-76.5 -35t-87.5 -12.5q-35 0 -66 8.5t-54.5 26.5t-37.5 45.5t-14 65.5q0 57 26 105t67.5 83t94 54.5
t105.5 19.5q17 0 33 -2t33 -4q39 95 67.5 193.5t50.5 198.5q-21 -3 -41.5 -13.5t-36.5 -27t-26 -37.5t-10 -43q0 -19 8 -35t8 -35zM352 128q-27 9 -55 9q-19 0 -42 -7t-43 -19.5t-33 -31t-13 -41.5q0 -18 12 -27t29 -9q24 0 45.5 13t40 32t34 41t25.5 40z" />
    <glyph glyph-name="uniE3CB" unicode="&#xe3cb;" horiz-adv-x="961" 
d="M1104 780q17 0 23 -11.5t6 -25.5q0 -36 -11.5 -65.5t-32 -51t-50 -33.5t-65.5 -12q-44 0 -84.5 16.5t-75.5 40.5q-11 -39 -19.5 -78.5t-19.5 -78.5q31 14 65 24t68 10q18 0 36.5 -4t33 -13t23.5 -24t9 -36q0 -25 -10 -47t-26.5 -39t-37.5 -29.5t-44 -20.5q-2 -1 -6 -1
q-15 0 -20 13t-14 29.5t-30 32.5t-69 21q-16 -65 -40 -144t-58 -159t-79 -155.5t-102 -134t-126.5 -94t-153.5 -35.5q-97 0 -152.5 52t-55.5 149q0 49 14.5 99.5t42 93t67.5 74t92 41.5h6q13 0 13 -10q0 -5 -6.5 -17.5t-15 -29.5t-15 -37.5t-6.5 -43.5q0 -35 17.5 -57.5
t54.5 -22.5q53 0 98 41t82.5 106t67 144.5t51.5 156t36.5 141.5t21.5 100q-21 -3 -41.5 -13.5t-36.5 -27t-26 -37.5t-10 -43q0 -19 8 -35t8 -35q0 -14 -8 -25q-13 -18 -31 -34.5t-39 -29.5t-44 -21t-46 -8q-26 0 -45 10t-31.5 26.5t-18.5 38t-6 45.5q0 17 2.5 34.5t7.5 34.5
q20 74 65.5 123t105.5 79t129.5 42.5t138.5 12.5q39 0 78.5 -4t78.5 -9t78 -9t78 -4q23 0 45 2.5t45 9.5q8 2 12 2z" />
    <glyph glyph-name="uniE3CC" unicode="&#xe3cc;" horiz-adv-x="606" 
d="M514 445q0 10 5.5 22t11.5 27t11.5 32t5.5 36q0 20 -9 38t-32 18q-29 0 -55.5 -24t-49.5 -61.5t-42 -84t-32 -91.5t-20.5 -84.5t-7.5 -62.5q0 -12 1.5 -25t7 -24.5t14.5 -19t24 -7.5q19 0 35 10.5t29 23.5q4 32 15.5 66t31 62t48 46.5t65.5 18.5q13 0 28.5 -2.5t29.5 -9
t23.5 -17.5t9.5 -27l-4 -18t-10.5 -45t-14.5 -58.5t-15 -60t-12.5 -49.5t-6.5 -26q-14 -52 -34 -96q92 -24 186 -53t189 -54t191 -42t193 -17q69 0 132 15t115 63q12 11 22 23.5t21 24.5q7 8 14.5 14t18.5 6t19 -8q27 -23 39.5 -54t12.5 -66q0 -48 -19 -90.5t-50.5 -77
t-71.5 -60t-83 -40.5q-36 -12 -73 -18t-75 -8h-18q-109 0 -217.5 33.5t-213 84.5t-204.5 110.5t-192 110.5q-48 -57 -110.5 -86t-137.5 -29q-25 0 -53.5 5t-52.5 17.5t-40 33t-16 52.5q0 41 23.5 70t58.5 47t75 26.5t73 8.5q11 0 23 -0.5t23 -1.5q17 35 28 78
q-35 -25 -76.5 -43t-85.5 -18q-42 0 -70.5 17t-46 44t-25 62t-7.5 71q0 60 15.5 127t44 132.5t69.5 125t92 105t111.5 72.5t128.5 27q40 0 76.5 -10t64 -30.5t44 -52t16.5 -75.5q0 -34 -12 -72t-33.5 -70.5t-52.5 -54t-70 -21.5q-9 0 -20.5 1.5t-21 5.5t-16 12t-6.5 20z
M232 -132q30 0 54.5 18t42.5 41q-30 8 -58 8q-9 0 -21.5 -2.5t-24.5 -8t-20 -14t-8 -20.5q0 -14 12 -18t23 -4z" />
    <glyph glyph-name="uniE3CD" unicode="&#xe3cd;" horiz-adv-x="892" 
d="M206 -37q0 14 6 24t17 19q14 12 27 24t25 26q45 53 82 127.5t66 156.5t49.5 164t32.5 150q-22 -2 -42.5 -13t-36.5 -27.5t-25.5 -37.5t-9.5 -43q0 -20 8.5 -36.5t8.5 -35.5q0 -13 -9 -24q-14 -17 -32 -34t-38.5 -30.5t-43 -21.5t-46.5 -8q-26 0 -45.5 10t-32 26.5
t-18.5 38t-6 45.5q0 18 2.5 35.5t7.5 34.5q20 73 64.5 122.5t103.5 80t128 43.5t137 13q24 0 52.5 -1.5t53.5 -10t42 -26.5t17 -50q0 -25 -9.5 -62.5t-23 -77.5t-27.5 -78t-22 -64h69q11 36 20 72.5t19 72.5q8 32 19 71t29 74t45.5 58.5t69.5 23.5q11 0 31.5 -3t40 -9.5
t34 -16.5t14.5 -25q0 -9 -5 -21q-29 -65 -58.5 -144t-53.5 -162.5t-39 -165.5t-15 -153q0 -70 20 -119t54 -81.5t80.5 -51t99 -27.5t109.5 -11.5t112 -3.5h28q47 0 95.5 2.5t95.5 10t92.5 22t87.5 38.5q19 11 36 23.5t34 24.5t34 12t31 -13.5t24 -32.5t15 -39.5t5 -34.5
q0 -52 -25 -95.5t-64 -77t-86 -57t-91 -36.5q-51 -14 -104 -20.5t-107 -6.5q-92 0 -185.5 17.5t-180 52t-162.5 86.5t-132 121.5t-88 156t-32 190.5q0 36 4 71.5t11 70.5h-74q-11 -31 -27.5 -72.5t-37.5 -85.5t-47.5 -86.5t-57.5 -76t-67.5 -54t-77.5 -20.5q-14 0 -32.5 4.5
t-34.5 13.5t-27 22.5t-11 31.5z" />
    <glyph glyph-name="uniE3CE" unicode="&#xe3ce;" horiz-adv-x="731" 
d="M379 -36q0 14 6.5 24t16.5 19q14 13 27 25t25 27q44 54 78 128t59.5 155t43.5 162.5t30 149.5q-30 -46 -70.5 -93.5t-89 -86.5t-103 -63.5t-113.5 -24.5q-63 0 -99 39t-36 101q0 40 13 79t35 74.5t51 66t60 53.5q7 5 13 5q10 0 12 -10t3 -16q6 -47 26.5 -73.5t72.5 -26.5
q43 0 86 18t88 39t93 39t100 18q43 0 59.5 -18.5t16.5 -61.5q0 -57 -14.5 -114.5t-28.5 -111.5q-11 -40 -27 -99.5t-38 -125.5t-50.5 -132.5t-64.5 -119t-80 -85.5t-97 -33q-15 0 -33 5t-33.5 14t-26.5 22.5t-11 31.5z" />
    <glyph glyph-name="uniE3CF" unicode="&#xe3cf;" horiz-adv-x="715" 
d="M542 464q0 -14 -9 -25q-14 -18 -32 -34.5t-38.5 -29.5t-43 -21t-46.5 -8q-26 0 -45 10t-31.5 26.5t-18.5 38t-6 45.5q0 61 23 108.5t61.5 83.5t89 61.5t105 41.5t110 23.5t103.5 7.5q23 0 41.5 -2t31 -10t19 -23.5t6.5 -42.5q0 -37 -7.5 -81.5t-18.5 -90t-23.5 -89.5
t-22.5 -80q-23 -85 -52 -167t-71 -159q60 -72 134 -125t157 -88t173 -52t182 -17q38 0 75.5 3.5t74 13t70.5 25.5t63 41q13 10 22.5 21.5t20.5 22.5q7 7 14.5 12.5t18.5 5.5q15 0 26.5 -14t19 -32.5t11 -38t3.5 -31.5q0 -48 -18 -91.5t-48.5 -79.5t-70 -63.5t-81.5 -43.5
q-35 -13 -71 -19t-74 -8h-18q-94 0 -180.5 30t-164.5 80t-147 113.5t-127 131.5q-27 32 -56 61.5t-60 58.5q-30 -44 -65.5 -81t-77 -65t-89.5 -43.5t-103 -15.5q-57 0 -103.5 18t-79 51t-50.5 79t-18 103q0 56 18 107.5t51.5 91.5t81.5 63.5t107 23.5q63 0 119.5 -26
t104.5 -64q45 108 74 221t53 228q-21 -3 -41.5 -13.5t-36.5 -27t-26 -37.5t-10 -43q0 -20 8.5 -35.5t8.5 -34.5zM442 78q-86 37 -177 37q-19 0 -49 -3.5t-58.5 -13t-49 -26.5t-20.5 -44q0 -21 14.5 -35t35 -22t43 -11t38.5 -3q73 0 127 31t96 90z" />
    <glyph glyph-name="uniE3D0" unicode="&#xe3d0;" horiz-adv-x="911" 
d="M238 47q0 14 6 23.5t15 17t19.5 14t18.5 14.5q21 20 42.5 59t41.5 89.5t38.5 106.5t34.5 109.5t27.5 99t18.5 74.5q-22 -2 -42.5 -13t-36.5 -27.5t-25.5 -37.5t-9.5 -43q0 -20 8.5 -36.5t8.5 -35.5q0 -13 -9 -24q-14 -17 -32 -34t-38.5 -30.5t-43.5 -21.5t-46 -8
q-26 0 -45.5 10t-32 26.5t-18.5 38t-6 45.5q0 17 2.5 33.5t7.5 33.5q20 73 71.5 123t118.5 81t141.5 44.5t141.5 13.5q23 0 42.5 -1.5t34 -9t23 -23t8.5 -43.5q0 -57 -16 -117t-31 -114q63 41 120.5 96.5t98.5 118.5q9 14 16 27.5t15 27.5q6 11 15 21.5t23 10.5
q17 0 30 -12.5t22 -30t13.5 -37t4.5 -33.5q0 -55 -25.5 -100t-65.5 -79.5t-89 -58.5t-97 -38q17 -151 70.5 -265t141 -191t207.5 -116t270 -39q83 0 163 16t149 65q17 11 30.5 23.5t28.5 26.5q8 7 15 11t18 4q16 0 27.5 -12t19 -28.5t11 -35t3.5 -30.5q0 -56 -27 -102.5
t-68.5 -83.5t-92 -62.5t-97.5 -39.5q-55 -16 -112.5 -23t-114.5 -7q-176 0 -322.5 61t-250 169.5t-156.5 258t-43 325.5q-9 -30 -22.5 -67.5t-31.5 -76t-40.5 -75t-50.5 -65t-61.5 -46t-72.5 -17.5q-15 0 -34 4t-36 13t-28.5 22.5t-11.5 32.5z" />
    <glyph glyph-name="uniE3D1" unicode="&#xe3d1;" horiz-adv-x="649" 
d="M423 461q0 -13 -9 -24q-14 -17 -32 -34t-38.5 -30.5t-43 -21.5t-46.5 -8q-26 0 -45.5 10t-32 26.5t-18.5 38t-6 45.5q0 17 2.5 33.5t7.5 33.5q20 73 72 123t119.5 81t142.5 44.5t142 13.5q22 0 41 -1.5t33.5 -8.5t22.5 -21.5t8 -41.5q0 -29 -5 -60.5t-13 -63t-16.5 -62.5
t-16.5 -59q-26 -97 -61 -192t-88 -180q87 -61 166 -118t162 -101t175 -70.5t206 -26.5q53 0 97.5 6t84.5 20.5t76.5 39.5t73.5 63q7 8 14.5 12.5t18.5 4.5q16 0 28.5 -13t21 -31t13 -37.5t4.5 -32.5q0 -51 -23 -96t-59 -81.5t-81 -63t-90 -41.5q-41 -14 -82 -20t-84 -8h-19
q-88 0 -165 20t-146 55t-131.5 82t-121 100.5t-115 111t-114.5 112.5q-39 -38 -86.5 -61t-103.5 -23q-28 0 -53 7t-43.5 21.5t-29 37t-10.5 52.5q0 37 15.5 69.5t41 57t59 38.5t69.5 14q32 0 67 -11q50 110 81.5 228t59.5 235q-22 -2 -42.5 -13t-36.5 -27.5t-25.5 -37.5
t-9.5 -43q0 -20 8.5 -36.5t8.5 -35.5zM321 91q-14 7 -29.5 11t-31.5 4q-9 0 -20 -3t-20.5 -9t-16 -14.5t-6.5 -19.5q0 -14 12 -19.5t23 -5.5q28 0 50.5 17.5t38.5 38.5z" />
    <glyph glyph-name="uniE3D2" unicode="&#xe3d2;" horiz-adv-x="990" 
d="M229 -36q0 14 6.5 24t16.5 19q14 13 27 25t25 27q45 54 80 128t60.5 155t43 162t27.5 150q-22 -2 -42.5 -13t-36.5 -27.5t-25.5 -37.5t-9.5 -43q0 -20 8.5 -36.5t8.5 -35.5q0 -13 -9 -24q-14 -17 -32 -34t-38.5 -30.5t-43.5 -21.5t-46 -8q-26 0 -45.5 10t-32 26.5
t-18.5 38t-6 45.5q0 77 37 138t95 103.5t129.5 65t140.5 22.5q56 0 91.5 -13.5t56 -39.5t28.5 -65t8 -90l-2 -35v-18q0 -8 0.5 -18.5t3.5 -20t9 -16t18 -6.5q23 0 42 24t37.5 60.5t38.5 79t44.5 79t55.5 60.5t72 24q13 0 30 -3t32 -10t25.5 -18t10.5 -27q0 -12 -4 -21
q-26 -67 -55 -145.5t-54 -160t-41 -162t-16 -152.5q0 -68 19 -116.5t51.5 -82t77 -53t96 -30t106.5 -13.5t110 -3q87 0 168 14t156 59q19 11 35.5 23.5t33.5 24.5t33 12q18 0 32 -13.5t23.5 -32.5t15 -39.5t5.5 -34.5q0 -52 -24 -95t-62 -77t-84.5 -57.5t-90.5 -36.5
q-51 -14 -103 -20.5t-104 -6.5q-139 0 -264 41.5t-220 121t-151 194.5t-56 263q0 43 5 85.5t13 84.5q-7 -10 -21 -28.5t-30 -37t-32.5 -32t-28.5 -13.5t-21 13.5t-14.5 32t-8.5 36.5t-5 27q-9 -30 -25 -73t-38 -89t-49.5 -92t-59 -82t-67.5 -58.5t-75 -22.5q-14 0 -31 5
t-31.5 15t-24.5 23t-10 30z" />
    <glyph glyph-name="uniE3D3" unicode="&#xe3d3;" horiz-adv-x="936" 
d="M209 -37q0 14 6 24t17 19q14 13 27.5 25t25.5 26q45 53 82 127.5t66 156t49.5 163.5t31.5 150q-22 -2 -42.5 -13t-36.5 -27.5t-25.5 -37.5t-9.5 -43q0 -20 8.5 -36.5t8.5 -35.5q0 -13 -9 -24q-14 -17 -32 -34t-38.5 -30.5t-43 -21.5t-46.5 -8q-27 0 -46 10t-31.5 26.5
t-18.5 38.5t-6 46q0 35 9 66q17 66 58.5 115t96.5 82t119.5 49t127.5 16q71 0 114 -20t66.5 -56t31 -87.5t7.5 -114.5q0 -26 -1 -52.5t-3 -52.5q8 26 17 64.5t20.5 81.5t26.5 86t36 77t48 55.5t63 21.5q13 0 31 -3t34.5 -10t28.5 -18t12 -27q0 -5 -1 -9.5t-3 -9.5
q-26 -66 -54.5 -142t-52 -155t-39 -157t-15.5 -149q0 -73 21 -125t57.5 -87t85 -55.5t104.5 -31t115.5 -13.5t117.5 -3q89 0 175 13.5t164 59.5q19 11 35.5 23.5t33.5 24.5t34 12q18 0 31.5 -13.5t23.5 -32.5t15 -40t5 -35q0 -51 -23.5 -94.5t-61 -77t-83 -57.5t-89.5 -37
q-50 -14 -100.5 -20t-102.5 -6q-116 0 -223.5 27.5t-201.5 79t-170.5 124t-131 163.5t-83 198t-25.5 226q-9 -33 -26 -79t-41 -96t-54.5 -98.5t-65.5 -87t-74 -62.5t-81 -24q-14 0 -30.5 5t-31 14.5t-24.5 23t-10 29.5z" />
    <glyph glyph-name="uniE3D4" unicode="&#xe3d4;" horiz-adv-x="899" 
d="M232 101q-5 0 -7 1q-69 18 -101.5 63.5t-32.5 115.5q0 26 4 51.5t11 50.5q27 100 86 176.5t139 128t174.5 78t193.5 26.5q66 0 123 -13t100 -43t67.5 -79t24.5 -122q0 -60 -15 -125t-43.5 -127t-69 -118t-91.5 -98t-110.5 -66.5t-126.5 -24.5q-56 0 -97 20t-68 54.5
t-40 80t-13 97.5q0 66 22 140.5t63 137.5t101 104.5t136 41.5h13t16 -1.5t14 -5t6 -10.5q0 -6 -3 -10.5t-7 -8.5q-36 -38 -64 -88t-48 -105t-30.5 -112t-10.5 -109q0 -10 1 -27t5 -33.5t13 -28.5t24 -12q19 0 38 17t36.5 44t32.5 59.5t27.5 64.5t21 58.5t12.5 40.5
q11 42 20.5 86t9.5 89q0 59 -25.5 94.5t-88.5 35.5q-45 0 -87 -16.5t-80 -44.5t-71 -65t-60 -77.5t-47.5 -82.5t-33.5 -80q-17 -49 -24 -92t-13 -94q-2 -12 -7 -24.5t-20 -12.5z" />
    <glyph glyph-name="uniE3D5" unicode="&#xe3d5;" horiz-adv-x="838" 
d="M414 464q0 -14 -9 -25q-28 -37 -71 -65t-91 -28q-51 0 -76.5 32t-25.5 80q0 17 2.5 32.5t6.5 31.5q14 54 43.5 95t69.5 71t88 50t99.5 32t103.5 17t100 5q49 0 106 -6t105.5 -26t81 -58t32.5 -103q0 -55 -20 -111.5t-56 -102t-86 -74t-110 -28.5q-20 0 -39 3t-39 8
q-19 -59 -43.5 -115.5t-58.5 -108.5q92 -39 195 -88t209.5 -92.5t213.5 -73.5t207 -30q47 0 82.5 6.5t65.5 21.5t57 39t57 59q7 8 14.5 14t18.5 6q17 0 30.5 -15.5t22.5 -36.5t14 -43t5 -36q0 -69 -33 -123t-85 -91.5t-115.5 -57t-125.5 -19.5q-80 0 -161 22.5t-160.5 60.5
t-157.5 87t-152 101t-144 103.5t-133 95.5q-49 -47 -107 -72.5t-127 -25.5q-26 0 -55.5 5.5t-54.5 19t-41.5 35t-16.5 54.5q0 37 19.5 64.5t48.5 46t64.5 27.5t66.5 9q44 0 93 -11q30 53 55.5 119t46.5 136t37.5 139.5t29.5 128.5q-21 -3 -41.5 -13.5t-36.5 -27t-26 -37.5
t-10 -43q0 -20 8.5 -35.5t8.5 -34.5zM651 377q34 5 60.5 25t45 49t28 62.5t9.5 64.5q0 16 -3.5 32.5t-11.5 30t-21 22t-32 9.5q-13 -75 -32.5 -148.5t-42.5 -146.5zM205 17q28 0 51.5 15.5t41.5 35.5q-17 7 -35.5 11.5t-37.5 4.5q-9 0 -20 -2.5t-20.5 -8t-16.5 -13t-7 -18.5
q0 -16 15.5 -20.5t28.5 -4.5z" />
    <glyph glyph-name="uniE3D6" unicode="&#xe3d6;" horiz-adv-x="916" 
d="M254 -301q-39 0 -61 24.5t-22 62.5q0 54 24 96.5t63 72.5t87.5 46t97.5 16q-24 18 -41 42.5t-27 52t-14.5 57.5t-4.5 59q0 66 22 140.5t63 137.5t101 104.5t136 41.5h13t16 -1.5t14 -5t6 -10.5q0 -6 -3 -10.5t-7 -8.5q-36 -38 -64 -88t-48 -105t-30.5 -112t-10.5 -109
q0 -10 1 -27t5 -33.5t13 -28.5t24 -12q19 0 38 17t36.5 44t32.5 59.5t27.5 64.5t21 58.5t12.5 40.5q11 42 20.5 86t9.5 89q0 59 -25.5 94.5t-88.5 35.5q-45 0 -87 -16.5t-80 -44.5t-71 -65t-60 -77.5t-47.5 -82.5t-33.5 -80q-17 -49 -24 -92t-13 -94q-2 -12 -7 -24.5
t-20 -12.5h-2l-3 1h-2q-69 17 -101.5 63.5t-32.5 115.5q0 26 4 51.5t11 50.5q27 100 86 176.5t139 128t174.5 78t193.5 26.5q66 0 123 -13t100 -43t67.5 -79t24.5 -122q0 -83 -28 -172.5t-78.5 -167t-121.5 -135t-157 -76.5q68 -16 142.5 -37t152.5 -43t157.5 -43.5t157 -38
t152.5 -26.5t144 -10q48 0 89 6t77 20.5t68.5 38.5t63.5 61q7 8 14.5 14t18.5 6q17 0 30 -15t22 -36t14 -42.5t5 -34.5q0 -48 -19 -89.5t-50 -76t-71 -60t-82 -40.5q-38 -14 -76 -20t-78 -8h-19q-103 0 -207 30.5t-204.5 76t-195 99t-179 99t-157 76t-128.5 30.5
q-33 0 -60 -12t-47.5 -32.5t-33 -48t-15.5 -58.5q-1 -17 -3.5 -33t-19.5 -26q-10 -6 -26.5 -9t-27.5 -3z" />
    <glyph glyph-name="uniE3D7" unicode="&#xe3d7;" horiz-adv-x="906" 
d="M1853 -69q15 0 25.5 -12t18 -29t11 -35t3.5 -29q0 -56 -27 -102.5t-68.5 -83t-91.5 -62.5t-97 -40q-55 -16 -112.5 -23t-114.5 -7q-112 0 -212.5 25.5t-186.5 73.5t-155 116t-117.5 153t-74.5 186t-25 213q-9 -31 -24 -72t-35 -83.5t-46 -83.5t-56.5 -73t-66.5 -51.5
t-76 -19.5q-15 0 -34 5.5t-36 15.5t-29 24t-12 32q0 14 6 22.5t16 16.5q40 35 74 82.5t62.5 102.5t51.5 114.5t41 120t30.5 118.5t21.5 109q-21 -3 -41.5 -13.5t-36.5 -27t-26 -37t-10 -43.5q0 -20 8.5 -35.5t8.5 -34.5q0 -14 -9 -25q-14 -18 -32 -35t-38.5 -29.5t-43 -20.5
t-46.5 -8q-26 0 -45 10t-31.5 26.5t-18.5 38t-6 45.5q0 35 10 68.5t27.5 63.5t41.5 56t52 46q37 26 80 44t88.5 28.5t92.5 15t91 4.5q53 0 114 -8t113.5 -31t87 -65.5t34.5 -110.5q0 -50 -20 -100t-54 -90.5t-79.5 -67.5t-96.5 -33q38 -131 108.5 -225.5t166.5 -155.5
t213.5 -90t247.5 -29q56 0 103 5.5t89.5 19.5t81.5 39t78 64q7 7 14.5 12t18.5 5zM657 377q34 5 60.5 24.5t44.5 47.5t27.5 61t9.5 64q0 16 -3.5 33t-11.5 31t-20.5 23.5t-31.5 10.5q-16 -75 -34 -148.5t-41 -146.5z" />
    <glyph glyph-name="uniE3D8" unicode="&#xe3d8;" horiz-adv-x="683" 
d="M676 504q-14 0 -18.5 12t-6.5 23q-3 16 -6.5 38t-12 42.5t-22.5 34.5t-37 14t-42 -14t-19 -39q0 -22 16.5 -43t41 -44t53 -49.5t53 -58t41 -69.5t16.5 -85q0 -62 -26.5 -120.5t-67.5 -104.5q69 -68 138.5 -120t144.5 -86.5t159 -52t184 -17.5q39 0 77.5 3.5t75.5 13
t71.5 25.5t64.5 42q11 11 20.5 21.5t20.5 21.5q7 7 14.5 12.5t18.5 5.5q15 0 26 -13.5t18.5 -31.5t11 -37t3.5 -31q0 -50 -20.5 -94.5t-54 -81t-76.5 -63.5t-87 -42q-40 -14 -79.5 -20t-81.5 -8h-20q-81 0 -153 19t-137 52t-124 78t-114 96t-106.5 106.5t-101.5 110.5
q-52 -32 -110 -48.5t-119 -16.5q-48 0 -93 12.5t-80 38t-56.5 64.5t-21.5 92q0 44 15.5 81.5t43.5 64.5t65.5 42.5t80.5 15.5q67 0 119 -27t101 -70q-8 33 -25.5 60t-39 52t-44 49.5t-41 51t-30.5 56.5t-12 67q0 57 25 105.5t65.5 83.5t92.5 54.5t106 19.5q32 0 73 -8
t77 -25.5t60.5 -46t24.5 -69.5q0 -28 -10.5 -50.5t-28 -40t-40 -30.5t-45.5 -22q-6 -2 -9 -2zM426 59q-21 19 -44.5 38.5t-50 35.5t-54.5 26t-58 10q-16 0 -32.5 -4t-30 -12t-22 -21.5t-8.5 -31.5q0 -27 15.5 -44t38 -27.5t48 -14.5t45.5 -4q41 0 81 11t72 38z" />
    <glyph glyph-name="uniE3D9" unicode="&#xe3d9;" horiz-adv-x="799" 
d="M414 464q0 -16 -8 -25q-13 -18 -31 -34.5t-39 -29.5t-44 -21t-46 -8q-26 0 -45.5 10t-32 26.5t-18.5 38t-6 45.5q0 16 2.5 31.5t6.5 31.5q20 72 67 122.5t109 81.5t133 45t138 14q36 0 71 -4t70.5 -9t70.5 -9t71 -4q18 0 35 5t34 5q20 0 24.5 -15t4.5 -30q0 -31 -9.5 -59
t-28 -49t-44.5 -33.5t-59 -12.5q-35 0 -66 14.5t-58 34.5q-17 -66 -33 -135t-36 -137t-46 -133.5t-62 -124.5q90 -42 191.5 -95.5t206.5 -101.5t211.5 -80.5t207.5 -32.5q46 0 81 7t64.5 22t56.5 39t56 58q7 8 14.5 14t18.5 6t19 -8q27 -24 40 -55.5t13 -67.5
q0 -69 -33 -123t-85 -91.5t-115.5 -57t-125.5 -19.5q-81 0 -162 23t-161 60.5t-158 86.5t-152.5 101.5t-144 104.5t-133.5 96q-48 -46 -106 -73t-125 -27q-30 0 -59 7t-52.5 22t-38 39t-14.5 58q0 41 18.5 72.5t48 53.5t66.5 33.5t73 11.5q26 0 51 -4t49 -11q28 57 50 118
t40 123t33 125.5t28 124.5q-21 -3 -41.5 -13.5t-36.5 -27t-25.5 -37.5t-9.5 -43q0 -19 8 -35t8 -35zM298 68q-17 7 -35.5 11.5t-37.5 4.5q-9 0 -20 -2.5t-20.5 -8t-16.5 -13t-7 -18.5q0 -16 15.5 -20.5t28.5 -4.5q28 0 51.5 15.5t41.5 35.5z" />
    <glyph glyph-name="uniE3DA" unicode="&#xe3da;" horiz-adv-x="905" 
d="M1069 737q0 -5 -1 -9.5t-3 -9.5q-26 -67 -57 -150.5t-57.5 -171.5t-44 -174t-17.5 -157q0 -64 19 -108.5t52 -74t77 -46t93.5 -24.5t102 -10t102.5 -2q51 0 101 3.5t97 14t92.5 29.5t87.5 50l33 24q17 12 33 12q18 0 32 -13.5t23.5 -32t15 -39t5.5 -34.5
q0 -53 -25.5 -96.5t-64.5 -77t-86.5 -57t-91.5 -36.5q-53 -14 -107 -20.5t-108 -6.5q-132 0 -251 36.5t-211.5 107.5t-152 177t-71.5 245q-15 -21 -40 -40.5t-53.5 -35t-59 -24.5t-56.5 -9q-30 0 -48 16.5t-28 40.5t-13 52t-3 50q0 60 12.5 127t31 135.5t41.5 134t44 121.5
q-22 -2 -42.5 -13t-36.5 -27.5t-25.5 -37.5t-9.5 -43q0 -20 8.5 -36.5t8.5 -35.5q0 -13 -9 -24q-14 -17 -32 -34t-38.5 -30.5t-43 -21.5t-46.5 -8q-27 0 -46 10t-31.5 26.5t-18.5 38.5t-6 46q0 35 9 68q20 76 69.5 126t115 80t139 42t142.5 12q21 0 41.5 -1t36 -7t25 -20.5
t9.5 -41.5q0 -24 -6.5 -57t-15.5 -67.5t-19 -67t-17 -56.5q-8 -26 -17 -58.5t-17 -66.5t-13 -67t-5 -61q0 -9 1 -20t4.5 -21t10.5 -17t19 -7q11 0 21 4.5t18 11.5q7 63 23.5 126t33.5 124q11 41 22 80.5t23 79.5q9 27 21 64t31 71t44.5 57.5t61.5 23.5q13 0 32 -3.5t37 -11
t30.5 -19t12.5 -27.5z" />
    <glyph glyph-name="uniE3DB" unicode="&#xe3db;" horiz-adv-x="881" 
d="M417 464q0 -14 -9 -25q-14 -18 -32 -34.5t-38.5 -29.5t-43 -21t-45.5 -8q-52 0 -78 34.5t-26 83.5q0 56 23.5 102.5t62 82.5t89 63t105 45t109 26.5t100.5 8.5q24 0 44.5 -3.5t36.5 -13.5t25 -27t9 -44q0 -44 -15 -92.5t-26 -91.5q-10 -38 -23 -90t-25 -106.5t-20 -107
t-8 -90.5v-5t0.5 -8t2 -7.5t4.5 -3.5q9 0 24 11t31 25t30 27.5t19 19.5q3 68 14.5 134t28.5 132q5 18 15 50t24.5 70.5t32.5 78t39 71.5t45 52.5t49 20.5q15 0 24.5 -9.5t15 -23t7 -28.5t1.5 -26q0 -54 -19.5 -120t-48.5 -132.5t-62.5 -128.5t-62.5 -108v-14
q0 -115 34.5 -192.5t97 -124.5t149.5 -67t192 -20q63 0 121 5.5t113 19.5t108 37.5t106 58.5q17 12 34 12t30 -12.5t22 -29.5t13.5 -36.5t4.5 -32.5q0 -32 -11.5 -62.5t-29.5 -56.5q-37 -53 -91 -88t-116.5 -56t-128.5 -30t-126 -9q-135 0 -246.5 36t-192.5 107t-128.5 176
t-56.5 243q-16 -18 -36 -37t-42.5 -34t-47.5 -25t-51 -10q-43 0 -68 23.5t-38 58.5t-16.5 74.5t-3.5 70.5q0 114 21.5 228.5t51.5 223.5q-21 -3 -41.5 -13.5t-36.5 -27t-26 -37.5t-10 -43q0 -20 8.5 -35.5t8.5 -34.5zM975 706q0 2 -0.5 9t-4.5 7q-5 0 -14 -19.5t-18 -43.5
t-15.5 -46t-8.5 -27q-37 -119 -56 -240q18 32 38.5 79t38 97t29 99t11.5 85z" />
    <glyph glyph-name="uniE3DC" unicode="&#xe3dc;" horiz-adv-x="1118" 
d="M416 464q0 -14 -9 -25q-14 -18 -32 -34.5t-38.5 -29.5t-43 -21t-45.5 -8q-26 0 -45.5 9.5t-32.5 26t-19.5 38.5t-6.5 46q0 16 2.5 31t6.5 30q20 75 71 125.5t118 81.5t142 44.5t143 13.5q19 0 41 -0.5t41 -6.5t32 -19.5t13 -39.5q0 -23 -5.5 -45.5t-11.5 -45.5
q-20 -74 -37.5 -148t-32.5 -149q-9 -47 -18 -96t-9 -97v-10t1.5 -14.5t4.5 -13t9 -5.5q14 0 32 34.5t38 88t40 120t38 130t32 118t21 84.5q5 18 8 37t8 37q9 32 25 40.5t45 8.5q82 0 82 -80q0 -19 -4 -41t-9.5 -44t-12 -43t-12.5 -39q-13 -40 -27.5 -89.5t-26.5 -102
t-20 -103t-8 -91.5q0 -6 0.5 -17t3 -21.5t8 -18.5t14.5 -8q12 0 26 11t22 19q-3 39 -3 79q0 146 39 285q5 18 14.5 47t23 62.5t31 67.5t38 61.5t43.5 44.5t48 17q20 0 31.5 -12t18.5 -29t9 -36.5t2 -33.5q0 -37 -9 -82t-23.5 -94t-34.5 -99t-41.5 -97t-43.5 -88.5t-42 -72.5
q16 -99 62.5 -166t115 -108.5t152.5 -59.5t175 -18q61 0 116.5 6t108 20.5t102.5 37.5t101 57q17 12 34 12t30.5 -12.5t22.5 -30.5t13.5 -37.5t4.5 -32.5q0 -32 -11 -62t-29 -56q-35 -52 -86 -87t-110.5 -56t-122 -30t-121.5 -9q-126 0 -233.5 34.5t-191 101t-140.5 163.5
t-81 222q-26 -26 -58.5 -45.5t-70.5 -19.5q-23 0 -38.5 8.5t-24.5 23t-12.5 33t-2.5 38.5q-18 -20 -39 -38.5t-44.5 -33t-49.5 -23t-54 -8.5q-50 0 -80 25t-46.5 63t-22 82.5t-5.5 83.5q0 108 21 215t49 210q-21 -3 -41.5 -13.5t-36.5 -27t-26 -37.5t-10 -43
q0 -20 8.5 -35.5t8.5 -34.5zM1073 263q20 35 43 84.5t42.5 103t32 106t12.5 92.5v7t-1 10t-3.5 9t-6.5 4q-11 0 -24 -24t-25 -54.5t-20.5 -58.5t-10.5 -36q-17 -60 -27 -120.5t-12 -122.5z" />
    </font>
</defs>
</svg>
